<svg width="69" height="60" viewBox="0 0 69 60" fill="none" xmlns="http://www.w3.org/2000/svg">
<g clip-path="url(#clip0_2013_1274)">
<path d="M2.39711 37.6258C2.34432 37.0072 2.35848 36.4565 2.32301 35.9114C2.24636 34.7698 2.44869 33.6674 2.69268 32.56C2.86587 31.7738 3.10044 31.0061 3.36143 30.2441C3.63559 29.4429 4.02948 28.6924 4.44595 27.9499C4.5754 27.7203 4.6837 27.4749 4.77807 27.2306C4.89946 26.9173 4.85564 26.616 4.75016 26.2923C4.55941 25.7029 4.21342 25.1802 4.06282 24.5649C3.95786 24.1378 3.80175 23.6952 3.65073 23.2676C3.48192 22.7876 3.30603 22.2929 3.19878 21.8065C2.97302 20.7887 2.69221 19.7845 2.49006 18.7612C2.20608 17.3262 2.03955 15.8828 1.96829 14.4287C1.92398 13.5127 1.93939 12.5923 1.94299 11.6747C1.94652 10.7284 1.99452 9.78845 2.21496 8.85325C2.34197 8.31357 2.44612 7.76215 2.57725 7.22409C2.68514 6.77964 2.92717 6.36377 3.17401 5.95906C3.6069 5.24977 4.21434 4.74043 4.95486 4.35551C5.25573 4.19967 5.52503 4.24337 5.78249 4.42773C5.88809 4.50435 6.01346 4.57762 6.07506 4.68232C6.3522 5.16592 6.86442 5.22076 7.34111 5.33754C8.25796 5.56417 9.20389 5.69486 10.0893 6.01186C10.722 6.238 11.3416 6.5053 11.9473 6.80042C12.7375 7.18559 13.4647 7.66725 14.2116 8.11684C14.6302 8.36998 14.9852 8.71388 15.4099 8.96849C16.3199 9.51543 17.0895 10.2238 17.8667 10.9259C18.4962 11.4951 19.1423 12.0439 19.7307 12.6544C20.1179 13.0553 20.4842 13.4712 20.8203 13.9122C21.0192 14.1717 21.2276 14.4247 21.5273 14.5849C21.7895 14.723 22.0477 14.7522 22.3389 14.6009C22.8172 14.3537 23.3569 14.2629 23.8727 14.1183C24.3709 13.9788 24.8771 13.8675 25.384 13.7657C26.0624 13.6285 26.7404 13.4855 27.4262 13.3957C28.4886 13.2555 29.5558 13.1266 30.6247 13.0492C31.7235 12.9696 32.8308 12.8971 33.9315 12.9266C35.3529 12.9635 36.7847 12.923 38.1909 13.1927C38.609 13.2736 39.056 13.1742 39.4551 13.3521C39.635 13.4329 39.8034 13.438 39.9884 13.4226C40.1079 13.414 40.2112 13.3759 40.2782 13.2791C40.4702 13.0009 40.7476 12.7702 40.865 12.4572C41.1102 11.8094 41.6376 11.3269 41.9542 10.7256C42.4399 9.80566 43.1832 9.07199 43.8422 8.27931C44.3078 7.71895 44.8632 7.23636 45.4168 6.75772C46.4152 5.89834 47.5212 5.17288 48.6301 4.4587C49.064 4.17833 49.5801 4.01073 50.0307 3.73873C50.811 3.26857 51.6223 2.86512 52.4832 2.54043C53.348 2.21354 54.1498 1.76289 54.8529 1.16619C55.0264 1.01957 55.2259 0.928522 55.4612 0.917232C55.7464 0.904244 56.0372 0.802756 56.3088 0.823308C56.9404 0.867596 57.4814 1.12718 57.8379 1.65674C58.1654 2.14437 58.5632 2.58093 58.8546 3.09606C59.0657 3.46954 59.1965 3.86607 59.3682 4.24814C59.9022 5.43322 60.1435 6.69312 60.4071 7.95714C60.6369 9.05892 60.706 10.1781 60.9534 11.2747C61.0832 11.8514 61.0692 12.4595 61.0726 13.0586C61.0765 13.6654 61.0682 14.2693 61.0541 14.8755C61.0329 15.9093 60.9331 16.9353 60.8014 17.9637C60.6557 19.1022 60.256 20.1595 59.8793 21.2305C59.7766 21.5252 59.6063 21.798 59.4625 22.0785C59.3099 22.3749 59.1923 22.6859 59.0192 22.9762C58.6947 23.5244 58.9054 24.03 59.248 24.4783C59.4536 24.7468 59.6243 25.0313 59.8025 25.3095C60.4427 26.303 60.8988 27.3789 61.3279 28.47C61.5537 29.0454 61.7293 29.6187 61.8288 30.2205C61.8498 30.3435 61.8765 30.4641 61.7745 30.5481C61.6801 30.6258 61.5718 30.5666 61.4611 30.5306C60.1811 30.1253 59.3809 30.3212 58.3928 31.266C57.5225 32.0969 56.7491 33.0224 55.973 33.9384C55.7388 34.2139 55.4346 34.4351 55.3064 34.8198C55.0946 35.4594 55.0006 36.0676 55.2355 36.7151C55.4856 37.4056 56.017 37.9186 56.3914 38.5293C56.6183 38.8997 56.9241 39.2261 57.0128 39.6774C57.1489 40.3684 56.5129 40.7611 56.0134 40.9084C55.4823 41.0636 54.9567 41.2377 54.4328 41.4096C53.9656 41.5622 53.5217 41.759 53.1225 42.0503C53.0123 42.1311 52.9413 42.2281 52.8558 42.3186C52.3104 42.8828 52.1005 43.5491 52.1615 44.3088C52.2677 45.6379 52.3302 46.9701 52.4661 48.2951C52.5346 48.9642 52.8585 49.5421 53.4658 49.9424C53.6423 50.058 53.5987 50.2296 53.4891 50.4023C53.1907 50.8682 52.6849 51.0963 52.2478 51.3884C51.5282 51.8676 50.8137 52.3636 50.0403 52.7643C49.2863 53.156 48.5475 53.5656 47.7642 53.9115C46.9458 54.2715 46.1273 54.6295 45.2991 54.9633C44.7838 55.171 44.2473 55.3324 43.718 55.5125C42.8431 55.8095 41.9582 56.0804 41.0572 56.2931C39.8079 56.5884 38.5659 56.9005 37.2852 57.066C36.2426 57.2027 35.1991 57.3549 34.1519 57.4288C33.3915 57.4838 32.6271 57.566 31.8578 57.5259C31.4601 57.5049 31.0599 57.532 30.6649 57.5491C29.6717 57.5942 28.6868 57.5066 27.7008 57.4305C26.8194 57.3621 25.9358 57.2902 25.0624 57.1657C24.3406 57.0628 23.6357 56.863 22.918 56.733C21.872 56.5464 20.8697 56.2187 19.8545 55.9322C18.3552 55.5102 16.9331 54.9103 15.5122 54.2989C14.1946 53.7336 12.9682 53.018 11.7917 52.2453C10.4008 51.3309 9.08641 50.3115 7.92734 49.1162C7.0169 48.1767 6.16026 47.2064 5.46483 46.1135C4.8891 45.2091 4.35976 44.2822 3.9322 43.2963C3.71368 42.7931 3.49317 42.2901 3.30595 41.777C2.81072 40.4091 2.42572 39.016 2.39711 37.6258ZM59.8963 10.1601C59.84 9.76966 59.7914 9.37484 59.7333 8.98645C59.6045 8.12058 59.5335 7.25052 59.2781 6.4034C59.1466 5.96862 58.9741 5.5483 58.8736 5.09978C58.7727 4.64555 58.5022 4.22658 58.3464 3.78781C58.0627 2.99252 57.4022 2.49263 56.9158 1.85564C56.9025 1.83746 56.8587 1.84063 56.8317 1.82726C56.3604 1.59135 55.975 1.82226 55.6358 2.08429C55.0542 2.53623 54.4128 2.93695 54.0254 3.58357C53.8897 3.8098 53.6441 3.92717 53.4738 4.1176C52.7353 4.94476 52.1957 5.8935 51.6789 6.85398C51.5078 7.17087 51.341 7.49319 51.1822 7.81493C51.0408 8.10094 50.9169 8.40675 50.7186 8.67965C50.5457 8.91814 50.3608 9.18241 50.2753 9.46629C50.1269 9.95963 49.8648 10.4018 49.6289 10.8479C49.242 11.5845 48.9047 12.3424 48.6447 13.1177C48.4622 13.6652 48.3378 14.2411 48.1721 14.7989C48.14 14.9084 48.0707 15.0015 48.0578 15.127C48.0193 15.507 48.2808 15.6643 48.5635 15.8104C49.0599 16.0617 49.5671 16.2951 50.0544 16.5585C50.6936 16.9029 51.331 17.2494 51.9561 17.6197C52.5812 17.99 53.225 18.3417 53.7932 18.7832C54.7176 19.5015 55.7084 20.1402 56.5282 20.9886C56.9996 21.4754 57.5127 21.9285 57.9485 22.4485C58.115 22.6471 58.4027 22.6416 58.5103 22.4136C58.6457 22.128 58.7785 21.835 58.9016 21.5445C59.201 20.843 59.2102 20.0859 59.4915 19.3837C59.7846 18.6501 59.7747 17.8503 59.8604 17.0723C59.8931 16.777 59.8137 16.482 59.881 16.1956C60.0081 15.6579 60.0424 15.1077 60.0714 14.5694C60.1198 13.6351 59.9463 12.7035 59.98 11.7589C59.9982 11.2367 59.9925 10.6874 59.8921 10.1585L59.8963 10.1601ZM2.45595 13.8955C2.43905 14.0767 2.53294 14.2404 2.54549 14.4137C2.62979 15.6333 2.7438 16.8488 2.93929 18.0564C3.02974 18.6148 3.13413 19.1722 3.21861 19.7311C3.27674 20.1194 3.33968 20.519 3.45568 20.9051C3.60542 21.3979 3.7577 21.8982 3.84799 22.3992C3.98422 23.1477 4.29431 23.8377 4.48119 24.5672C4.6014 25.0392 4.84976 25.4846 4.98645 25.9631C5.01339 26.0588 4.97486 26.1899 5.144 26.2045C5.283 26.2174 5.40297 26.1608 5.45112 26.052C5.54056 25.8502 5.70992 25.702 5.80602 25.5092C6.08047 24.9608 6.51036 24.5141 6.87537 24.0281C7.3151 23.4408 7.84209 22.9258 8.37746 22.416C8.83804 21.9785 9.25934 21.4961 9.75919 21.1037C10.4655 20.5508 11.1737 19.9958 11.8974 19.4609C12.4957 19.0192 13.1587 18.6686 13.7502 18.216C13.9511 18.0616 14.2276 17.9554 14.4544 17.7992C14.6526 17.6623 14.771 17.5005 14.7131 17.2538C14.5843 16.7193 14.2467 16.2841 13.975 15.8211C13.765 15.4629 13.5241 15.1203 13.3043 14.7647C13.0593 14.3669 12.8369 13.9482 12.5334 13.5968C12.1142 13.1139 11.7792 12.577 11.3906 12.0747C10.9315 11.4817 10.5371 10.8438 10.0035 10.3002C9.73788 10.0303 9.51737 9.72066 9.25883 9.43871C8.82232 8.96473 8.46142 8.42974 8.04742 7.93498C7.57641 7.37157 7.14727 6.77832 6.64964 6.23407C6.27595 5.8264 5.90611 5.41654 5.43711 5.10195C5.19949 4.94296 4.96535 4.94268 4.6992 5.08068C4.52173 5.17205 4.3976 5.30935 4.25205 5.42713C3.5112 6.02848 3.18254 6.85087 2.92049 7.70865C2.79261 8.12582 2.90108 8.57376 2.75247 8.98094C2.60544 9.38227 2.57592 9.80381 2.52341 10.2117C2.36787 11.4352 2.47901 12.6662 2.45581 13.8936L2.45595 13.8955ZM44.6558 40.1354C45.5345 40.112 46.4542 39.9362 47.369 39.7187C48.4332 39.4655 49.4559 39.1099 50.4431 38.6497C51.0412 38.3708 51.6317 38.0695 52.1715 37.703C53.1137 37.064 53.8568 36.2174 54.5857 35.368C54.7278 35.2025 54.8589 35.0226 54.9591 34.8315C55.4277 33.9243 55.6877 32.9556 55.872 31.9636C56.1395 30.5175 56.163 29.0738 55.9377 27.6193C55.8296 26.9281 55.5037 26.517 54.7841 26.3335C54.0768 26.1549 53.3571 26.0806 52.6391 26.0866C51.2811 26.095 49.9349 26.2403 48.6292 26.6681C48.0155 26.8695 47.3979 27.0732 46.8323 27.3593C46.0466 27.7551 45.2917 28.2177 44.6163 28.7837C44.1806 29.1503 43.6781 29.451 43.3199 29.8925C43.0737 30.1957 42.8211 30.4936 42.5469 30.7681C41.5843 31.7341 40.9374 32.8591 40.5865 34.1485C40.471 34.5705 40.4079 34.9983 40.3205 35.4221C40.0876 36.544 39.9889 37.6676 40.1292 38.8046C40.1756 39.169 40.2505 39.5408 40.6263 39.7281C40.9314 39.8803 41.2614 39.9885 41.6023 40.0538C42.5924 40.2407 43.5889 40.2413 44.6558 40.1354ZM22.7455 41.444C23.1735 41.413 23.6047 41.399 24.0312 41.347C24.8583 41.2469 25.6539 41.0419 26.3803 40.6273C26.951 40.3026 27.1922 39.8198 27.1633 39.1994C27.1439 38.7374 27.0136 38.293 26.9113 37.8465C26.6781 36.8369 26.3471 35.8573 25.8867 34.9159C25.3606 33.8394 24.6486 32.9047 23.729 32.1152C22.737 31.2659 21.6308 30.5799 20.4355 30.0172C19.3271 29.4942 18.1892 29.0615 16.9637 28.8553C15.5314 28.6123 14.097 28.5055 12.6446 28.7045C11.8601 28.813 11.1022 29.0134 10.3821 29.3203C9.84249 29.5509 9.33897 29.865 9.21535 30.4791C9.15786 30.7629 9.16956 31.0627 9.1746 31.3534C9.19122 32.3845 9.41615 33.3908 9.5953 34.4005C9.70286 35.0017 9.8744 35.6021 10.147 36.1608C10.4572 36.7971 10.8216 37.4084 11.3079 37.9343C11.8245 38.4925 12.3397 39.0585 12.9872 39.4885C13.4538 39.7975 13.9457 40.0415 14.4966 40.2161C14.9942 40.3735 15.4714 40.6071 15.9783 40.7542C18.1857 41.3949 20.4403 41.6645 22.7494 41.4418L22.7455 41.444ZM34.1971 54.7636C34.5019 54.7453 34.8943 54.6652 35.288 54.6309C36.3419 54.5393 37.3264 54.2076 38.2755 53.8018C39.6263 53.2233 40.8292 52.4258 41.7176 51.2641C42.3776 50.4024 42.8825 49.4715 42.949 48.3732C43.034 46.9767 42.5721 45.7653 41.6489 44.7041C41.3171 44.3222 40.8773 44.0514 40.5006 43.7129C40.0405 43.3 39.4323 43.1085 38.8782 42.8345C37.7886 42.2948 36.6129 42.0582 35.4197 41.9397C34.162 41.8143 32.9003 41.854 31.643 42.1212C30.1708 42.4327 28.7916 42.9232 27.523 43.7256C26.3979 44.4371 25.5174 45.3473 24.924 46.4934C24.0672 48.1468 24.3381 50.2855 25.4615 51.6788C25.578 51.8236 25.7363 51.9366 25.8642 52.0729C26.5867 52.8479 27.4394 53.4603 28.4248 53.8869C30.2262 54.668 32.1312 54.917 34.1954 54.7675L34.1971 54.7636ZM36.0407 37.2506C35.9967 36.6429 35.9688 36.1738 35.9289 35.7056C35.8968 35.346 35.8191 34.9916 35.7042 34.6475C35.612 34.3688 35.3374 34.2796 35.1072 34.4724C34.8583 34.6819 34.5777 34.842 34.3041 35.0151C33.6403 35.4366 32.9417 35.6269 32.1605 35.312C31.8534 35.1887 31.6176 34.9721 31.3456 34.8079C30.9668 34.5787 30.7327 34.6895 30.7002 35.1247C30.6786 35.4059 30.657 35.6889 30.6917 35.9737C30.8052 36.9058 30.9165 37.8361 31.0121 38.7695C31.0541 39.184 31.2 39.5679 31.3204 39.9594C31.4065 40.2366 31.5982 40.4526 31.8985 40.5649C32.2336 40.6881 32.584 40.6914 32.9235 40.6554C33.5928 40.5858 34.2582 40.4898 34.9214 40.3633C35.5668 40.2399 35.964 39.8952 36.0814 39.2777C36.2189 38.5515 36.063 37.835 36.0428 37.2524L36.0407 37.2506ZM32.8435 29.5996C33.7616 29.65 34.451 28.7804 34.4669 28.1702C34.4908 27.2569 34.4082 26.3647 33.9281 25.5377C33.6286 25.0212 33.2029 24.7246 32.5988 24.6994C31.8521 24.6673 31.2769 24.9598 30.9286 25.6208C30.6735 26.1046 30.6853 26.6266 30.6826 27.142C30.6807 27.8354 30.8243 28.4914 31.2588 29.0766C31.6644 29.6199 32.2325 29.6458 32.8415 29.5998L32.8435 29.5996ZM34.9906 32.5849C34.9174 31.9889 34.788 31.418 34.3633 30.9412C33.3054 29.7615 31.7585 30.3121 31.2344 31.1716C31.0198 31.5242 30.9954 31.9051 30.9775 32.2933C30.9574 32.762 30.9385 33.2479 31.0642 33.685C31.3389 34.6322 32.5016 35.2413 33.5582 34.8565C34.1704 34.6341 34.7335 34.3137 34.89 33.6283C34.9693 33.2855 35.0262 32.9385 34.9884 32.5832L34.9906 32.5849ZM33.2059 16.4474C33.1912 16.2435 33.2 16.0341 33.1575 15.8342C33.0616 15.393 32.824 15.0961 32.3432 15.062C31.9127 15.03 31.487 15.0914 31.0612 15.1261C30.5023 15.1723 30.1687 15.6216 30.2651 16.1528C30.2956 16.3248 30.3005 16.5026 30.3271 16.6768C30.3959 17.1296 30.4826 17.581 30.6616 18.0085C30.7633 18.252 30.9231 18.4415 31.1759 18.5611C31.903 18.903 32.9596 18.545 33.1566 17.6728C33.2492 17.2658 33.2538 16.8595 33.2062 16.4512L33.2059 16.4474ZM33.574 21.6968C33.5556 21.4434 33.5471 21.1874 33.5168 20.9349C33.4397 20.3123 32.6538 19.6836 32.0059 19.7171C31.3798 19.7471 30.7603 20.2554 30.641 20.875C30.4824 21.6965 30.6952 22.4797 30.9572 23.2517C31.0616 23.5601 31.3306 23.6555 31.628 23.6723C31.9535 23.6909 32.2813 23.6863 32.6064 23.6723C33.1609 23.6475 33.3975 23.4331 33.5525 22.9202C33.6768 22.509 33.5974 22.103 33.5758 21.6947L33.574 21.6968Z" fill="#070508"/>
<path d="M59.8964 10.16C59.9967 10.6889 60.0024 11.2381 59.9842 11.7604C59.9506 12.705 60.1261 13.6365 60.0756 14.5708C60.0466 15.1092 60.0125 15.6613 59.8852 16.1971C59.8178 16.4816 59.8973 16.7784 59.8647 17.0738C59.7789 17.8518 59.7908 18.6515 59.4957 19.3852C59.2145 20.0893 59.2053 20.8464 58.9058 21.546C58.7828 21.8365 58.6498 22.1276 58.5145 22.4151C58.4069 22.6431 58.1192 22.6486 57.9527 22.45C57.5168 21.9281 57.0038 21.4769 56.5324 20.9901C55.7126 20.1417 54.7219 19.503 53.7974 18.7847C53.2293 18.3451 52.5854 17.9915 51.9603 17.6212C51.3352 17.2509 50.6978 16.9044 50.0586 16.56C49.5693 16.2967 49.0622 16.0634 48.5677 15.8119C48.2831 15.6678 48.0236 15.5104 48.062 15.1285C48.0749 15.003 48.1424 14.912 48.1763 14.8004C48.3419 14.2407 48.4664 13.6667 48.6489 13.1192C48.9089 12.3439 49.2443 11.5861 49.6331 10.8494C49.8688 10.4014 50.1331 9.96097 50.2795 9.46777C50.365 9.18389 50.55 8.91963 50.7228 8.68113C50.9211 8.40823 51.0471 8.10228 51.1864 7.81642C51.3451 7.49277 51.512 7.17236 51.6832 6.85547C52.2 5.89689 52.7397 4.94815 53.478 4.11908C53.6483 3.92865 53.8938 3.80938 54.0297 3.58505C54.4171 2.93843 55.0584 2.53771 55.64 2.08577C55.9771 1.82198 56.3647 1.59284 56.836 1.82874C56.863 1.84211 56.9066 1.83703 56.9201 1.85713C57.4044 2.49426 58.0669 2.99401 58.3506 3.7893C58.5064 4.22806 58.7769 4.64704 58.8778 5.10127C58.9783 5.54978 59.1508 5.9701 59.2823 6.40488C59.5378 7.25201 59.6088 8.12206 59.7375 8.98794C59.7956 9.37632 59.8442 9.77114 59.9005 10.1616L59.8964 10.16Z" fill="#FAC1E4"/>
<path d="M2.45634 13.8953C2.47954 12.668 2.36827 11.4351 2.52395 10.2135C2.57646 9.80557 2.60611 9.38593 2.753 8.98271C2.90161 8.57552 2.79314 8.12759 2.92102 7.71041C3.18322 6.85454 3.51173 6.03025 4.25259 5.42889C4.39813 5.31111 4.52226 5.17381 4.69974 5.08245C4.96588 4.94444 5.20002 4.94473 5.43764 5.10371C5.90465 5.41845 6.27436 5.82641 6.65017 6.23584C7.1478 6.78008 7.57695 7.37333 8.04795 7.93674C8.46196 8.4315 8.82285 8.96649 9.25937 9.44047C9.51776 9.72052 9.73828 10.0301 10.0041 10.302C10.5377 10.8455 10.9319 11.4815 11.3912 12.0764C11.7797 12.5788 12.1146 13.1137 12.5339 13.5985C12.8395 13.9498 13.0619 14.3685 13.3048 14.7665C13.5226 15.1222 13.7655 15.4647 13.9756 15.8229C14.2472 16.2858 14.5849 16.721 14.7136 17.2556C14.7735 17.5021 14.6531 17.664 14.4549 17.801C14.2281 17.9572 13.9517 18.0634 13.7507 18.2177C13.1593 18.6723 12.4982 19.0208 11.8979 19.4626C11.1721 19.9958 10.4659 20.5506 9.75972 21.1054C9.25987 21.4978 8.83857 21.9803 8.378 22.4177C7.84249 22.9257 7.31364 23.4428 6.8759 24.0298C6.51103 24.5178 6.08313 24.9643 5.80655 25.511C5.71031 25.7018 5.54109 25.852 5.45165 26.0538C5.4035 26.1626 5.28354 26.2191 5.14453 26.2062C4.97539 26.1917 5.01393 26.0606 4.98699 25.9648C4.85043 25.4883 4.60407 25.0427 4.48172 24.5689C4.29484 23.8394 3.98462 23.1475 3.84853 22.4009C3.75823 21.9 3.60595 21.3997 3.45621 20.9068C3.34035 20.5226 3.27727 20.1212 3.21914 19.7328C3.13466 19.174 3.03027 18.6166 2.93982 18.0582C2.7442 16.8486 2.63032 15.635 2.54603 14.4155C2.53334 14.2402 2.43959 14.0785 2.45648 13.8972L2.45634 13.8953Z" fill="#FAC1E4"/>
<path d="M51.5421 26.4304C52.6057 26.2787 53.6801 26.4154 54.7365 26.607C55.0609 26.6659 55.3907 26.9369 55.4954 27.3334C55.7589 28.3198 55.7893 29.3192 55.7444 30.3298C55.7133 31.0061 55.64 31.6798 55.4774 32.3351C55.1746 33.5424 54.7986 34.734 53.8786 35.6796C53.4055 36.1658 52.9584 36.6789 52.442 37.1185C51.8765 37.5999 51.1847 37.9104 50.5236 38.2589C49.5983 38.7453 48.5824 39.0027 47.5904 39.3139C47.0151 39.4935 46.3984 39.5707 45.7959 39.6507C45.0784 39.7448 44.3609 39.8676 43.6347 39.8704C42.7725 39.8734 41.905 39.9132 41.0776 39.5959C40.6536 39.4331 40.4578 39.2156 40.4164 38.7819C40.2848 37.4069 40.51 36.0672 40.7906 34.7198C41.1294 33.098 41.9807 31.7552 43.081 30.5361C43.7072 29.8434 44.4408 29.2522 45.2202 28.7132C45.8032 28.309 46.3599 27.8723 47.019 27.5794C47.911 27.1855 48.8413 26.9074 49.7913 26.6797C50.3577 26.543 50.9311 26.4478 51.5407 26.4382L51.5421 26.4304Z" fill="#FDFDFD"/>
<path d="M22.5476 41.2151C21.0517 41.3923 19.4237 41.1827 17.8012 40.9382C16.8219 40.7889 15.8346 40.5846 14.946 40.1951C13.3549 39.5002 11.94 38.557 10.9733 37.0892C10.4673 36.3195 10.2068 35.4843 9.99614 34.6205C9.7058 33.4293 9.55039 32.2225 9.4718 30.9987C9.42971 30.3621 9.78262 30.0129 10.2555 29.7182C10.9333 29.2957 11.7305 29.1959 12.502 29.073C14.5435 28.749 16.5573 28.9537 18.5107 29.54C19.5642 29.8563 20.5468 30.3559 21.5023 30.8957C22.0572 31.2079 22.5883 31.5505 23.0863 31.9339C24.0252 32.6588 24.8268 33.5046 25.3978 34.5377C25.8972 35.438 26.2523 36.3909 26.4901 37.381C26.6448 38.0248 26.7563 38.6812 26.8577 39.3346C26.9294 39.8005 26.6902 40.1453 26.286 40.3929C25.5195 40.862 24.6502 41.015 23.7736 41.1244C23.4187 41.1693 23.0593 41.18 22.5457 41.2171L22.5476 41.2151Z" fill="#FDFDFD"/>
<path d="M34.3001 54.5014C32.8796 54.6138 31.6688 54.5004 30.4577 54.3008C28.9225 54.0462 27.6145 53.3633 26.4953 52.3872C25.1283 51.1954 24.3945 49.7107 24.7203 47.8812C24.8584 47.1071 25.1873 46.3996 25.6585 45.7488C26.2477 44.9325 27.0137 44.3197 27.8773 43.7823C29.009 43.0798 30.2512 42.6873 31.554 42.4398C32.1955 42.3187 32.8388 42.1936 33.496 42.1785C34.8385 42.1484 36.1744 42.2202 37.4663 42.569C38.4602 42.838 39.4184 43.2206 40.245 43.831C41.266 44.5844 42.1329 45.4753 42.5014 46.6954C42.7908 47.653 42.7366 48.6183 42.4038 49.577C41.9368 50.9207 41.0003 51.8867 39.817 52.679C38.9104 53.2847 37.9196 53.6954 36.8784 54.0447C35.97 54.3498 35.0354 54.3754 34.3025 54.5069L34.3001 54.5014ZM33.8735 51.1789C34.3404 51.1605 34.7813 51.0596 35.2208 50.911C36.3381 50.5351 37.2135 49.9126 37.6137 48.8073C37.8121 48.2586 37.7659 47.7028 37.4706 47.1898C36.7082 45.8623 35.4225 45.4058 33.9439 45.352C32.6819 45.3055 31.5688 45.7403 30.5924 46.5158C30.0835 46.9203 29.8008 47.4655 29.6724 48.0417C29.4847 48.8768 29.8147 49.6209 30.4635 50.1791C31.4259 51.0076 32.6043 51.2536 33.8735 51.1789Z" fill="#FDFDFD"/>
<path d="M35.7708 37.1857C35.7895 37.8585 35.9559 38.5263 35.8489 39.2043C35.7542 39.8029 35.5303 39.9723 34.9014 40.1021C34.1917 40.2493 33.4855 40.3904 32.7584 40.4354C31.9975 40.4828 31.528 40.2717 31.4044 39.4495C31.2053 38.1367 31.0061 36.8221 30.926 35.495C30.9239 35.4664 30.9217 35.4359 30.9237 35.4071C30.9386 35.2547 30.9115 35.0728 31.0837 34.9914C31.2558 34.91 31.3704 35.0549 31.4792 35.1485C32.2589 35.8294 33.3281 35.8113 34.1825 35.3416C34.4385 35.2005 34.6829 35.0391 34.9319 34.8851C35.2364 34.6965 35.4064 34.7512 35.5273 35.0661C35.7367 35.6101 35.6705 36.1876 35.7391 36.7475C35.7576 36.8937 35.7603 37.0409 35.7709 37.1876L35.7708 37.1857ZM34.6006 37.799C34.637 37.1414 33.723 36.6503 33.0939 36.6939C32.5007 36.7369 31.9066 37.3487 31.9613 37.8828C32.0347 38.5919 32.7583 39.1063 33.3511 39.0864C33.9479 39.0662 34.7345 38.2394 34.6006 37.799Z" fill="#FDFDFD"/>
<path d="M34.1879 27.6809C34.2652 28.2786 34.1163 28.8754 33.4293 29.1702C32.8994 29.3963 32.3198 29.4344 31.7677 29.1871C31.6104 29.1162 31.4933 28.9906 31.412 28.8356C30.8816 27.8111 30.8155 26.7588 31.2155 25.6784C31.3761 25.2436 32.0493 24.9516 32.6692 25.0006C33.3334 25.054 33.6815 25.4405 33.8685 26.0054C34.0423 26.5271 34.1453 27.0654 34.1919 27.6806L34.1879 27.6809Z" fill="#FDFDFD"/>
<path d="M32.8492 30.5492C33.5661 30.5011 34.157 30.8414 34.485 31.5856C34.7986 32.2963 34.8465 33.0417 34.5032 33.7713C34.2205 34.372 33.4955 34.7501 32.7902 34.6824C32.0144 34.6064 31.5491 34.2054 31.3539 33.4994C31.1836 32.8874 31.2332 32.2749 31.3314 31.6683C31.4403 30.9882 31.942 30.6493 32.849 30.5473L32.8492 30.5492Z" fill="#FDFDFD"/>
<path d="M32.9644 16.4724C33.04 16.9917 32.9919 17.4873 32.7399 17.9595C32.6501 18.1287 32.5175 18.2322 32.3359 18.2932C32.0704 18.3852 31.7913 18.3997 31.5201 18.3848C31.2186 18.3664 31.017 18.1799 30.9195 17.9112C30.6919 17.2823 30.551 16.6356 30.5147 15.968C30.4985 15.6896 30.7137 15.4557 31.0688 15.4127C31.4733 15.3624 31.8818 15.3385 32.291 15.3242C32.5864 15.3143 32.8814 15.5745 32.9223 15.8626C32.951 16.0655 32.9539 16.2721 32.9684 16.4721L32.9644 16.4724Z" fill="#FDFDFD"/>
<path d="M33.3594 21.6834C33.391 22.1197 33.4689 22.5603 33.2756 22.986C33.1532 23.2572 32.9755 23.4559 32.641 23.4513C32.2845 23.4465 31.9294 23.4339 31.574 23.4175C31.3732 23.4072 31.2095 23.3022 31.1527 23.1263C30.9166 22.408 30.7372 21.6703 30.8745 20.9134C30.9745 20.3604 31.5644 19.9136 32.0622 19.935C32.6604 19.9606 33.2556 20.4978 33.315 21.07C33.3357 21.2734 33.3447 21.4796 33.3596 21.6853L33.3594 21.6834Z" fill="#FDFDFD"/>
<path d="M33.6958 50.935C32.6391 50.9598 31.5066 50.7947 30.6169 49.9763C29.9952 49.4046 29.784 48.6979 30.0076 47.8621C30.2188 47.075 30.8121 46.6471 31.4746 46.2621C32.2005 45.8418 32.9947 45.6733 33.8363 45.6621C34.426 45.6539 34.9973 45.7504 35.5452 45.9387C36.3516 46.2154 36.9843 46.6905 37.29 47.4861C37.63 48.3673 37.2296 49.3328 36.5458 49.9205C35.7451 50.6066 34.7356 50.8424 33.694 50.937L33.6958 50.935Z" fill="#070508"/>
<path d="M34.1675 37.8C34.1993 38.2401 33.8146 38.6471 33.3309 38.6821C32.8472 38.7172 32.4131 38.333 32.3815 37.8412C32.3568 37.4715 32.7071 37.0861 33.0955 37.0618C33.5317 37.034 34.2197 37.3615 34.1675 37.8Z" fill="#070508"/>
<path d="M61.8597 30.2546C62.2104 31.4779 62.029 33.1744 61.8968 34.2775C60.8626 42.9051 56.5753 48.03 53.0941 50.8291C53.0468 50.867 51.8357 51.6614 51.8357 51.6614C51.8357 51.6614 48.9111 45.6204 49.9229 42.7358C50.6673 40.6078 56.3855 34.3528 56.9333 30.8085C57.2047 29.0576 61.2171 28.0126 61.8595 30.2527L61.8597 30.2546Z" fill="#070508"/>
</g>
<defs>
<clipPath id="clip0_2013_1274">
<rect width="64.3038" height="55.1175" fill="white" transform="translate(0 4.64336) rotate(-4.14092)"/>
</clipPath>
</defs>
</svg>
