<svg width="90" height="85" viewBox="0 0 90 85" fill="none" xmlns="http://www.w3.org/2000/svg">
<path d="M33.0833 56H5.58333C4.36776 56 3.20197 55.5171 2.34243 54.6576C1.48289 53.798 1 52.6322 1 51.4167V5.58333C1 4.36776 1.48289 3.20197 2.34243 2.34243C3.20197 1.48289 4.36776 1 5.58333 1H78.9167C80.1322 1 81.298 1.48289 82.1576 2.34243C83.0171 3.20197 83.5 4.36776 83.5 5.58333V33.0833M19.3333 74.3333H35.375M28.5 56V74.3333M69.75 83.5L85.1042 68.4483C86.0457 67.5347 86.7947 66.4416 87.3069 65.2337C87.819 64.0258 88.084 62.7275 88.0862 61.4155C88.0883 60.1035 87.8275 58.8043 87.3193 57.5947C86.8111 56.3852 86.0657 55.2897 85.1271 54.3729C83.213 52.4977 80.6416 51.4452 77.9621 51.44C75.2825 51.4349 72.7071 52.4776 70.7858 54.3454L69.7592 55.3538L68.7371 54.3454C66.8232 52.4716 64.2528 51.4199 61.5743 51.4148C58.8959 51.4096 56.3215 52.4515 54.4004 54.3179C53.4585 55.2313 52.7092 56.3241 52.1967 57.5319C51.6841 58.7396 51.4187 60.0378 51.4161 61.3498C51.4136 62.6618 51.6739 63.9611 52.1817 65.1708C52.6896 66.3805 53.4346 67.4763 54.3729 68.3933L69.75 83.5Z" stroke="black" stroke-width="2" stroke-linecap="round" stroke-linejoin="round"/>
</svg>
