<svg width="99" height="70" viewBox="0 0 99 70" fill="none" xmlns="http://www.w3.org/2000/svg">
<path d="M15.5 34.8333C15.5 39.2764 16.3751 43.6759 18.0754 47.7808C19.7757 51.8856 22.2678 55.6154 25.4096 58.7571C28.5513 61.8988 32.281 64.391 36.3859 66.0913C40.4907 67.7915 44.8903 68.6667 49.3333 68.6667C53.7764 68.6667 58.1759 67.7915 62.2808 66.0913C66.3856 64.391 70.1154 61.8988 73.2571 58.7571C76.3988 55.6154 78.891 51.8856 80.5913 47.7808C82.2915 43.6759 83.1667 39.2764 83.1667 34.8333M15.5 34.8333C15.5 30.3903 16.3751 25.9907 18.0754 21.8859C19.7757 17.781 22.2678 14.0513 25.4096 10.9096C28.5513 7.76784 32.281 5.27569 36.3859 3.57541C40.4907 1.87512 44.8903 1 49.3333 1C53.7764 1 58.1759 1.87512 62.2808 3.57541C66.3856 5.27569 70.1154 7.76784 73.2571 10.9096C76.3988 14.0513 78.891 17.781 80.5913 21.8859C82.2915 25.9907 83.1667 30.3903 83.1667 34.8333M15.5 34.8333H1M83.1667 34.8333H97.6667" stroke="black" stroke-width="2" stroke-linecap="round" stroke-linejoin="round"/>
<path d="M39.667 25.167L49.3337 44.5003L59.0003 25.167" stroke="black" stroke-width="2" stroke-linecap="round" stroke-linejoin="round"/>
</svg>
