<svg width="63" height="63" viewBox="0 0 63 63" fill="none" xmlns="http://www.w3.org/2000/svg">
<path d="M33.0625 41.5H4.375C3.47989 41.5 2.62145 41.1444 1.98851 40.5115C1.35558 39.8785 1 39.0201 1 38.125V4.375C1 3.47989 1.35558 2.62145 1.98851 1.98852C2.62145 1.35558 3.47989 1 4.375 1H58.375C59.2701 1 60.1286 1.35558 60.7615 1.98852C61.3944 2.62145 61.75 3.47989 61.75 4.375V31.375M14.5 55H33.0625M21.25 41.5V55M44.875 61.75L61.75 44.875M61.75 44.875V60.0625M61.75 44.875H46.5625" stroke="black" stroke-width="2" stroke-linecap="round" stroke-linejoin="round"/>
</svg>
