<svg width="23" height="23" viewBox="0 0 23 23" fill="none" xmlns="http://www.w3.org/2000/svg">
<path d="M1 6.16667C1 4.79638 1.54434 3.48222 2.51328 2.51328C3.48222 1.54434 4.79638 1 6.16667 1H16.5C17.8703 1 19.1844 1.54434 20.1534 2.51328C21.1223 3.48222 21.6667 4.79638 21.6667 6.16667V16.5C21.6667 17.8703 21.1223 19.1844 20.1534 20.1534C19.1844 21.1223 17.8703 21.6667 16.5 21.6667H6.16667C4.79638 21.6667 3.48222 21.1223 2.51328 20.1534C1.54434 19.1844 1 17.8703 1 16.5V6.16667Z" stroke="black" stroke-width="2" stroke-linecap="round" stroke-linejoin="round"/>
<path d="M17.1455 5.52051V5.53342M7.45801 11.333C7.45801 12.3607 7.86627 13.3463 8.59297 14.073C9.31967 14.7998 10.3053 15.208 11.333 15.208C12.3607 15.208 13.3463 14.7998 14.073 14.073C14.7998 13.3463 15.208 12.3607 15.208 11.333C15.208 10.3053 14.7998 9.31967 14.073 8.59297C13.3463 7.86627 12.3607 7.45801 11.333 7.45801C10.3053 7.45801 9.31967 7.86627 8.59297 8.59297C7.86627 9.31967 7.45801 10.3053 7.45801 11.333Z" stroke="black" stroke-width="2" stroke-linecap="round" stroke-linejoin="round"/>
</svg>
