<svg width="57" height="72" viewBox="0 0 57 72" fill="none" xmlns="http://www.w3.org/2000/svg">
<path d="M26.6667 67H8.33333C6.38841 67 4.52315 66.2274 3.14788 64.8521C1.77262 63.4768 1 61.6116 1 59.6667V8.33333C1 6.38841 1.77262 4.52315 3.14788 3.14788C4.52315 1.77262 6.38841 1 8.33333 1H37.6667C39.6116 1 41.4768 1.77262 42.8521 3.14788C44.2274 4.52315 45 6.38841 45 8.33333V26.6667M19.3333 4.66667H26.6667M23 52.3333V52.37M56 45H46.8333C45.3746 45 43.9757 45.5795 42.9442 46.6109C41.9128 47.6424 41.3333 49.0413 41.3333 50.5C41.3333 51.9587 41.9128 53.3576 42.9442 54.3891C43.9757 55.4205 45.3746 56 46.8333 56H50.5C51.9587 56 53.3576 56.5795 54.3891 57.6109C55.4205 58.6424 56 60.0413 56 61.5C56 62.9587 55.4205 64.3576 54.3891 65.3891C53.3576 66.4205 51.9587 67 50.5 67H41.3333M48.6667 67V70.6667M48.6667 41.3333V45" stroke="black" stroke-width="2" stroke-linecap="round" stroke-linejoin="round"/>
</svg>
