<svg width="18" height="26" viewBox="0 0 18 26" fill="none" xmlns="http://www.w3.org/2000/svg">
<path d="M7.45833 2.29167H10.0417M8.75 19.0833V19.0962M1 3.58333C1 2.89819 1.27217 2.24111 1.75664 1.75664C2.24111 1.27217 2.89819 1 3.58333 1H13.9167C14.6018 1 15.2589 1.27217 15.7434 1.75664C16.2278 2.24111 16.5 2.89819 16.5 3.58333V21.6667C16.5 22.3518 16.2278 23.0089 15.7434 23.4934C15.2589 23.9778 14.6018 24.25 13.9167 24.25H3.58333C2.89819 24.25 2.24111 23.9778 1.75664 23.4934C1.27217 23.0089 1 22.3518 1 21.6667V3.58333Z" stroke="black" stroke-width="2" stroke-linecap="round" stroke-linejoin="round"/>
</svg>
