<svg width="19" height="21" viewBox="0 0 19 21" fill="none" xmlns="http://www.w3.org/2000/svg">
<path d="M5.99902 8.99805C5.99902 9.7937 6.31509 10.5568 6.8777 11.1194C7.44031 11.682 8.20337 11.998 8.99902 11.998C9.79467 11.998 10.5577 11.682 11.1203 11.1194C11.683 10.5568 11.999 9.7937 11.999 8.99805C11.999 8.2024 11.683 7.43934 11.1203 6.87673C10.5577 6.31412 9.79467 5.99805 8.99902 5.99805C8.20337 5.99805 7.44031 6.31412 6.8777 6.87673C6.31509 7.43934 5.99902 8.2024 5.99902 8.99805Z" stroke="black" stroke-width="2" stroke-linecap="round" stroke-linejoin="round"/>
<path d="M8.86881 19.4785C8.38498 19.4471 7.92904 19.241 7.58581 18.8985L3.34181 14.6555C2.34567 13.6589 1.63043 12.4169 1.26846 11.0551C0.906487 9.69325 0.910628 8.25999 1.28046 6.9003C1.6503 5.54061 2.3727 4.30272 3.37459 3.31188C4.37647 2.32104 5.6223 1.6124 6.98601 1.25766C8.34972 0.902922 9.78293 0.91467 11.1406 1.29172C12.4984 1.66876 13.7324 2.39773 14.7179 3.40486C15.7034 4.41199 16.4054 5.66155 16.7529 7.02713C17.1004 8.3927 17.0811 9.82583 16.6968 11.1815M11.9988 16.9985L13.9988 18.9985L17.9988 14.9985" stroke="black" stroke-width="2" stroke-linecap="round" stroke-linejoin="round"/>
</svg>
