<svg width="71" height="60" viewBox="0 0 71 60" fill="none" xmlns="http://www.w3.org/2000/svg">
<path d="M40.5308 20.5387C40.1688 19.409 39.5353 18.3855 38.6856 17.5577C37.836 16.73 36.7962 16.1234 35.6575 15.791C34.5189 15.4587 33.316 15.4109 32.1545 15.6517C30.9931 15.8925 29.9084 16.4147 28.9957 17.1723C28.083 17.93 27.3702 18.9 26.9197 19.9973C26.4692 21.0946 26.2948 22.2857 26.4118 23.4661C26.5289 24.6465 26.9338 25.7802 27.591 26.7676C28.2482 27.7551 29.1377 28.5663 30.1814 29.1299" stroke="#FAC1E4" stroke-width="2" stroke-linecap="round" stroke-linejoin="round"/>
<path d="M26.346 43.6989C16.4787 41.449 8.03008 34.466 1 22.75C9.7 8.25 20.575 1 33.625 1C45.7035 1 55.9188 7.21083 64.2708 19.6325M55.375 59L67.5188 47.0955C68.2634 46.3729 68.8558 45.5083 69.2609 44.553C69.666 43.5976 69.8755 42.5708 69.8772 41.5331C69.8789 40.4955 69.6727 39.468 69.2707 38.5113C68.8688 37.5546 68.2792 36.6882 67.5369 35.9631C66.023 34.48 63.9893 33.6476 61.87 33.6435C59.7507 33.6394 57.7138 34.4641 56.1942 35.9414L55.3823 36.7389L54.5739 35.9414C53.0602 34.4594 51.0272 33.6276 48.9088 33.6235C46.7904 33.6194 44.7543 34.4434 43.2349 35.9196C42.4899 36.642 41.8973 37.5063 41.4919 38.4616C41.0865 39.4168 40.8766 40.4435 40.8746 41.4812C40.8726 42.5189 41.0784 43.5465 41.4801 44.5033C41.8817 45.4601 42.471 46.3267 43.2131 47.052L55.375 59Z" stroke="#FAC1E4" stroke-width="2" stroke-linecap="round" stroke-linejoin="round"/>
</svg>
