<svg width="50" height="64" viewBox="0 0 50 64" fill="none" xmlns="http://www.w3.org/2000/svg">
<path d="M31.75 1V14.6667C31.75 15.5728 32.11 16.4419 32.7507 17.0826C33.3915 17.7234 34.2605 18.0833 35.1667 18.0833H48.8333" stroke="#FAC1E4" stroke-width="2" stroke-linecap="round" stroke-linejoin="round"/>
<path d="M42 62.5H7.83333C6.02102 62.5 4.28294 61.7801 3.00144 60.4986C1.71994 59.2171 1 57.479 1 55.6667V7.83333C1 6.02102 1.71994 4.28294 3.00144 3.00144C4.28294 1.71994 6.02102 1 7.83333 1H31.75L48.8333 18.0833V55.6667C48.8333 57.479 48.1134 59.2171 46.8319 60.4986C45.5504 61.7801 43.8123 62.5 42 62.5Z" stroke="#FAC1E4" stroke-width="2" stroke-linecap="round" stroke-linejoin="round"/>
<path d="M14.667 42.0001L21.5003 48.8334L35.167 35.1667" stroke="#FAC1E4" stroke-width="2" stroke-linecap="round" stroke-linejoin="round"/>
</svg>
