<svg width="65" height="69" viewBox="0 0 65 69" fill="none" xmlns="http://www.w3.org/2000/svg">
<path d="M20.25 1H37.75C39.1424 1 40.4777 1.55312 41.4623 2.53769C42.4469 3.52226 43 4.85761 43 6.25C43 9.4989 41.7094 12.6147 39.4121 14.9121C37.1147 17.2094 33.9989 18.5 30.75 18.5H27.25C24.0011 18.5 20.8853 17.2094 18.5879 14.9121C16.2906 12.6147 15 9.4989 15 6.25C15 4.85761 15.5531 3.52226 16.5377 2.53769C17.5223 1.55312 18.8576 1 20.25 1Z" stroke="#FAC1E4" stroke-width="2" stroke-linecap="round" stroke-linejoin="round"/>
<path d="M27.25 63.9999H15C11.287 63.9999 7.72601 62.5249 5.1005 59.8994C2.475 57.2739 1 53.713 1 49.9999V46.4999C0.999146 40.6348 2.84009 34.9175 6.26305 30.1548C9.68601 25.3921 14.5181 21.8245 20.0775 19.9555C25.6369 18.0865 31.6428 18.0105 37.2478 19.7382C42.8527 21.4658 47.7736 24.9099 51.316 29.5844" stroke="#FAC1E4" stroke-width="2" stroke-linecap="round" stroke-linejoin="round"/>
<path d="M50.0004 67.5L61.7254 56.006C62.4444 55.3083 63.0164 54.4736 63.4075 53.5512C63.7986 52.6287 64.0009 51.6373 64.0026 50.6354C64.0042 49.6335 63.8051 48.6415 63.417 47.7178C63.0289 46.7941 62.4597 45.9575 61.7429 45.2575C60.2812 43.8255 58.3177 43.0218 56.2714 43.0178C54.2252 43.0139 52.2586 43.8101 50.7914 45.2365L50.0074 46.0065L49.2269 45.2365C47.7654 43.8056 45.8026 43.0025 43.7572 42.9985C41.7118 42.9946 39.7459 43.7902 38.2789 45.2155C37.5597 45.913 36.9875 46.7475 36.596 47.6698C36.2046 48.5921 36.002 49.5834 36 50.5853C35.9981 51.5872 36.1968 52.5793 36.5846 53.5031C36.9724 54.4269 37.5414 55.2637 38.2579 55.964L50.0004 67.5Z" stroke="#FAC1E4" stroke-width="2" stroke-linecap="round" stroke-linejoin="round"/>
</svg>
