<svg width="20" height="20" viewBox="0 0 20 20" fill="none" xmlns="http://www.w3.org/2000/svg">
<path d="M16.993 7.10933C17.376 7.50933 17.68 7.97233 17.886 8.47733C18.3009 9.49147 18.303 10.6276 17.892 11.6433C17.6845 12.152 17.3837 12.6174 17.005 13.0153C16.3197 13.736 15.5817 14.4045 14.797 15.0153C14.007 15.6316 13.1731 16.1894 12.302 16.6843C10.542 17.6816 8.64901 18.423 6.67996 18.8863C5.66388 19.1298 4.59354 18.9857 3.67796 18.4823C3.23233 18.2369 2.8376 17.9087 2.51496 17.5153C2.19928 17.1279 1.96311 16.6821 1.81996 16.2033C0.620961 12.3013 0.797961 7.89133 1.95396 3.97333C2.56296 1.91633 4.59696 0.624326 6.69096 1.09933C10.571 1.97933 14.211 4.24633 16.993 7.10933Z" stroke="black" stroke-width="2" stroke-linecap="round" stroke-linejoin="round"/>
<path d="M11.0442 11.0354C11.7142 10.5304 11.7142 9.54641 11.0442 9.02541C10.5665 8.64732 10.0662 8.29867 9.54617 7.98141C9.02318 7.6623 8.48229 7.37349 7.92617 7.11641C7.15617 6.76641 6.29618 7.25541 6.17318 8.08941C5.9842 9.34249 5.95061 10.6141 6.07318 11.8754C6.08973 12.0699 6.15228 12.2577 6.25566 12.4233C6.35904 12.589 6.50029 12.7276 6.66779 12.8279C6.83528 12.9282 7.0242 12.9873 7.219 13.0002C7.41379 13.0132 7.60888 12.9797 7.78818 12.9024C8.36962 12.6625 8.93541 12.3863 9.48218 12.0754C10.0246 11.7645 10.5464 11.4187 11.0442 11.0404V11.0354Z" stroke="black" stroke-width="2" stroke-linecap="round" stroke-linejoin="round"/>
</svg>
