<svg width="22" height="15" viewBox="0 0 22 15" fill="none" xmlns="http://www.w3.org/2000/svg">
<path d="M13 14H9C6.87827 14 4.84344 13.1571 3.34315 11.6569C1.84285 10.1566 1 8.12173 1 6V1H5V6C5 7.06087 5.42143 8.07828 6.17157 8.82843C6.92172 9.57857 7.93913 10 9 10V1H13V5.5H13.03C14.1261 5.36345 15.1345 4.83113 15.8657 4.00314C16.5968 3.17516 17.0002 2.10858 17 1.004H21L20.658 2.715C20.453 3.73903 20.0169 4.70275 19.383 5.53268C18.7491 6.36261 17.934 7.03685 17 7.504C17.9083 7.80662 18.7186 8.3479 19.346 9.07115C19.9734 9.79439 20.3947 10.673 20.566 11.615L21 14.004H17C17.0002 12.8994 16.5968 11.8328 15.8657 11.0049C15.1345 10.1769 14.1261 9.64455 13.03 9.508V14.008L13 14Z" stroke="black" stroke-width="2" stroke-linecap="round" stroke-linejoin="round"/>
</svg>
