<svg width="720" height="122" viewBox="0 0 720 122" fill="none" xmlns="http://www.w3.org/2000/svg">
<path d="M688.625 118.197C695.582 118.197 700.273 112.018 700.273 104.73C700.273 84.1324 654.328 86.8259 654.328 60.2078C654.328 45.3142 669.697 39.6104 685.066 39.6104C704.641 39.6104 705.774 48.1662 716.451 43.8883C719.687 51.0181 715.319 57.9896 707.553 57.9896C696.876 57.9896 695.42 43.413 685.713 43.413C678.918 43.413 673.741 48.6415 673.741 54.8207C673.741 73.3584 719.687 69.5558 719.687 99.1844C719.687 115.504 701.082 122 688.14 122C668.564 122 665.329 113.444 654.651 117.722C651.416 110.592 655.784 103.621 663.549 103.621C674.227 103.621 677.786 118.197 688.625 118.197Z" fill="white"/>
<path d="M612.272 120.416V21.0727C612.272 16.9532 609.845 14.2597 605.639 14.2597H602.565V11.0909C611.948 11.0909 623.273 8.87273 630.876 0V110.434C630.876 114.553 633.303 117.247 637.509 117.247H640.583V120.416H612.272ZM612.272 120.416H602.565V117.247H605.639C609.845 117.247 612.272 114.553 612.272 110.434V120.416Z" fill="white"/>
<path d="M592.957 72.8831V75.8935H535.525C536.819 90.9454 545.232 113.444 569.175 113.444C578.72 113.444 586 106.473 591.339 99.5013L594.574 101.878C587.294 111.701 577.264 122 558.012 122C534.878 122 515.95 103.462 515.95 80.8052C515.95 58.148 534.878 39.6104 558.012 39.6104C577.426 39.6104 592.957 54.3454 592.957 72.8831ZM535.363 72.8831H571.602C571.602 57.8311 565.616 43.413 552.027 43.413C538.599 43.413 535.363 62.2675 535.363 72.2493C535.363 72.4078 535.363 72.7246 535.363 72.8831Z" fill="white"/>
<path d="M479.549 120.416V96.4909C475.505 111.384 464.18 122 449.782 122C429.559 122 414.837 104.73 414.837 84.1325C414.837 58.1481 431.177 39.6104 453.988 39.6104C465.96 39.6104 474.858 45.9481 479.549 56.8805V21.0727C479.549 16.9532 477.122 14.2597 472.916 14.2597H469.842V11.0909C479.226 11.0909 490.55 8.87273 498.154 0V110.434C498.154 114.553 500.58 117.247 504.787 117.247H507.86V120.416H479.549ZM479.549 70.6649C479.549 60.8416 473.24 46.2649 459.65 46.2649C444.119 46.2649 435.383 65.5948 435.383 81.9143C435.383 98.2338 442.987 113.603 456.576 113.603C472.107 113.603 479.549 93.4805 479.549 78.9039V70.6649Z" fill="white"/>
<path d="M317.833 80.8052C317.833 58.148 336.761 39.6104 359.896 39.6104C383.03 39.6104 401.958 58.148 401.958 80.8052C401.958 103.462 383.03 122 359.896 122C336.761 122 317.833 103.462 317.833 80.8052ZM337.247 71.4571C337.247 86.0337 346.792 118.197 365.881 118.197C378.986 118.197 382.545 99.9766 382.545 90.1532C382.545 75.5766 373 43.413 353.91 43.413C340.806 43.413 337.247 61.6337 337.247 71.4571Z" fill="white"/>
<path d="M185.351 68.7636V110.434C185.351 114.553 187.778 117.247 191.984 117.247H195.058V120.416H157.04V117.247H160.113C164.32 117.247 166.746 114.553 166.746 110.434V60.6831C166.746 56.5636 164.32 53.8701 160.113 53.8701H157.04V50.7013C166.423 50.7013 177.747 48.4831 185.351 39.6104V55.2961C190.204 46.1065 200.073 39.6104 211.883 39.6104C225.634 39.6104 235.988 46.4233 240.194 57.8311C244.562 47.374 255.078 39.6104 267.858 39.6104C286.139 39.6104 298.273 51.8104 298.273 70.5065V110.434C298.273 114.553 300.7 117.247 304.906 117.247H307.98V120.416H269.962V117.247H273.035C277.242 117.247 279.668 114.553 279.668 110.434V79.8545C279.668 58.148 273.359 45.7896 260.093 45.7896C253.622 45.7896 243.915 51.8104 241.812 63.8519C242.135 65.9117 242.297 68.1298 242.297 70.5065V110.434C242.297 114.553 244.724 117.247 248.93 117.247H252.004V120.416H213.986V117.247H217.06C221.266 117.247 223.693 114.553 223.693 110.434V79.8545C223.693 58.148 217.383 45.7896 204.117 45.7896C196.837 45.7896 185.351 53.3948 185.351 68.7636Z" fill="white"/>
<path d="M103.286 84.1324V71.7739H142.437V84.1324H103.286Z" fill="white"/>
<path d="M0 9.50635H39.636V12.6752H36.5621C32.3559 12.6752 29.9292 15.3687 29.9292 19.4882V65.7531L64.2264 18.8544C66.6531 15.2102 66.006 12.6752 62.1233 12.6752H60.1819V9.50635H83.3164V12.6752H80.4043C75.3892 12.6752 71.0211 15.0518 67.7855 19.0128L46.4307 48.1661L78.3012 111.226C80.5661 114.87 84.1252 117.247 88.0079 117.247H91.8907V120.415H52.2548V117.247H54.5197C58.4024 117.247 59.6966 114.87 58.0788 111.226L34.6208 64.4856L29.9292 70.8232V110.434C29.9292 114.553 32.3559 117.247 36.5621 117.247H39.636V120.415H0V117.247H3.07382C7.28008 117.247 9.70675 114.553 9.70675 110.434V19.4882C9.70675 15.3687 7.28008 12.6752 3.07382 12.6752H0V9.50635ZM63.7411 19.4882L63.9029 19.3297V19.1713L63.7411 19.4882Z" fill="white"/>
</svg>
