<svg width="251" height="202" viewBox="0 0 251 202" fill="none" xmlns="http://www.w3.org/2000/svg">
<path d="M142.734 139.295C142.327 139.307 141.917 139.318 141.513 139.33C141.018 139.32 140.523 139.309 140.029 139.298C139.469 139.284 138.91 139.273 138.353 139.259C136.03 139.074 133.704 138.892 131.379 138.707C130.558 138.576 129.74 138.445 128.922 138.314C128.511 138.261 128.1 138.205 127.686 138.152C127.117 138.048 126.548 137.941 125.982 137.837C125.567 137.773 125.151 137.707 124.736 137.644C124.426 137.57 124.116 137.498 123.806 137.424C122.397 137.075 120.987 136.726 119.575 136.377C119.346 136.32 119.115 136.262 118.888 136.208C117.808 135.91 116.725 135.612 115.642 135.314C115.433 135.253 115.225 135.193 115.015 135.135C114.92 135.109 114.823 135.086 114.728 135.06C114.505 134.986 114.28 134.914 114.06 134.841C113.168 134.527 112.274 134.21 111.379 133.896C110.985 133.755 110.592 133.614 110.2 133.473C109.294 133.096 108.385 132.719 107.479 132.341C107.184 132.216 106.886 132.091 106.593 131.966C104.9 131.09 103.208 130.212 101.516 129.334C100.748 128.91 99.9805 128.487 99.2154 128.063C98.94 127.907 98.6621 127.751 98.3844 127.593C97.5567 127.086 96.7263 126.581 95.8986 126.074C95.6348 125.899 95.3712 125.722 95.1077 125.545C94.9832 125.43 94.8587 125.315 94.7367 125.2C94.6232 125.13 94.5096 125.061 94.3963 124.989C94.1996 124.845 94.0031 124.699 93.8064 124.555C93.6218 124.414 93.4348 124.274 93.2477 124.133C93.1201 124.025 92.9901 123.917 92.865 123.809C92.757 123.733 92.6464 123.658 92.536 123.582C87.5299 119.624 83.3444 115.024 80.5545 109.186C78.6618 105.231 77.4471 101.129 76.7628 96.8286C75.6872 90.0687 76.4725 83.5653 79.706 77.4961C81.3877 74.3442 83.3439 71.3305 85.2775 68.3197C85.8077 67.4935 86.0502 66.7391 85.946 65.7905C85.307 59.9957 85.2078 54.2106 85.8217 48.3882C86.4577 42.3689 88.1387 36.6791 90.5751 31.1819C92.4505 26.9507 96.0072 24.9239 100.384 24.4598C101.916 24.2973 103.684 24.8962 105.123 25.6005C110.437 28.1957 114.579 32.1976 117.824 37.0783C120.194 40.645 122.357 44.3479 124.545 48.0306C125.084 48.94 125.629 49.3503 126.748 49.3657C135.845 49.4864 144.82 50.5112 153.472 53.4839C154.906 53.9766 155.595 53.7309 156.583 52.5691C160.415 48.0658 165.407 45.1746 170.894 43.1493C175.655 41.3914 180.453 39.6739 185.617 39.4946C188.261 39.4016 190.826 39.8063 193.171 41.0842C195.858 42.5485 197.365 44.8669 197.715 47.89C198.172 51.8296 197.619 55.7161 196.932 59.5785C195.692 66.5494 193.676 73.3161 190.608 79.683C189.323 82.3499 188.847 84.6673 189.637 87.5845C190.325 90.12 190.149 92.891 190.343 95.5575C190.381 96.0877 190.37 96.6211 190.382 97.256C191.49 97.2008 192.597 97.6726 193.46 96.6615C193.709 97.056 194.228 97.5982 193.315 97.6977C191.205 97.9242 189.081 98.0277 186.966 98.1815C186.766 93.8021 186.254 89.4674 184.691 85.3395C184.158 83.9311 184.558 82.9667 185.451 81.9035C187.907 78.983 189.839 75.7535 190.943 72.0616C192.45 67.0253 193.307 61.9051 193.516 56.6341C193.685 52.3786 193.569 48.2723 191.975 44.2113C191.192 42.2144 188.151 40.6025 186.173 41.7551C184.966 42.4578 183.473 42.7505 182.068 43.0159C177.587 43.8612 173.303 45.258 169.146 47.1231C166.123 48.4806 163.607 50.5433 161.126 52.634C159.658 53.8708 158.434 55.3973 157.093 56.7843C156.649 57.2428 156.226 57.5539 155.474 57.2325C150.509 55.1201 145.334 53.735 140.002 52.9229C135.127 52.1804 130.232 51.7568 125.303 52.2599C124.001 52.3926 123.573 51.5252 123.112 50.6498C122.71 49.8866 122.426 49.059 122.005 48.3066C119.768 44.3015 117.081 40.6277 113.995 37.2222C111.418 34.3806 108.522 32.0158 105.089 30.2754C103.655 29.5491 102.085 28.9551 101.233 27.3622C101.036 26.9946 100.211 26.6841 99.7691 26.7774C98.825 26.9786 97.9023 27.3904 97.0383 27.8447C95.2187 28.8023 94.325 30.5414 93.533 32.3143C90.1766 39.8243 88.8489 47.7221 89.083 55.9076C89.1323 57.602 89.3265 59.2917 89.4483 60.9826C89.5398 62.278 89.533 63.5873 89.7307 64.8647C89.9914 66.5627 89.5765 67.8091 88.3922 69.1949C84.1818 74.1251 81.6435 79.8769 80.7704 86.3305C80.0474 91.6885 81.0922 96.8276 82.6705 101.904L82.6744 101.917L82.8929 102.612L82.9203 102.669C83.12 103.235 83.3225 103.8 83.5223 104.367C83.5709 104.495 83.6195 104.624 83.6683 104.75L83.9525 105.376C84.5768 106.474 85.2038 107.57 85.8281 108.668C86.0598 109.069 86.2912 109.472 86.5205 109.872C86.7584 110.258 86.9985 110.647 87.2364 111.033C87.5822 111.525 87.9302 112.02 88.2759 112.513C88.7599 113.077 89.2463 113.641 89.7303 114.205C89.777 114.269 89.824 114.33 89.8708 114.394C90.5087 115.136 91.1468 115.875 91.7823 116.616L93.0471 117.882C93.5505 118.366 94.0514 118.849 94.5549 119.333C94.6689 119.425 94.7803 119.519 94.8943 119.611C95.2229 119.901 95.5538 120.19 95.8823 120.48C96.0122 120.591 96.1398 120.699 96.2697 120.81C96.4624 120.97 96.6551 121.131 96.8479 121.292C96.9625 121.407 97.0798 121.519 97.1944 121.633C97.3023 121.71 97.4075 121.788 97.5155 121.865C97.6472 121.954 97.779 122.042 97.9108 122.131C98.5542 122.609 99.1951 123.087 99.8384 123.566C99.9772 123.66 100.114 123.754 100.252 123.848C101.599 124.716 102.944 125.581 104.29 126.449C104.516 126.576 104.742 126.702 104.967 126.829C105.465 127.173 105.937 127.567 106.47 127.849C110.687 130.083 115.104 131.829 119.722 133.027C121.813 133.569 123.968 133.871 126.092 134.282C126.313 134.324 126.534 134.363 126.754 134.404C127.902 134.557 129.052 134.709 130.199 134.863C130.438 134.899 130.676 134.932 130.917 134.968C131.602 135.028 132.29 135.083 132.975 135.142C133.712 135.197 134.45 135.251 135.187 135.305C136.023 135.323 136.858 135.341 137.691 135.359C138.099 135.37 138.507 135.378 138.914 135.388C140.749 135.374 142.613 135.569 144.407 135.3C148.173 134.735 151.909 133.969 155.638 133.188C156.689 132.966 157.667 132.4 158.682 131.991C159.04 131.543 159.465 131.127 159.73 130.628C159.888 130.329 159.953 129.805 159.794 129.54C157.199 125.191 157.292 120.887 159.872 116.573C160.032 116.306 160.04 115.792 159.889 115.523C159.461 114.765 159.231 113.919 159.914 113.377C160.492 112.918 161.542 112.465 162.108 112.691C163.53 113.262 164.751 112.829 166.052 112.51C166.485 112.403 166.952 112.384 167.401 112.408C170.584 112.581 173.151 113.998 175.266 116.319C176.193 117.34 177.148 118.337 178.128 119.385C179.076 118.167 180.222 116.907 181.122 115.489C182.329 113.591 183.346 111.572 184.444 109.604C185.466 109.547 186.486 109.449 187.506 109.453C188.027 109.456 188.549 109.644 189.07 109.746C188.355 113.241 186.744 116.329 184.667 119.178C183.606 120.634 182.393 121.978 181.123 123.528C183.447 124.841 185.685 126.142 187.959 127.379C190.922 128.989 193.957 130.476 196.874 132.162C198.273 132.972 198.389 134.553 198.29 136.008C198.077 139.087 196.853 141.846 195.225 144.404C193.462 147.176 191.697 149.967 189.672 152.545C187.593 155.193 185.307 157.705 182.186 159.268C180.728 159.999 179.432 160.035 178.222 158.856C176.817 157.483 175.417 156.104 174.238 154.945C172.45 155.338 170.761 156.024 169.073 156.019C164.548 156.005 160.625 150.703 161.934 146.193C162.191 145.309 162.047 144.814 161.232 144.271C159.273 142.967 157.987 141.142 157.593 138.772L157.578 138.721C157.506 138.426 157.437 138.134 157.368 137.84L157.416 137.774L157.362 137.712C157.303 137.103 157.025 136.89 156.402 137.092C155.869 137.267 155.308 137.352 154.762 137.476C154.628 137.502 154.491 137.53 154.356 137.558C154.05 137.643 153.741 137.73 153.435 137.816L153.371 137.835C152.445 138.023 151.517 138.21 150.591 138.398C150.156 138.475 149.719 138.553 149.281 138.63C149.044 138.666 148.806 138.705 148.569 138.742C146.627 138.923 144.686 139.107 142.745 139.289L142.734 139.295ZM174.435 142.668C175.103 143.408 176.031 144.045 176.374 144.913C176.831 146.071 176.834 147.411 177.033 148.671C176.321 150.185 175.595 151.692 174.923 153.225C174.846 153.399 175.022 153.775 175.193 153.957C176.428 155.277 177.627 156.642 178.967 157.854C180.359 159.116 180.418 159.042 181.943 157.972C186.393 154.845 190.034 150.986 192.761 146.267C194.735 142.852 196.351 139.317 196.96 135.38C197.118 134.358 197.123 133.622 195.923 133.011C191.744 130.885 187.67 128.554 183.53 126.347C181.435 125.23 179.503 123.956 178.082 121.995C176.946 120.43 175.679 118.958 174.55 117.385C172.474 114.486 167.584 112.912 165.129 113.898C163.216 114.669 161.745 115.858 160.696 117.636C158.671 121.074 158.384 124.568 160.549 127.995C161.679 129.786 163.143 131.368 164.351 132.91C164.074 132.94 163.027 132.348 161.21 131.133C158.132 133.76 157.678 138.374 160.182 141.577C162.282 144.263 164.5 144.995 167.771 143.962C168.926 143.598 170.015 143.019 171.133 142.538C172.233 142.581 173.335 142.627 174.434 142.671L174.435 142.668ZM168.797 154.697C171.077 154.769 173.244 154.339 174.42 152.532C175.406 151.02 176.031 149.058 176.151 147.249C176.367 143.995 174.129 142.112 171.014 143.504C170.029 143.945 169.045 144.461 168.006 144.696C166.761 144.976 165.444 144.936 164.18 145.154C163.833 145.213 163.419 145.654 163.28 146.015C162.512 148.026 163.075 149.827 164.122 151.626C165.223 153.516 166.823 154.424 168.794 154.697L168.797 154.697ZM157.566 134.852C157.591 134.854 157.615 134.856 157.64 134.858L157.678 134.429C157.653 134.427 157.628 134.425 157.603 134.423L157.566 134.852ZM157.968 133.411C157.947 133.481 157.921 133.548 157.908 133.617C157.907 133.629 157.952 133.653 157.975 133.67C157.999 133.602 158.024 133.535 158.038 133.464C158.039 133.452 157.994 133.428 157.968 133.408L157.968 133.411Z" fill="#EFEEEE"/>
<path d="M206.643 96.5911C207.787 97.133 207.428 98.0537 207.032 98.7699C206.603 99.5429 205.943 100.201 205.316 100.845C204.846 101.331 204.729 101.647 205.186 102.283C205.8 103.137 206.297 104.117 206.639 105.111C207.153 106.615 206.355 107.517 204.784 107.388C204.703 107.381 204.612 107.393 204.54 107.362C201.774 106.177 199.701 107.408 197.665 109.16C196.742 109.954 195.579 110.666 194.411 110.944C192.651 111.363 192.199 110.804 192.132 108.884C192.131 107.95 192.133 107.013 192.132 106.076C192.158 105.747 192.184 105.419 192.211 105.091C192.186 104.74 192.145 104.389 192.138 104.038C192.13 103.637 192.155 103.237 192.165 102.835C192.48 102.884 192.792 102.932 193.107 102.981C193.068 104.971 193.002 106.961 193.018 108.951C193.02 109.27 193.376 109.584 193.571 109.899L193.575 109.905L194.015 110.199C194.534 110.053 195.188 110.057 195.543 109.735C196.809 108.585 198.016 107.363 199.163 106.091C199.841 105.34 200.482 105.132 201.436 105.536C202.337 105.917 203.293 106.229 204.255 106.375C204.734 106.449 205.549 106.219 205.725 105.877C205.947 105.449 205.819 104.684 205.572 104.208C205.181 103.456 204.589 102.798 204.033 102.14C203.595 101.622 203.491 101.265 204.056 100.701C204.826 99.9276 205.437 98.999 206.115 98.1383C206.292 97.6243 206.471 97.1105 206.648 96.5989L206.643 96.5911Z" fill="#EFEEEE"/>
<path d="M186.958 98.1858C189.076 98.0322 191.197 97.931 193.307 97.702C194.22 97.605 193.702 97.0603 193.452 96.6657C193.738 95.7287 193.982 94.7806 194.319 93.8629C195.037 91.9072 195.621 91.7268 197.328 92.8846C197.559 93.0414 197.738 93.2707 197.94 93.4648C198.034 93.5351 198.127 93.6054 198.221 93.6756L198.199 93.639C198.369 94.1807 198.538 94.7248 198.71 95.2667C198.35 94.86 198.039 94.3906 197.617 94.0655C197.101 93.6701 196.461 93.1173 195.928 93.1704C195.544 93.2065 195.166 94.0883 194.933 94.6521C194.769 95.0454 194.892 95.5458 194.821 95.9871C194.455 98.2269 195.021 98.6392 192.268 98.653C191.42 98.6563 190.576 98.9432 189.726 98.9761C188.779 99.013 187.827 98.9077 186.876 98.8647C186.903 98.6384 186.933 98.4099 186.96 98.1836L186.958 98.1858Z" fill="#FDFDFD"/>
<path d="M192.13 106.073C192.131 107.01 192.129 107.947 192.13 108.881C192.028 108.557 191.927 108.235 191.763 107.714C190.75 108.476 189.907 109.113 189.065 109.748C188.544 109.643 188.024 109.456 187.501 109.455C186.48 109.451 185.46 109.551 184.439 109.609C184.468 109.452 184.494 109.293 184.523 109.134C187.527 109.271 190.226 108.656 192.13 106.073Z" fill="#FDFDFD"/>
<path d="M206.643 96.5911C206.467 97.1051 206.287 97.6189 206.108 98.1303C205.966 96.7036 205.677 96.4697 204.224 96.7111C203.14 96.8901 202.069 97.2269 200.984 97.2717C200.497 97.2914 199.987 96.7673 199.486 96.49L202.502 96.7525L202.545 96.4854C202.421 96.395 202.297 96.3022 202.17 96.2117C203.147 96.0953 204.125 95.8772 205.099 95.9024C205.619 95.9153 206.126 96.3472 206.638 96.5906L206.643 96.5911Z" fill="#FDFDFD"/>
<path d="M202.173 96.2119C202.297 96.3022 202.421 96.395 202.547 96.4856L202.504 96.7528C201.498 96.6652 200.492 96.5776 199.488 96.4902L199.479 96.4844C199.234 96.0878 198.99 95.6888 198.745 95.2922L198.715 95.2696C198.545 94.7279 198.376 94.1838 198.206 93.6421C199.29 94.5019 200.373 95.3618 201.457 96.2192L201.482 96.2213C201.714 96.2191 201.946 96.2145 202.178 96.2123L202.173 96.2119Z" fill="#EFEEEE"/>
<path d="M131.379 138.709C133.704 138.894 136.03 139.077 138.353 139.262C136.027 139.077 133.702 138.894 131.379 138.709Z" fill="#FDFDFD"/>
<path d="M142.734 139.295C144.676 139.111 146.617 138.93 148.558 138.748C146.617 138.932 144.675 139.114 142.734 139.295Z" fill="#FDFDFD"/>
<path d="M119.578 136.377C120.987 136.726 122.399 137.075 123.809 137.424C122.397 137.075 120.987 136.726 119.578 136.377Z" fill="#FDFDFD"/>
<path d="M115.645 135.314C116.727 135.612 117.81 135.91 118.89 136.208C117.808 135.91 116.725 135.612 115.645 135.314Z" fill="#FDFDFD"/>
<path d="M107.479 132.341C108.388 132.719 109.294 133.096 110.2 133.473C109.292 133.096 108.385 132.719 107.479 132.341Z" fill="#FDFDFD"/>
<path d="M111.379 133.894C112.274 134.208 113.168 134.524 114.06 134.838C113.165 134.524 112.271 134.208 111.379 133.894Z" fill="#FDFDFD"/>
<path d="M127.686 138.154C128.1 138.208 128.511 138.263 128.922 138.317C128.508 138.263 128.097 138.207 127.686 138.154Z" fill="#FDFDFD"/>
<path d="M149.27 138.636C149.708 138.56 150.146 138.481 150.581 138.405C150.144 138.481 149.708 138.56 149.27 138.636Z" fill="#FDFDFD"/>
<path d="M98.3817 127.595C98.6596 127.751 98.9373 127.909 99.2127 128.065C98.9348 127.909 98.6571 127.751 98.3817 127.595Z" fill="#FDFDFD"/>
<path d="M93.2424 124.138C93.4294 124.278 93.6165 124.419 93.801 124.559C93.614 124.419 93.4269 124.278 93.2424 124.138Z" fill="#FDFDFD"/>
<path d="M154.346 137.562C154.483 137.534 154.617 137.508 154.752 137.48C154.615 137.508 154.48 137.534 154.346 137.562Z" fill="#FDFDFD"/>
<path d="M114.728 135.06C114.825 135.086 114.92 135.109 115.015 135.135C114.918 135.109 114.823 135.086 114.728 135.06Z" fill="#FDFDFD"/>
<path d="M92.5284 123.583C92.6388 123.66 92.7492 123.737 92.8573 123.811C92.7469 123.734 92.6365 123.657 92.5284 123.583Z" fill="#FDFDFD"/>
<path d="M201.48 96.2221L201.455 96.2199L201.487 96.1622L201.48 96.2221Z" fill="#FDFDFD"/>
<path d="M157.352 137.717L157.406 137.779C157.406 137.779 157.36 137.844 157.358 137.844L157.298 137.784L157.352 137.717Z" fill="#FDFDFD"/>
<path d="M153.36 137.841L153.424 137.822L153.411 137.89L153.36 137.841Z" fill="#FDFDFD"/>
<path d="M157.57 138.723L157.586 138.774L157.517 138.763L157.57 138.723Z" fill="#FDFDFD"/>
<path d="M184.52 109.134C184.491 109.293 184.465 109.45 184.436 109.609C183.339 111.576 182.321 113.595 181.114 115.494C180.214 116.909 179.068 118.171 178.12 119.389C177.14 118.339 176.186 117.344 175.258 116.324C173.141 113.999 170.577 112.583 167.393 112.413C166.947 112.389 166.477 112.408 166.044 112.514C164.741 112.833 163.522 113.269 162.1 112.695C161.535 112.467 160.484 112.922 159.906 113.382C159.223 113.924 159.451 114.769 159.881 115.527C160.032 115.796 160.024 116.31 159.864 116.577C157.284 120.891 157.191 125.195 159.787 129.545C159.945 129.81 159.882 130.334 159.722 130.633C159.457 131.132 159.032 131.545 158.674 131.993C158.558 131.988 158.429 131.949 158.326 131.985C153.645 133.534 148.841 134.503 143.936 134.985C142.263 135.15 140.585 135.258 138.909 135.393C138.501 135.382 138.093 135.374 137.686 135.363C136.85 135.345 136.015 135.327 135.18 135.309C134.442 135.255 133.704 135.201 132.967 135.147C132.282 135.087 131.594 135.032 130.907 134.972C130.668 134.937 130.43 134.903 130.191 134.868C129.044 134.716 127.894 134.563 126.744 134.409C126.523 134.367 126.302 134.328 126.084 134.287C123.258 133.563 120.347 133.061 117.617 132.063C113.332 130.495 109.17 128.594 104.957 126.833C104.731 126.706 104.506 126.58 104.282 126.456C102.938 125.588 101.589 124.722 100.242 123.855C100.103 123.76 99.9667 123.667 99.8302 123.575C99.1893 123.097 98.5459 122.618 97.9025 122.14C97.7708 122.051 97.639 121.963 97.5072 121.874C97.4017 121.798 97.294 121.719 97.1863 121.64C97.0717 121.526 96.9544 121.413 96.8396 121.302C96.6469 121.141 96.4541 120.98 96.2616 120.816C96.1317 120.706 96.0042 120.598 95.8768 120.487C95.5483 120.197 95.2173 119.908 94.8863 119.618C94.7722 119.526 94.6609 119.432 94.5493 119.34C94.0459 118.856 93.5424 118.372 93.0392 117.886C92.6176 117.464 92.196 117.042 91.7767 116.623C91.1388 115.881 90.5008 115.14 89.8629 114.398C89.8162 114.335 89.7692 114.273 89.7249 114.21C89.2409 113.646 88.7545 113.082 88.2705 112.517C87.9248 112.025 87.5768 111.53 87.2311 111.037C86.9932 110.651 86.753 110.263 86.5151 109.877C86.2834 109.476 86.0519 109.073 85.8227 108.673C85.1982 107.577 84.5715 106.479 83.9472 105.38C83.8533 105.171 83.7568 104.964 83.6627 104.757C83.6141 104.628 83.5655 104.5 83.5144 104.371C83.3147 103.804 83.1122 103.24 82.9124 102.673L82.9569 102.62L82.8852 102.613C82.8131 102.383 82.7411 102.151 82.6667 101.918L82.7152 101.905L82.6629 101.906C81.0845 96.8295 80.0398 91.6903 80.7627 86.3323C81.6334 79.8785 84.1744 74.1244 88.3846 69.1967C89.5664 67.8107 89.9813 66.5643 89.723 64.8665C89.5278 63.5894 89.5347 62.2801 89.4407 60.9844C89.3189 59.2935 89.1247 57.6039 89.0754 55.9094C88.8411 47.7264 90.169 39.8261 93.5254 32.3161C94.3174 30.5433 95.2111 28.8041 97.0306 27.8465C97.8947 27.3923 98.8173 26.9804 99.7615 26.7793C100.206 26.6862 101.028 26.9939 101.225 27.364C102.078 28.9569 103.65 29.5511 105.082 30.2772C108.515 32.0177 111.413 34.3826 113.988 37.2241C117.074 40.6295 119.761 44.3034 121.998 48.3084C122.418 49.0609 122.702 49.8884 123.104 50.6517C123.563 51.5268 123.994 52.3944 125.295 52.2617C130.224 51.7586 135.119 52.1822 139.994 52.9247C145.324 53.7366 150.502 55.1219 155.467 57.2343C156.219 57.5533 156.642 57.2446 157.085 56.7861C158.426 55.3991 159.65 53.8726 161.118 52.6358C163.602 50.5429 166.115 48.4824 169.138 47.125C173.296 45.2598 177.58 43.863 182.06 43.0177C183.466 42.7523 184.958 42.4597 186.165 41.7569C188.144 40.6043 191.182 42.216 191.967 44.2131C193.562 48.2741 193.675 52.3802 193.509 56.6359C193.302 61.9071 192.443 67.0246 190.935 72.0634C189.832 75.7553 187.902 78.9826 185.443 81.9053C184.551 82.9661 184.151 83.9304 184.683 85.3413C186.244 89.469 186.759 93.8039 186.958 98.1834C186.931 98.4097 186.901 98.6382 186.874 98.8645C186.438 99.6095 186.019 100.356 186.735 101.169C186.439 102.545 186.145 103.921 185.848 105.297C185.242 105.163 184.596 105.119 184.037 104.874C182.419 104.166 180.9 103.164 179.226 102.673C177.06 102.037 174.822 102.217 173.095 103.909C172.641 104.354 172.338 105.404 172.54 105.971C172.874 106.912 173.791 106.788 174.641 106.357C176.085 105.626 177.635 105.554 179.077 106.224C180.939 107.092 182.712 108.154 184.523 109.132L184.52 109.134ZM130.386 105.903C126.728 105.657 123.052 106.077 119.668 108.067C113.525 111.681 113.223 118.09 116.778 122.639C118.981 125.458 121.962 127.274 125.314 128.314C130.255 129.847 135.214 129.961 140.062 127.748C143.017 126.4 145.241 124.369 146.191 121.22C147.392 117.236 145.793 114.055 143.034 111.292C139.593 107.845 135.28 106.401 130.386 105.903ZM95.3675 80.2065C95.3612 80.8224 95.3673 81.1535 95.3536 81.4829C95.3386 81.8544 95.3116 82.2224 95.2868 82.5931C95.0167 86.9839 96.5598 90.7198 99.7198 93.6793C104.112 97.7974 109.508 99.8777 115.417 100.611C117.234 100.836 119.108 100.708 120.949 100.593C122.056 100.523 122.738 99.7294 122.849 98.6206C123.25 94.6438 123.293 90.6383 121.445 86.9977C118.632 81.4536 114.16 77.6019 108.348 75.3711C105.59 74.3133 102.706 73.7963 99.7268 73.967C97.1408 74.1147 96.1836 74.9237 95.7468 77.4234C95.5689 78.437 95.467 79.4646 95.3677 80.2041L95.3675 80.2065ZM191.402 58.0284C192.001 51.2924 191.732 48.6592 190.305 45.3062C189.6 43.6491 188.851 43.3875 187.221 44.0833C184.504 45.2462 182.323 47.1517 180.327 49.2224C178.309 51.3135 176.429 53.5609 174.685 55.8847C172.865 58.3088 171.283 60.9126 169.584 63.4293C168.981 64.3238 169.247 64.8689 170.029 65.5882C172.631 67.982 175.284 70.358 177.606 73.0109C179.516 75.1954 181.007 77.7486 182.635 80.1696C183.319 81.186 183.618 81.319 184.306 80.2828C185.209 78.9247 185.974 77.4627 186.673 75.9874C189.529 69.9576 190.761 63.5103 191.402 58.0284ZM90.6214 66.1353C91.0979 65.8412 91.3184 65.7411 91.4984 65.5903C92.8896 64.4313 94.1816 63.1245 95.6786 62.1239C99.8973 59.3021 104.24 56.6925 109.173 55.2428C110.615 54.819 110.961 54.2179 110.578 52.7279C110.177 51.1769 109.766 49.6124 109.167 48.1287C107.848 44.8522 106.454 41.6066 105.009 38.3837C103.682 35.4223 102.265 32.4977 100.859 29.5716C100.15 28.0956 99.1179 27.792 97.7672 28.6563C96.2423 29.6346 95.1365 30.9774 94.3892 32.6374C92.2314 37.4231 91.1323 42.4949 90.6991 47.6719C90.3221 52.1752 90.313 56.7156 90.238 61.2402C90.2115 62.8038 90.4733 64.3751 90.6185 66.14L90.6214 66.1353ZM131.559 91.681C131.231 92.4975 130.998 92.8575 130.95 93.2435C130.633 95.7363 130.267 98.2273 130.096 100.733C129.975 102.497 130.505 103.043 132.242 103.293C133.506 103.478 134.792 103.528 136.071 103.609C137.374 103.69 138.246 103.088 138.485 101.803C138.921 99.4553 139.298 97.0945 139.661 94.7325C139.724 94.318 139.606 93.8777 139.549 93.1867C136.553 94.4669 133.72 95.324 131.562 91.6812L131.559 91.681ZM140.435 79.4815C140.411 78.8679 140.445 78.0805 140.337 77.313C140.154 76.017 139.334 75.2198 138.112 75.0041C136.854 74.7827 135.906 75.2868 135.315 76.3489C134.358 78.0676 134.127 79.9192 134.606 81.8349C134.67 82.0965 134.831 82.4833 135.025 82.54C136.101 82.8525 137.222 83.3402 138.292 83.2668C139.345 83.1944 139.998 82.2173 140.196 81.1111C140.283 80.6265 140.338 80.1367 140.433 79.4812L140.435 79.4815ZM154.138 90.2387C151.905 90.8272 148.076 99.9291 148.942 102.403C149.18 102.217 149.388 102.062 149.589 101.898C150.792 100.921 151.887 99.7612 153.211 98.9991C160.074 95.0504 167.675 93.4303 175.393 92.2254C175.633 92.1867 175.887 92.2187 176.125 92.1748C176.35 92.1348 176.565 92.0367 176.785 91.9664C176.75 91.854 176.716 91.7391 176.678 91.6265C167.118 92.2284 158.054 94.452 149.826 100.114C150.763 96.4818 152.066 93.2149 154.136 90.2409L154.138 90.2387ZM139.198 89.3409C139.391 87.2673 138.14 85.2196 136.552 85.0068C135.022 84.8041 133.751 85.5037 133.15 86.8782C132.18 89.0978 132.311 91.5078 133.469 92.4338C133.688 92.6094 133.949 92.754 134.215 92.8492C136.875 93.8239 138.914 92.3833 139.196 89.3382L139.198 89.3409ZM136.461 69.161C136.437 72.0372 136.448 72.0033 138.817 72.6296C139.823 72.8936 140.505 72.5852 140.755 71.6624C141.074 70.4797 141.437 69.2288 141.341 68.0447C141.282 67.3188 140.517 66.4892 139.848 66.0183C139.111 65.5018 138.157 65.8214 137.663 66.5688C137.144 67.3538 136.853 68.2929 136.463 69.1637L136.461 69.161ZM138.353 59.5326C138.333 59.5309 138.313 59.5292 138.293 59.5299C138.287 60.1458 138.278 60.7614 138.274 61.38C138.269 62.4483 138.66 63.1932 139.813 63.4253C140.995 63.6649 141.9 63.3137 142.324 62.1948C142.672 61.2806 142.979 60.2982 143.008 59.3388C143.024 58.7809 142.564 57.8336 142.131 57.709C141.052 57.4013 139.853 56.6979 138.734 57.6444C138.551 57.8 138.503 58.1513 138.454 58.4254C138.388 58.7875 138.383 59.1624 138.351 59.5299L138.353 59.5326Z" fill="#0D0D0D"/>
<path d="M171.133 142.535C170.015 143.017 168.926 143.596 167.771 143.96C164.5 144.993 162.282 144.26 160.182 141.574C157.678 138.371 158.132 133.758 161.21 131.13C163.026 132.345 164.073 132.938 164.351 132.907C163.143 131.365 161.681 129.784 160.549 127.993C158.387 124.566 158.673 121.071 160.696 117.634C161.743 115.856 163.216 114.666 165.129 113.896C167.582 112.909 172.474 114.483 174.551 117.383C175.677 118.955 176.946 120.428 178.083 121.993C179.504 123.953 181.436 125.225 183.53 126.345C187.667 128.554 191.744 130.882 195.923 133.008C197.123 133.62 197.119 134.355 196.96 135.378C196.351 139.312 194.733 142.849 192.762 146.265C190.034 150.986 186.393 154.842 181.943 157.969C180.418 159.042 180.359 159.114 178.967 157.852C177.63 156.639 176.431 155.275 175.193 153.954C175.025 153.773 174.848 153.4 174.923 153.222C175.595 151.69 176.324 150.183 177.033 148.671C177.548 148.338 178.134 148.078 178.561 147.658C179.659 146.583 180.711 145.459 181.73 144.31C182.238 143.738 182.633 143.066 183.078 142.439C184.424 141.828 185.589 141.037 186.067 139.702C184.785 140.43 183.516 141.306 182.131 141.909C178.63 143.439 173.571 142.171 172.137 138.216C171.151 135.495 172.06 132.37 174.64 131.036C175.626 130.526 176.687 130.161 177.804 129.691C177.6 129.567 177.491 129.445 177.408 129.458C174.747 129.917 172.421 130.891 171.173 133.519C170.03 135.924 170.555 138.162 171.828 140.331C171.598 141.064 171.364 141.797 171.134 142.53L171.133 142.535ZM164.742 120.345C163.427 120.235 162.756 120.728 162.42 122.009C162.055 123.404 162.605 124.608 163.269 125.739C163.913 126.839 164.985 127.236 166.24 127.069C167.505 126.901 167.519 125.789 167.737 124.92C168.28 122.768 166.766 120.511 164.74 120.344L164.742 120.345Z" fill="#0D0D0D"/>
<path d="M168.797 154.697C166.825 154.424 165.225 153.517 164.124 151.626C163.076 149.825 162.512 148.023 163.283 146.015C163.421 145.654 163.835 145.216 164.182 145.154C165.447 144.933 166.761 144.976 168.008 144.696C169.047 144.464 170.031 143.945 171.016 143.504C174.132 142.113 176.369 143.995 176.153 147.25C176.033 149.056 175.409 151.02 174.423 152.533C173.244 154.339 171.08 154.769 168.799 154.698L168.797 154.697Z" fill="#0D0D0D"/>
<path d="M183.076 142.441C182.63 143.069 182.235 143.74 181.727 144.312C180.708 145.461 179.656 146.585 178.559 147.66C178.131 148.081 177.545 148.34 177.031 148.673C176.832 147.411 176.828 146.073 176.372 144.912C176.029 144.045 175.1 143.407 174.432 142.668C174.467 142.612 174.509 142.561 174.553 142.51C174.944 142.623 175.33 142.774 175.727 142.841C178.205 143.253 180.684 143.67 183.073 142.441L183.076 142.441Z" fill="#FAC1E4"/>
<path d="M104.96 126.833C109.173 128.594 113.334 130.495 117.619 132.063C120.347 133.061 123.258 133.563 126.087 134.287C123.958 133.875 121.805 133.571 119.715 133.031C115.098 131.836 110.679 130.09 106.462 127.853C105.931 127.571 105.46 127.175 104.96 126.833Z" fill="#FDFDFD"/>
<path d="M138.909 135.388C140.585 135.253 142.263 135.145 143.937 134.98C148.841 134.498 153.646 133.529 158.327 131.98C158.432 131.945 158.561 131.983 158.675 131.988C157.663 132.397 156.684 132.963 155.631 133.185C151.904 133.966 148.166 134.732 144.4 135.297C142.605 135.565 140.739 135.371 138.907 135.385L138.909 135.388Z" fill="#FDFDFD"/>
<path d="M171.133 142.535C171.364 141.802 171.597 141.069 171.828 140.336C172.736 141.062 173.644 141.787 174.555 142.512C174.511 142.561 174.472 142.614 174.434 142.671C173.335 142.627 172.233 142.581 171.133 142.538L171.133 142.535Z" fill="#FAC1E4"/>
<path d="M100.244 123.852C101.591 124.72 102.938 125.588 104.285 126.453C102.938 125.586 101.591 124.718 100.244 123.852Z" fill="#FDFDFD"/>
<path d="M83.947 105.383C84.5737 106.481 85.198 107.58 85.8225 108.675C85.1957 107.577 84.5715 106.479 83.947 105.383Z" fill="#FDFDFD"/>
<path d="M126.746 134.409C127.896 134.561 129.046 134.713 130.194 134.868C129.044 134.716 127.896 134.564 126.746 134.409Z" fill="#FDFDFD"/>
<path d="M97.9052 122.138C98.5486 122.616 99.192 123.095 99.8329 123.573C99.1895 123.094 98.5461 122.616 97.9052 122.138Z" fill="#FDFDFD"/>
<path d="M88.2705 112.517C88.757 113.082 89.2407 113.648 89.7249 114.21C89.2385 113.646 88.7545 113.081 88.2705 112.517Z" fill="#FDFDFD"/>
<path d="M93.0417 117.886C93.5451 118.37 94.0483 118.856 94.5518 119.34C94.0486 118.854 93.5451 118.37 93.0417 117.886Z" fill="#FDFDFD"/>
<path d="M86.5151 109.877C86.7553 110.265 86.9932 110.651 87.2311 111.037C86.9909 110.649 86.753 110.263 86.5151 109.877Z" fill="#FDFDFD"/>
<path d="M96.2643 120.814C96.457 120.975 96.6496 121.138 96.8423 121.299C96.6498 121.136 96.457 120.975 96.2643 120.814Z" fill="#FDFDFD"/>
<path d="M157.566 134.852L157.603 134.423C157.628 134.425 157.653 134.427 157.678 134.429L157.64 134.858C157.615 134.856 157.591 134.854 157.566 134.852Z" fill="#FDFDFD"/>
<path d="M97.189 121.638C97.2967 121.717 97.4046 121.793 97.5099 121.872C97.4021 121.793 97.2942 121.716 97.189 121.638Z" fill="#FDFDFD"/>
<path d="M83.5142 104.373C83.5628 104.502 83.6139 104.631 83.6625 104.759C83.6139 104.631 83.5653 104.502 83.5142 104.373Z" fill="#FDFDFD"/>
<path d="M157.968 133.411C157.996 133.43 158.041 133.454 158.038 133.466C158.024 133.535 157.996 133.602 157.975 133.672C157.952 133.655 157.904 133.631 157.907 133.619C157.921 133.548 157.947 133.481 157.968 133.413L157.968 133.411Z" fill="#FDFDFD"/>
<path d="M82.8848 102.618L82.957 102.622L82.9123 102.676L82.8848 102.618Z" fill="#FDFDFD"/>
<path d="M82.6649 101.911L82.7156 101.91L82.6688 101.924L82.6649 101.911Z" fill="#FDFDFD"/>
<path d="M186.735 101.171C186.019 100.359 186.438 99.612 186.874 98.867C187.824 98.9099 188.776 99.0127 189.724 98.9759C190.574 98.943 191.418 98.6586 192.265 98.6528C195.019 98.639 194.452 98.2267 194.819 95.9869C194.892 95.5458 194.769 95.043 194.93 94.6519C195.164 94.0881 195.542 93.2063 195.926 93.1702C196.458 93.1196 197.098 93.6723 197.614 94.0652C198.037 94.3879 198.35 94.86 198.708 95.2665L198.738 95.289C198.983 95.6856 199.227 96.0847 199.471 96.4813L199.481 96.4871C199.982 96.7644 200.492 97.2885 200.98 97.2688C202.065 97.224 203.135 96.8872 204.219 96.7082C205.672 96.4693 205.961 96.7007 206.104 98.1274C205.426 98.9905 204.814 99.9191 204.044 100.692C203.482 101.257 203.583 101.614 204.021 102.132C204.577 102.789 205.17 103.447 205.56 104.2C205.807 104.678 205.935 105.443 205.714 105.868C205.537 106.211 204.722 106.441 204.243 106.367C203.282 106.221 202.325 105.906 201.424 105.527C200.47 105.124 199.829 105.331 199.151 106.082C198.004 107.352 196.797 108.577 195.531 109.727C195.174 110.049 194.519 110.046 194.004 110.19C193.858 110.093 193.709 109.996 193.563 109.896L193.559 109.891C193.636 107.969 193.712 106.044 193.792 104.122C193.814 103.58 193.933 102.991 193.097 102.973C192.783 102.923 192.471 102.876 192.156 102.826C191.893 102.756 191.63 102.686 191.367 102.616C191.224 102.571 191.084 102.524 190.941 102.48C190.684 102.4 190.424 102.32 190.167 102.243C189.696 102.095 189.228 101.948 188.758 101.8C188.081 101.589 187.405 101.379 186.73 101.169L186.735 101.171ZM194.927 105.444C195.104 105.504 195.281 105.564 195.454 105.626C195.831 105.334 196.19 105.017 196.585 104.748C198.151 103.689 199.673 102.492 201.712 103.845C202.028 104.054 202.656 103.793 203.392 103.725C202.964 103.255 202.749 103.065 202.59 102.835C201.277 100.976 201.315 100.852 203.202 99.5003C203.826 99.0526 204.384 98.5121 204.97 98.0138C204.912 97.9044 204.855 97.7925 204.795 97.6829C203.631 97.9967 202.465 98.2929 201.31 98.6298C200.369 98.9033 199.586 98.9073 198.903 97.9978C198.299 97.1895 197.502 96.5237 196.633 95.6328C196.521 96.2022 196.459 96.4378 196.43 96.6789C196.164 98.9648 196.162 98.9274 193.935 99.0716C193.018 99.1309 192.116 99.3979 191.206 99.5722C191.212 99.7119 191.217 99.8491 191.222 99.9887C192.221 100.424 193.2 100.907 194.221 101.276C195.018 101.564 195.32 101.988 195.169 102.843C195.017 103.699 195 104.578 194.924 105.449L194.927 105.444Z" fill="#FAC1E4"/>
<path d="M184.52 109.134C182.71 108.156 180.937 107.092 179.074 106.226C177.633 105.557 176.082 105.625 174.638 106.36C173.791 106.791 172.874 106.915 172.537 105.973C172.335 105.404 172.636 104.356 173.093 103.911C174.819 102.22 177.057 102.039 179.224 102.675C180.897 103.166 182.417 104.168 184.034 104.876C184.593 105.121 185.239 105.165 185.845 105.3C186.989 105.779 187.914 105.286 188.791 104.629C190.597 103.275 190.982 103.321 192.203 105.09C192.177 105.418 192.151 105.747 192.125 106.075C190.221 108.658 187.522 109.273 184.517 109.136L184.52 109.134ZM190.363 105.882C189.923 105.985 189.58 106.012 189.284 106.143C187.55 106.919 185.817 106.739 184.132 106.065C182.608 105.458 181.186 104.544 179.623 104.094C178.284 103.709 176.801 103.66 175.398 103.727C174.76 103.758 174.156 104.434 173.535 104.815C173.595 104.947 173.656 105.079 173.717 105.211C174.142 105.166 174.58 105.172 174.99 105.066C176.256 104.743 177.45 104.708 178.721 105.244C181.059 106.225 183.411 107.28 185.865 107.854C188.003 108.353 189.535 108.183 190.368 105.88L190.363 105.882Z" fill="#FAC1E4"/>
<path d="M192.206 105.088C190.982 103.321 190.6 103.273 188.793 104.627C187.917 105.284 186.992 105.777 185.848 105.297C186.145 103.921 186.439 102.545 186.735 101.169C187.412 101.38 188.089 101.59 188.763 101.8C188.22 101.825 187.675 101.85 187.045 101.877C186.876 102.789 186.697 103.761 186.49 104.874C186.91 104.806 187.132 104.83 187.284 104.739C188.476 104.042 189.528 103.025 191.083 103.188C191.158 103.194 191.273 102.817 191.37 102.616C191.633 102.686 191.896 102.757 192.159 102.827C192.148 103.228 192.124 103.629 192.131 104.03C192.138 104.381 192.177 104.732 192.204 105.083L192.206 105.088Z" fill="#FDFDFD"/>
<path d="M193.105 102.976C193.942 102.994 193.824 103.583 193.799 104.125C193.719 106.047 193.644 107.972 193.566 109.894C193.374 109.576 193.016 109.262 193.013 108.946C193 106.956 193.063 104.966 193.102 102.976L193.105 102.976Z" fill="#FDFDFD"/>
<path d="M130.386 105.903C135.28 106.401 139.593 107.843 143.034 111.292C145.793 114.055 147.394 117.236 146.191 121.22C145.241 124.369 143.017 126.4 140.062 127.748C135.214 129.961 130.255 129.847 125.314 128.314C121.962 127.274 118.981 125.458 116.778 122.639C113.223 118.09 113.525 111.678 119.668 108.067C123.052 106.077 126.728 105.657 130.386 105.903ZM138.133 114.228C138.353 114.359 138.568 114.502 138.791 114.623C139.817 115.177 140.929 115.615 141.856 116.304C143.482 117.512 143.441 120.074 141.728 121.15C140.871 121.689 139.693 122.091 138.718 121.994C136.231 121.745 133.768 121.223 131.312 120.728C129.878 120.439 129.172 119.423 129.062 117.997C128.985 117.013 128.947 116.026 128.89 115.042C128.534 115.528 128.354 116.024 128.189 116.524C127.157 119.621 125.05 120.387 121.79 119.574C120.586 119.272 120.101 118.204 120.535 117.051C120.976 115.884 121.681 114.958 123.035 114.741C123.245 114.707 123.437 114.559 123.76 114.406C121.756 114.04 120.043 115.298 119.67 117.256C119.353 118.929 120.311 120.081 122.284 120.454C124.252 120.829 126.038 120.249 127.777 119.396C129.782 121.485 132.342 122.324 135.022 122.669C136.919 122.914 138.937 123.05 140.783 122.671C143.84 122.042 145.063 118.095 142.946 116.086C141.664 114.868 140.029 114.194 138.133 114.228Z" fill="#EFEEEE"/>
<path d="M95.3675 80.2065C95.4667 79.467 95.5687 78.4394 95.7466 77.4259C96.1833 74.9262 97.1405 74.1172 99.7266 73.9694C102.706 73.7988 105.588 74.3156 108.348 75.3736C114.159 77.6044 118.634 81.4538 121.445 87.0001C123.29 90.6405 123.248 94.6461 122.849 98.623C122.738 99.7294 122.058 100.525 120.949 100.595C119.11 100.711 117.236 100.839 115.417 100.613C109.507 99.8826 104.111 97.7998 99.7196 93.6818C96.562 90.7225 95.019 86.9866 95.2866 82.5956C95.3089 82.2247 95.3386 81.8544 95.3533 81.4854C95.3646 81.1558 95.361 80.8249 95.3673 80.209L95.3675 80.2065Z" fill="#EFEEEE"/>
<path d="M191.402 58.0284C190.763 63.5105 189.532 69.9602 186.673 75.9874C185.974 77.4627 185.207 78.9245 184.306 80.2828C183.618 81.319 183.319 81.186 182.635 80.1696C181.005 77.7484 179.516 75.1954 177.606 73.0109C175.284 70.358 172.631 67.982 170.029 65.5882C169.247 64.8689 168.981 64.3238 169.584 63.4293C171.283 60.9126 172.865 58.3088 174.685 55.8847C176.429 53.5609 178.309 51.3135 180.327 49.2224C182.323 47.1517 184.501 45.246 187.221 44.0833C188.853 43.3853 189.6 43.6491 190.305 45.3062C191.732 48.6592 192.001 51.29 191.402 58.0284Z" fill="#FAC1E4"/>
<path d="M90.6214 66.1353C90.4762 64.3703 90.2142 62.8015 90.2409 61.2355C90.3159 56.7108 90.3248 52.173 90.702 47.6672C91.1352 42.4902 92.2341 37.4209 94.3921 32.6327C95.1392 30.9752 96.2427 29.6296 97.7701 28.6515C99.1208 27.7873 100.153 28.0909 100.861 29.5669C102.268 32.493 103.685 35.4176 105.012 38.379C106.455 41.6016 107.851 44.85 109.17 48.124C109.766 49.6075 110.18 51.1722 110.581 52.7232C110.967 54.2158 110.618 54.8143 109.176 55.2381C104.242 56.6878 99.9 59.2999 95.6815 62.1192C94.1845 63.1198 92.8925 64.4266 91.5013 65.5855C91.3213 65.7364 91.1006 65.839 90.6244 66.1306L90.6214 66.1353Z" fill="#FAC1E4"/>
<path d="M131.559 91.681C133.718 95.3263 136.55 94.4667 139.546 93.1865C139.603 93.875 139.722 94.3178 139.658 94.7323C139.293 97.0941 138.918 99.4551 138.482 101.803C138.243 103.09 137.374 103.69 136.068 103.609C134.79 103.53 133.504 103.478 132.24 103.293C130.503 103.04 129.975 102.497 130.094 100.733C130.264 98.2271 130.631 95.7361 130.947 93.2433C130.996 92.8573 131.231 92.4975 131.557 91.6807L131.559 91.681ZM134.26 96.7952C133.259 96.708 132.333 97.4427 132.254 98.3828C132.169 99.4119 133.048 100.45 134.056 100.516C135.005 100.576 136.09 99.7234 136.195 98.8352C136.296 97.9592 135.276 96.8836 134.26 96.7952Z" fill="#EFEEEE"/>
<path d="M140.435 79.4815C140.341 80.1369 140.288 80.6294 140.199 81.1113C139.998 82.2173 139.345 83.1944 138.295 83.2671C137.225 83.3405 136.104 82.8527 135.028 82.5402C134.833 82.4836 134.673 82.0967 134.608 81.8351C134.13 79.9194 134.361 78.0679 135.317 76.3491C135.908 75.287 136.856 74.7829 138.115 75.0043C139.336 75.22 140.156 76.0172 140.34 77.3132C140.448 78.0807 140.414 78.8682 140.438 79.4817L140.435 79.4815Z" fill="#EFEEEE"/>
<path d="M154.138 90.2387C152.069 93.2127 150.765 96.4796 149.829 100.111C158.056 94.4522 167.12 92.2262 176.681 91.6242C176.716 91.7366 176.751 91.8515 176.788 91.9641C176.568 92.0369 176.352 92.1325 176.127 92.1726C175.887 92.2162 175.636 92.1844 175.395 92.2232C167.678 93.428 160.077 95.0456 153.214 98.9968C151.89 99.759 150.795 100.921 149.591 101.895C149.39 102.059 149.182 102.215 148.945 102.401C148.079 99.9268 151.908 90.8249 154.141 90.2364L154.138 90.2387Z" fill="#EFEEEE"/>
<path d="M139.198 89.3409C138.916 92.3859 136.877 93.8266 134.217 92.8519C133.952 92.7542 133.69 92.6121 133.471 92.4365C132.314 91.5105 132.182 89.1005 133.153 86.8809C133.753 85.5064 135.025 84.8043 136.554 85.0095C138.142 85.2199 139.391 87.2698 139.201 89.3436L139.198 89.3409Z" fill="#EFEEEE"/>
<path d="M136.461 69.161C136.851 68.2902 137.142 67.3536 137.661 66.5661C138.155 65.8187 139.109 65.4991 139.846 66.0157C140.515 66.4865 141.28 67.3161 141.339 68.0421C141.435 69.2286 141.072 70.477 140.752 71.6597C140.505 72.5827 139.821 72.891 138.815 72.6269C136.443 72.0029 136.435 72.037 136.459 69.1583L136.461 69.161Z" fill="#EFEEEE"/>
<path d="M138.353 59.5326C138.385 59.1626 138.393 58.7904 138.457 58.4281C138.505 58.1564 138.551 57.8025 138.736 57.6471C139.855 56.7006 141.054 57.4015 142.133 57.7117C142.566 57.8338 143.027 58.7812 143.01 59.3415C142.981 60.3033 142.672 61.2831 142.326 62.1974C141.9 63.3161 140.997 63.6676 139.815 63.428C138.662 63.1959 138.271 62.451 138.277 61.3827C138.28 60.7666 138.289 60.1509 138.296 59.5326C138.315 59.5343 138.335 59.536 138.355 59.5353L138.353 59.5326Z" fill="#EFEEEE"/>
<path d="M164.742 120.345C166.766 120.511 168.28 122.768 167.739 124.92C167.522 125.789 167.507 126.901 166.242 127.069C164.985 127.236 163.913 126.839 163.271 125.739C162.608 124.608 162.055 123.404 162.423 122.009C162.759 120.729 163.429 120.235 164.745 120.345L164.742 120.345Z" fill="#FAC1E4"/>
<path d="M174.556 142.51C173.647 141.785 172.739 141.059 171.828 140.334C170.552 138.165 170.029 135.927 171.173 133.521C172.423 130.891 174.747 129.92 177.408 129.46C177.491 129.445 177.6 129.569 177.803 129.694C176.686 130.163 175.626 130.528 174.64 131.039C172.06 132.373 171.15 135.498 172.137 138.218C173.571 142.173 178.629 143.441 182.13 141.912C183.516 141.306 184.782 140.432 186.066 139.704C185.586 141.042 184.421 141.833 183.078 142.441C180.689 143.67 178.207 143.253 175.732 142.841C175.335 142.774 174.949 142.624 174.558 142.51L174.556 142.51Z" fill="#EFEEEE"/>
<path d="M194.927 105.444C195.003 104.576 195.02 103.695 195.172 102.838C195.323 101.984 195.024 101.557 194.224 101.272C193.203 100.904 192.221 100.419 191.225 99.984C191.22 99.8444 191.214 99.7072 191.209 99.5675C192.118 99.3956 193.021 99.1287 193.938 99.0668C196.168 98.9204 196.167 98.9601 196.433 96.6742C196.461 96.4355 196.524 96.1999 196.636 95.628C197.505 96.519 198.302 97.1848 198.906 97.9931C199.589 98.905 200.369 98.9009 201.312 98.625C202.468 98.2881 203.637 97.9922 204.798 97.6782C204.855 97.7876 204.913 97.8995 204.973 98.0091C204.387 98.5074 203.829 99.0479 203.204 99.4956C201.318 100.85 201.28 100.971 202.593 102.83C202.755 103.058 202.968 103.248 203.395 103.72C202.659 103.788 202.031 104.049 201.715 103.84C199.676 102.487 198.152 103.684 196.588 104.743C196.193 105.01 195.834 105.326 195.457 105.622C195.281 105.562 195.104 105.502 194.93 105.439L194.927 105.444Z" fill="#FDFDFD"/>
<path d="M191.372 102.619C191.275 102.817 191.16 103.197 191.086 103.191C189.531 103.025 188.478 104.045 187.286 104.741C187.131 104.832 186.912 104.811 186.492 104.876C186.699 103.763 186.878 102.792 187.047 101.88C187.68 101.85 188.223 101.828 188.765 101.803C189.236 101.951 189.704 102.098 190.174 102.246C190.431 102.326 190.691 102.406 190.948 102.483C191.091 102.527 191.231 102.574 191.374 102.619L191.372 102.619Z" fill="#EFEEEE"/>
<path d="M190.948 102.483C190.691 102.403 190.431 102.323 190.174 102.246C190.431 102.326 190.691 102.406 190.948 102.483Z" fill="#FDFDFD"/>
<path d="M190.363 105.882C189.53 108.185 187.998 108.355 185.859 107.856C183.408 107.282 181.054 106.23 178.716 105.246C177.445 104.712 176.253 104.746 174.985 105.068C174.575 105.171 174.137 105.168 173.712 105.213C173.651 105.081 173.59 104.949 173.53 104.817C174.151 104.433 174.755 103.758 175.393 103.729C176.799 103.66 178.279 103.711 179.618 104.096C181.181 104.546 182.603 105.46 184.127 106.067C185.812 106.741 187.545 106.919 189.279 106.145C189.575 106.012 189.918 105.987 190.358 105.884L190.363 105.882Z" fill="#FDFDFD"/>
<path d="M138.133 114.228C140.029 114.194 141.664 114.868 142.946 116.086C145.063 118.095 143.84 122.042 140.783 122.671C138.937 123.05 136.919 122.914 135.022 122.669C132.342 122.324 129.782 121.485 127.777 119.396C126.038 120.249 124.252 120.827 122.284 120.454C120.311 120.079 119.353 118.929 119.67 117.256C120.04 115.298 121.756 114.04 123.76 114.406C123.437 114.559 123.245 114.707 123.035 114.741C121.684 114.959 120.976 115.884 120.535 117.051C120.101 118.204 120.586 119.275 121.79 119.574C125.05 120.387 127.159 119.621 128.189 116.524C128.354 116.024 128.535 115.525 128.89 115.042C128.947 116.026 128.985 117.013 129.062 117.997C129.172 119.423 129.878 120.442 131.312 120.728C133.768 121.22 136.231 121.745 138.718 121.994C139.693 122.091 140.871 121.689 141.728 121.15C143.441 120.074 143.482 117.512 141.856 116.304C140.929 115.617 139.816 115.18 138.791 114.623C138.568 114.502 138.353 114.361 138.133 114.228Z" fill="#0D0D0D"/>
<path d="M134.26 96.7952C135.276 96.8836 136.296 97.9592 136.195 98.8352C136.093 99.7212 135.005 100.576 134.056 100.516C133.048 100.45 132.169 99.4119 132.254 98.3828C132.333 97.4427 133.259 96.708 134.26 96.7952Z" fill="#0D0D0D"/>
</svg>
