<svg width="59" height="50" viewBox="0 0 59 50" fill="none" xmlns="http://www.w3.org/2000/svg">
<g clip-path="url(#clip0_81_86)">
<path d="M0.00915243 30.0031C0.00190953 29.4399 0.0507991 28.9425 0.0544205 28.4469C0.0598527 27.4088 0.315165 26.4245 0.608502 25.4384C0.816736 24.7383 1.07929 24.059 1.36539 23.3866C1.66597 22.6795 2.07157 22.0262 2.49709 21.3815C2.62927 21.1822 2.74335 20.9673 2.84475 20.7524C2.97512 20.4769 2.9552 20.2013 2.88096 19.9015C2.74697 19.3556 2.46812 18.86 2.37215 18.2933C2.30515 17.8999 2.19289 17.4892 2.08424 17.0924C1.96292 16.647 1.83617 16.1877 1.77099 15.7406C1.63337 14.8048 1.44506 13.8777 1.32917 12.9384C1.16621 11.6213 1.11007 10.3043 1.14086 8.98372C1.16077 8.15189 1.23501 7.32005 1.29839 6.48995C1.36357 5.63386 1.4686 4.78643 1.72934 3.95459C1.87963 3.47456 2.01 2.98239 2.16391 2.50408C2.29067 2.10896 2.53692 1.7485 2.7868 1.39844C3.225 0.784962 3.80805 0.363847 4.50337 0.0640405C4.78584 -0.0572684 5.02667 -7.99289e-05 5.24758 0.183617C5.33812 0.259868 5.44676 0.334386 5.49565 0.433167C5.71475 0.888942 6.17467 0.972125 6.59838 1.10903C7.41321 1.37418 8.26062 1.55441 9.04105 1.89927C9.59875 2.14536 10.142 2.42783 10.6707 2.73457C11.3606 3.13489 11.9871 3.61839 12.6335 4.07417C12.9957 4.33065 13.2944 4.66512 13.662 4.92333C14.4497 5.47789 15.0997 6.16935 15.757 6.85561C16.2894 7.4119 16.838 7.95086 17.3305 8.54181C17.6547 8.93 17.9589 9.33031 18.2341 9.75143C18.3971 9.99925 18.5691 10.2419 18.8298 10.4065C19.058 10.5486 19.2897 10.5919 19.5632 10.4741C20.0122 10.2817 20.5066 10.2349 20.9828 10.1379C21.4427 10.0443 21.9081 9.97672 22.3734 9.9178C22.9963 9.83808 23.6192 9.75316 24.2457 9.71677C25.2162 9.65958 26.1904 9.61279 27.1628 9.61279C28.1623 9.61279 29.1691 9.61972 30.1632 9.7185C31.447 9.84501 32.7452 9.9022 34.0001 10.2384C34.3731 10.3389 34.7841 10.2783 35.1336 10.4654C35.2911 10.5503 35.4432 10.5659 35.6116 10.5642C35.7203 10.5642 35.8162 10.5365 35.8832 10.4533C36.0752 10.2141 36.3413 10.0235 36.4681 9.74796C36.7325 9.17781 37.2413 8.77576 37.5672 8.2524C38.067 7.45176 38.7876 6.83655 39.4359 6.16242C39.894 5.68585 40.4282 5.28553 40.9605 4.88867C41.9202 4.17642 42.9686 3.5924 44.0188 3.01878C44.4299 2.79349 44.9079 2.67565 45.3334 2.45903C46.0704 2.0847 46.8309 1.77276 47.6312 1.53535C48.4352 1.29619 49.1903 0.940931 49.8657 0.44703C50.0322 0.325721 50.2187 0.256402 50.4324 0.261601C50.6913 0.268533 50.9611 0.195747 51.2056 0.23214C51.7742 0.31359 52.2468 0.583936 52.5347 1.0865C52.799 1.54921 53.1304 1.97032 53.3603 2.45556C53.5269 2.80736 53.6193 3.17475 53.7497 3.53174C54.1553 4.63912 54.2911 5.79502 54.4468 6.95612C54.5826 7.96819 54.5717 8.98545 54.7238 9.99405C54.8035 10.5243 54.751 11.0737 54.7148 11.6161C54.6786 12.1655 54.6315 12.7114 54.579 13.259C54.4921 14.1931 54.3345 15.115 54.148 16.037C53.9416 17.0577 53.5106 17.9883 53.0996 18.9328C52.9873 19.1927 52.8153 19.4284 52.6668 19.6728C52.5093 19.931 52.3826 20.2048 52.2069 20.4561C51.8774 20.9309 52.0349 21.4023 52.3156 21.8303C52.484 22.0868 52.6198 22.3554 52.7628 22.6189C53.2771 23.5599 53.6193 24.5633 53.9362 25.5788C54.1027 26.1143 54.2241 26.6446 54.2748 27.1957C54.2856 27.3083 54.3019 27.4192 54.2041 27.4885C54.1136 27.5527 54.0195 27.492 53.9217 27.4521C52.79 27.0016 52.053 27.1263 51.0969 27.9166C50.255 28.6115 49.4945 29.3983 48.7321 30.1764C48.5022 30.4104 48.2125 30.5906 48.0712 30.9302C47.8376 31.4952 47.7127 32.0394 47.8829 32.6407C48.064 33.2819 48.5112 33.781 48.81 34.3581C48.9911 34.7082 49.2464 35.0236 49.2971 35.4377C49.3749 36.072 48.7738 36.3857 48.312 36.4862C47.8213 36.5919 47.3343 36.715 46.849 36.8363C46.4162 36.9437 46.0016 37.0927 45.6213 37.3302C45.5163 37.396 45.4457 37.4792 45.3624 37.5555C44.8318 38.0303 44.5982 38.6195 44.6037 39.311C44.6127 40.5206 44.582 41.7302 44.6182 42.9381C44.6363 43.5481 44.8916 44.0923 45.4149 44.4943C45.567 44.6104 45.5163 44.7629 45.4058 44.912C45.1053 45.314 44.6327 45.4873 44.218 45.723C43.5354 46.1095 42.8563 46.5115 42.1302 46.8235C41.4222 47.1285 40.7269 47.4508 39.9954 47.7125C39.2313 47.9846 38.4671 48.2549 37.6958 48.5027C37.2159 48.657 36.7198 48.7679 36.2291 48.8961C35.4179 49.1075 34.5994 49.2947 33.7701 49.4281C32.6203 49.6136 31.4759 49.8146 30.3062 49.8804C29.3538 49.9359 28.3995 50.0052 27.4471 50.0035C26.7554 50.0035 26.0582 50.0277 25.3647 49.9411C25.0062 49.896 24.6423 49.8943 24.2837 49.8839C23.382 49.8597 22.4965 49.7158 21.6093 49.5824C20.8162 49.4628 20.0213 49.3398 19.239 49.1699C18.5926 49.0296 17.9679 48.8025 17.3269 48.6379C16.3926 48.4005 15.5071 48.0383 14.6072 47.7125C13.2781 47.2324 12.0306 46.5964 10.7848 45.95C9.62953 45.3522 8.56664 44.6243 7.55263 43.8479C6.35393 42.9294 5.23128 41.9208 4.26073 40.7632C3.49842 39.8534 2.7868 38.9193 2.2291 37.8847C1.76737 37.0286 1.34909 36.1552 1.02678 35.235C0.862004 34.7653 0.695417 34.2957 0.559613 33.8191C0.201089 32.5489 -0.0560337 31.263 0.00915243 30.0031ZM53.8402 8.91613C53.8148 8.55914 53.7967 8.19868 53.7696 7.84341C53.7098 7.05144 53.7026 6.25946 53.5269 5.47615C53.4364 5.0741 53.3078 4.68245 53.2463 4.27C53.1847 3.85235 52.9674 3.45549 52.8552 3.04824C52.6505 2.30999 52.0856 1.81436 51.6872 1.20608C51.6764 1.18875 51.6365 1.18875 51.613 1.17488C51.202 0.930533 50.838 1.11423 50.5139 1.32912C49.958 1.69998 49.3514 2.02058 48.9585 2.58034C48.8209 2.77616 48.5909 2.86628 48.4243 3.02745C47.7018 3.72757 47.1514 4.55074 46.6208 5.38604C46.4452 5.66158 46.2732 5.94233 46.1084 6.22307C45.9617 6.47262 45.8295 6.74123 45.6322 6.97519C45.4602 7.17968 45.2755 7.4067 45.1795 7.65798C45.0129 8.0947 44.7467 8.47769 44.5041 8.86587C44.1057 9.50708 43.7508 10.1708 43.4647 10.8553C43.2637 11.3388 43.1135 11.8518 42.927 12.3457C42.8907 12.4428 42.8219 12.5225 42.802 12.6351C42.7423 12.9765 42.9686 13.136 43.2149 13.2867C43.6476 13.5467 44.0912 13.791 44.515 14.0614C45.0708 14.4149 45.6249 14.7702 46.1663 15.1462C46.7077 15.5223 47.2673 15.8827 47.7525 16.3194C48.542 17.03 49.3967 17.6729 50.0829 18.4943C50.4777 18.9657 50.9123 19.4094 51.2726 19.9085C51.4102 20.0991 51.6709 20.113 51.7832 19.9137C51.9244 19.6641 52.0639 19.4076 52.1942 19.1529C52.5111 18.5377 52.5691 17.8531 52.8696 17.2362C53.1829 16.5915 53.2264 15.8671 53.3549 15.1687C53.4038 14.9036 53.3513 14.6315 53.431 14.3768C53.5813 13.8985 53.6483 13.4028 53.7098 12.9176C53.8148 12.0754 53.7189 11.221 53.8112 10.3684C53.8619 9.897 53.8927 9.39963 53.8366 8.9144L53.8402 8.91613ZM1.61708 8.53314C1.58992 8.69604 1.66415 8.85028 1.66415 9.00798C1.66053 10.1171 1.68407 11.2245 1.78185 12.3301C1.82712 12.8413 1.88506 13.3526 1.9249 13.8638C1.95206 14.2191 1.98284 14.5847 2.06251 14.9417C2.16573 15.3975 2.27075 15.8602 2.31964 16.3194C2.39388 17.0057 2.62927 17.6504 2.75059 18.3228C2.82845 18.7578 3.02401 19.1771 3.11636 19.6191C3.13446 19.7074 3.09101 19.8235 3.24311 19.8478C3.36805 19.8686 3.48031 19.8253 3.53101 19.73C3.62517 19.5532 3.78814 19.4302 3.88772 19.2621C4.17201 18.7838 4.59029 18.4077 4.95243 17.9918C5.38882 17.4892 5.89944 17.0577 6.41731 16.6314C6.86275 16.2657 7.27559 15.8567 7.75362 15.5344C8.42902 15.0804 9.10623 14.6246 9.79612 14.1879C10.3665 13.8274 10.9894 13.5536 11.5543 13.1827C11.7463 13.0562 12.0034 12.9783 12.2189 12.8517C12.4072 12.7408 12.5249 12.6022 12.4887 12.3752C12.4072 11.883 12.1301 11.4671 11.9147 11.0304C11.7481 10.6924 11.5525 10.3666 11.3769 10.0304C11.1813 9.65438 11.0075 9.261 10.7558 8.92306C10.4081 8.45862 10.1402 7.95086 9.82147 7.47082C9.44484 6.90414 9.12977 6.30106 8.68252 5.77423C8.45981 5.51255 8.28054 5.21794 8.06507 4.94586C7.70111 4.48835 7.40958 3.98059 7.06736 3.50575C6.67805 2.96506 6.32858 2.4001 5.91393 1.87501C5.60248 1.48162 5.29466 1.0865 4.89087 0.771099C4.68625 0.611664 4.4744 0.596067 4.22452 0.703512C4.05793 0.774565 3.93661 0.890675 3.79719 0.987722C3.08738 1.48336 2.7361 2.20601 2.44277 2.96506C2.29972 3.33418 2.36853 3.74664 2.20737 4.10536C2.04803 4.45889 1.99371 4.83842 1.91947 5.20408C1.69856 6.30106 1.71848 7.4223 1.61708 8.53141V8.53314ZM38.0851 35.0426C38.8818 35.079 39.7256 34.9802 40.5676 34.8433C41.5472 34.6839 42.496 34.4291 43.4195 34.0774C43.979 33.8642 44.5331 33.6302 45.0455 33.3339C45.94 32.8175 46.6679 32.1 47.3831 31.3791C47.5226 31.2387 47.6529 31.0845 47.7562 30.9181C48.2396 30.1279 48.5384 29.2683 48.7702 28.3828C49.107 27.0917 49.2228 25.7867 49.1142 24.4558C49.0617 23.8233 48.7937 23.4299 48.1545 23.2167C47.5262 23.0088 46.8798 22.8944 46.2297 22.8528C45.0002 22.7714 43.7726 22.8147 42.563 23.1162C41.9944 23.2583 41.4222 23.4022 40.8917 23.624C40.1547 23.9307 39.4413 24.2998 38.7931 24.7678C38.3748 25.071 37.9004 25.3102 37.5473 25.6862C37.3046 25.9445 37.0566 26.1975 36.7904 26.428C35.8561 27.239 35.197 28.2147 34.795 29.3584C34.6628 29.7328 34.5777 30.1157 34.4709 30.4935C34.1866 31.4935 34.0236 32.5038 34.0761 33.5419C34.0942 33.8746 34.1377 34.216 34.4654 34.4101C34.7316 34.5678 35.0231 34.6874 35.3273 34.7688C36.211 35.0028 37.1127 35.0686 38.0851 35.0426ZM18.1725 34.7913C18.5618 34.7913 18.953 34.8069 19.3423 34.7879C20.0973 34.7515 20.8307 34.618 21.5151 34.2905C22.0529 34.034 22.3028 33.6129 22.3173 33.0497C22.33 32.6303 22.2412 32.2196 22.1779 31.8089C22.033 30.88 21.7976 29.9719 21.4427 29.0898C21.0371 28.0812 20.454 27.1887 19.6736 26.4141C18.8316 25.5805 17.8756 24.8873 16.8308 24.2998C15.862 23.754 14.8607 23.2878 13.7652 23.0209C12.485 22.7072 11.194 22.5166 9.86674 22.6015C9.14969 22.6483 8.45075 22.78 7.77897 23.0105C7.27559 23.1838 6.79937 23.4351 6.64727 23.9827C6.57665 24.2357 6.5676 24.5078 6.55311 24.7712C6.5006 25.7053 6.63822 26.6307 6.73418 27.5561C6.79213 28.1072 6.90801 28.6618 7.11806 29.1851C7.35707 29.7813 7.64679 30.3584 8.05239 30.8661C8.48334 31.4051 8.91249 31.951 9.47019 32.3825C9.87217 32.6927 10.3013 32.9457 10.7884 33.1398C11.2284 33.3148 11.6449 33.5575 12.0939 33.7238C14.0495 34.4482 16.0721 34.8399 18.1762 34.7896L18.1725 34.7913ZM27.6625 47.5946C27.9396 47.5981 28.2999 47.5513 28.6584 47.5461C29.6181 47.5322 30.5307 47.2966 31.4162 46.9916C32.6764 46.5566 33.8172 45.9136 34.6972 44.9206C35.3509 44.1841 35.8687 43.3748 36.0009 42.3853C36.1693 41.1271 35.8307 40.0007 35.0648 38.98C34.7896 38.6126 34.4093 38.3388 34.0906 38.0078C33.7013 37.604 33.1635 37.3908 32.6801 37.1066C31.7294 36.5469 30.681 36.2557 29.6091 36.0703C28.4792 35.8745 27.3348 35.8277 26.1796 35.9871C24.8269 36.1725 23.5468 36.5261 22.3463 37.169C21.2815 37.7391 20.4251 38.5051 19.813 39.5033C18.9294 40.9434 19.0344 42.8965 19.9597 44.2309C20.0557 44.3696 20.1915 44.4822 20.2983 44.6139C20.9013 45.3626 21.6328 45.9726 22.4965 46.4231C24.0755 47.248 25.783 47.5981 27.6607 47.5981L27.6625 47.5946ZM30.4782 31.8678C30.4782 31.315 30.4837 30.8887 30.4782 30.4623C30.4728 30.1348 30.4257 29.809 30.3442 29.4901C30.279 29.2319 30.0364 29.1331 29.8155 29.2926C29.5765 29.4659 29.3121 29.5924 29.0532 29.731C28.4249 30.069 27.7802 30.1955 27.094 29.8593C26.8242 29.7276 26.625 29.5161 26.3896 29.3498C26.0619 29.1175 25.8428 29.2025 25.7848 29.5941C25.7468 29.8471 25.7088 30.1019 25.7214 30.3618C25.7631 31.2127 25.8029 32.0619 25.8283 32.9128C25.8391 33.2906 25.946 33.6476 26.0293 34.0098C26.089 34.2662 26.2484 34.4742 26.5127 34.5955C26.8079 34.729 27.1248 34.7549 27.4344 34.7446C28.0446 34.7255 28.653 34.6822 29.2614 34.6111C29.8535 34.5418 30.2356 34.2558 30.3822 33.7048C30.5543 33.0566 30.4601 32.3981 30.48 31.8695L30.4782 31.8678ZM28.0863 24.7348C28.9138 24.8405 29.5946 24.0988 29.6489 23.5477C29.7304 22.7228 29.7141 21.9101 29.3338 21.1302C29.0966 20.6432 28.7309 20.3469 28.1858 20.2845C27.5123 20.2065 26.9727 20.4336 26.6141 21.0089C26.3516 21.43 26.328 21.9031 26.2918 22.3693C26.2447 22.9966 26.3317 23.5997 26.6866 24.1577C27.0179 24.6759 27.5304 24.7366 28.0844 24.7348H28.0863ZM29.8336 27.5769C29.8064 27.0328 29.7268 26.5077 29.3737 26.0484C28.4937 24.9116 27.0578 25.3084 26.5272 26.0519C26.3099 26.3569 26.2628 26.7 26.2212 27.0501C26.1723 27.4729 26.1234 27.9114 26.2085 28.3152C26.395 29.1903 27.4072 29.8177 28.3886 29.5387C28.9572 29.3775 29.4878 29.1245 29.6743 28.5145C29.7684 28.2095 29.8427 27.8993 29.8318 27.5752L29.8336 27.5769ZM29.2759 12.8569C29.2759 12.6715 29.2976 12.4826 29.2723 12.2989C29.2143 11.8934 29.0188 11.6092 28.586 11.5468C28.1985 11.4896 27.8092 11.5173 27.4217 11.5208C26.9129 11.526 26.5815 11.9107 26.634 12.3977C26.6503 12.5554 26.6431 12.7166 26.6558 12.876C26.6884 13.2902 26.7373 13.7044 26.8713 14.103C26.9473 14.33 27.0795 14.5119 27.3004 14.6367C27.936 14.9937 28.9156 14.739 29.151 13.9626C29.2614 13.6004 29.2922 13.233 29.2759 12.8604V12.8569ZM29.265 17.6313C29.265 17.4008 29.2741 17.1686 29.2632 16.9381C29.2342 16.3697 28.5643 15.7493 27.9758 15.7372C27.4072 15.7233 26.8133 16.1427 26.6648 16.6955C26.4675 17.4286 26.6087 18.1512 26.7952 18.8669C26.8694 19.1529 27.1066 19.2569 27.3746 19.2915C27.668 19.3296 27.9649 19.347 28.2601 19.3556C28.7635 19.3695 28.9916 19.191 29.1654 18.737C29.3049 18.373 29.2596 18.0004 29.2668 17.6296L29.265 17.6313Z" fill="#070508"/>
<path d="M53.8402 8.91636C53.8963 9.4016 53.8656 9.89896 53.8149 10.3703C53.7225 11.223 53.8203 12.0773 53.7135 12.9196C53.6519 13.4048 53.5849 13.9022 53.4346 14.3787C53.3549 14.6317 53.4074 14.9056 53.3585 15.1707C53.23 15.8691 53.1883 16.5935 52.8733 17.2382C52.5727 17.8568 52.5148 18.5414 52.1979 19.1548C52.0675 19.4096 51.9281 19.6643 51.7868 19.9156C51.6746 20.1149 51.4138 20.1011 51.2762 19.9104C50.9159 19.4096 50.4813 18.9677 50.0866 18.4963C49.4003 17.6749 48.5456 17.0319 47.7562 16.3214C47.2709 15.8864 46.7114 15.5242 46.17 15.1482C45.6286 14.7721 45.0745 14.4169 44.5186 14.0633C44.0931 13.793 43.6494 13.5486 43.2185 13.2887C42.9704 13.1396 42.7459 12.9802 42.8056 12.6371C42.8256 12.5244 42.8926 12.4465 42.9306 12.3477C43.1171 11.852 43.2674 11.3408 43.4684 10.8573C43.7545 10.1728 44.1076 9.50904 44.5077 8.86784C44.7504 8.47791 45.0184 8.09666 45.1831 7.65995C45.2791 7.40866 45.4638 7.18164 45.6358 6.97715C45.8332 6.7432 45.9672 6.47458 46.112 6.22503C46.2768 5.94256 46.4488 5.66355 46.6245 5.388C47.155 4.55443 47.7055 3.73127 48.4279 3.02941C48.5945 2.86824 48.8245 2.77639 48.9621 2.5823C49.355 2.02254 49.9616 1.70194 50.5175 1.33108C50.8398 1.11446 51.2056 0.932494 51.6166 1.17684C51.6402 1.19071 51.68 1.18898 51.6909 1.20804C52.0874 1.81632 52.6542 2.31195 52.8588 3.0502C52.9711 3.45745 53.1883 3.85431 53.2499 4.27196C53.3115 4.68441 53.44 5.07606 53.5306 5.47812C53.7062 6.26143 53.7135 7.0534 53.7732 7.84538C53.8004 8.20064 53.8185 8.5611 53.8438 8.91809L53.8402 8.91636Z" fill="#FAC1E4"/>
<path d="M1.6173 8.53334C1.7187 7.42423 1.69879 6.30126 1.91969 5.20601C1.99393 4.84035 2.04826 4.46256 2.2076 4.1073C2.36875 3.74857 2.29995 3.33612 2.44299 2.96699C2.73633 2.20968 3.08761 1.48529 3.79742 0.989656C3.93684 0.892608 4.05816 0.776498 4.22475 0.705446C4.47463 0.598001 4.68648 0.613598 4.89109 0.773032C5.29307 1.08844 5.6009 1.48182 5.91415 1.87694C6.32881 2.40204 6.67828 2.96699 7.06758 3.50768C7.40981 3.98252 7.70134 4.49029 8.06529 4.94779C8.28077 5.21814 8.46003 5.51275 8.68275 5.77616C9.13 6.30299 9.44507 6.90434 9.8217 7.47275C10.1404 7.95279 10.4084 8.45882 10.756 8.925C11.0095 9.26293 11.1834 9.65632 11.3771 10.0324C11.5509 10.3686 11.7483 10.6944 11.9149 11.0323C12.1304 11.469 12.4074 11.8849 12.4889 12.3771C12.5269 12.6041 12.4074 12.7428 12.2191 12.8537C12.0036 12.9802 11.7465 13.0582 11.5546 13.1847C10.9896 13.5573 10.3685 13.8293 9.79635 14.1898C9.10465 14.6248 8.42925 15.0806 7.75385 15.5363C7.27582 15.8587 6.86297 16.2677 6.41753 16.6333C5.89967 17.0579 5.38723 17.4911 4.95266 17.9937C4.59051 18.4114 4.17405 18.7874 3.88795 19.264C3.78836 19.4304 3.6254 19.5551 3.53124 19.7319C3.48054 19.8272 3.36827 19.8705 3.24333 19.8497C3.09123 19.8255 3.13469 19.7094 3.11658 19.621C3.02424 19.1808 2.83049 18.7614 2.75082 18.3247C2.6295 17.6523 2.3941 17.0059 2.31986 16.3214C2.27098 15.8621 2.16595 15.3994 2.06274 14.9437C1.98307 14.5884 1.95229 14.221 1.92513 13.8657C1.88529 13.3545 1.82735 12.8433 1.78208 12.332C1.6843 11.2247 1.66076 10.119 1.66438 9.00991C1.66438 8.85048 1.59014 8.69798 1.6173 8.53507V8.53334Z" fill="#FAC1E4"/>
<path d="M45.214 23.0917C46.1863 23.0241 47.1496 23.2182 48.093 23.4608C48.3827 23.5354 48.6634 23.8022 48.7322 24.1679C48.906 25.0777 48.868 25.9841 48.7612 26.8956C48.6888 27.5056 48.5783 28.1104 48.3882 28.6927C48.0351 29.7654 47.6168 30.8191 46.7223 31.6145C46.2624 32.0235 45.8242 32.4585 45.328 32.8224C44.7848 33.221 44.1384 33.4567 43.5173 33.7288C42.6482 34.1083 41.712 34.2747 40.794 34.4913C40.2616 34.6161 39.6985 34.6455 39.148 34.6785C38.4926 34.7166 37.8353 34.7807 37.178 34.7356C36.3976 34.6819 35.6099 34.6611 34.882 34.3197C34.509 34.1447 34.346 33.935 34.337 33.5399C34.308 32.2869 34.5995 31.0894 34.9417 29.8885C35.3546 28.4432 36.2129 27.2838 37.2884 26.2527C37.9005 25.6669 38.603 25.18 39.3436 24.7433C39.8977 24.4157 40.43 24.057 41.0457 23.8352C41.8786 23.5371 42.7387 23.3465 43.6133 23.2026C44.1348 23.116 44.6599 23.0675 45.2122 23.0986L45.214 23.0917Z" fill="#FDFDFD"/>
<path d="M18.0077 34.5711C16.6424 34.6335 15.183 34.3371 13.7308 34.0096C12.8544 33.8103 11.9744 33.5608 11.1958 33.15C9.80152 32.417 8.5829 31.4708 7.80429 30.0792C7.39688 29.3496 7.21581 28.5767 7.08181 27.7813C6.89712 26.6843 6.83555 25.5821 6.84461 24.4695C6.84823 23.8907 7.19046 23.5978 7.6377 23.3621C8.2787 23.0242 9.00661 22.9861 9.7128 22.9254C11.5815 22.766 13.3904 23.0831 15.1196 23.7417C16.0521 24.0969 16.9086 24.6134 17.7379 25.1644C18.2196 25.4833 18.6777 25.8282 19.1032 26.2077C19.9054 26.9252 20.5753 27.7431 21.0244 28.7153C21.4173 29.5628 21.6763 30.4483 21.8265 31.3599C21.9243 31.9526 21.9823 32.5539 22.0312 33.1518C22.0656 33.5781 21.8265 33.8744 21.4445 34.072C20.7202 34.4463 19.9235 34.5278 19.1231 34.5694C18.799 34.5867 18.4731 34.5728 18.0059 34.5728L18.0077 34.5711Z" fill="#FDFDFD"/>
<path d="M27.7733 47.3639C26.4805 47.3726 25.3922 47.1906 24.3094 46.9307C22.9369 46.5997 21.7979 45.8961 20.8491 44.9395C19.6903 43.7714 19.1235 42.3799 19.5382 40.7456C19.7138 40.0542 20.0578 39.4355 20.5268 38.8775C21.1135 38.1774 21.8468 37.6731 22.6635 37.2433C23.7336 36.6818 24.8834 36.408 26.0785 36.2693C26.667 36.2018 27.2573 36.1307 27.853 36.1602C29.0698 36.2208 30.2739 36.3733 31.4201 36.7736C32.3019 37.0821 33.1439 37.4911 33.8519 38.0976C34.7265 38.8463 35.4526 39.7093 35.7061 40.8375C35.9053 41.7231 35.793 42.593 35.4291 43.4387C34.9184 44.6241 34.0077 45.4368 32.885 46.0763C32.0249 46.565 31.1014 46.8718 30.1363 47.1196C29.2943 47.3362 28.4469 47.2981 27.7751 47.3691L27.7733 47.3639ZM27.6049 44.3295C28.0286 44.3433 28.4342 44.2809 28.8417 44.1752C29.8774 43.9083 30.7103 43.4023 31.1449 42.4284C31.3604 41.9449 31.3549 41.4388 31.1214 40.9553C30.5184 39.7041 29.3849 39.2068 28.0504 39.0612C26.9114 38.9364 25.8757 39.257 24.9414 39.8948C24.4543 40.2275 24.1627 40.7023 24.0088 41.2153C23.7843 41.9587 24.0342 42.6537 24.5846 43.2013C25.4013 44.0141 26.4515 44.3139 27.6049 44.3295Z" fill="#FDFDFD"/>
<path d="M30.2377 31.7918C30.2105 32.4018 30.3174 33.017 30.1761 33.6235C30.0512 34.159 29.8375 34.2977 29.2599 34.3739C28.608 34.4606 27.9598 34.542 27.2989 34.5351C26.6072 34.5281 26.1961 34.3063 26.1382 33.5542C26.044 32.3532 25.9499 31.1505 25.9644 29.9444C25.9644 29.9184 25.9644 29.8907 25.968 29.8647C25.9915 29.7278 25.9789 29.5614 26.14 29.499C26.3012 29.4366 26.3953 29.5753 26.4877 29.6671C27.1486 30.3343 28.1173 30.388 28.9213 30.0189C29.1621 29.908 29.3939 29.778 29.6293 29.655C29.9172 29.5042 30.0675 29.5649 30.1562 29.8577C30.3101 30.3638 30.2123 30.8819 30.2377 31.3932C30.2449 31.5266 30.2377 31.66 30.2377 31.7935V31.7918ZM29.1386 32.2701C29.2146 31.6774 28.4197 31.1731 27.8475 31.1713C27.3079 31.1713 26.7303 31.686 26.7448 32.173C26.7647 32.8194 27.3858 33.3324 27.9236 33.3532C28.465 33.374 29.2309 32.6773 29.1386 32.2701Z" fill="#FDFDFD"/>
<path d="M29.4279 23.0866C29.4587 23.6324 29.2849 24.1627 28.6439 24.3846C28.1495 24.5544 27.6226 24.5509 27.1391 24.291C27.0015 24.2165 26.9038 24.0951 26.8404 23.9496C26.4275 22.9878 26.4366 22.0312 26.8693 21.0798C27.0432 20.6968 27.6715 20.4767 28.2292 20.5616C28.8267 20.6534 29.1165 21.026 29.2486 21.5494C29.3718 22.0329 29.4297 22.5268 29.4315 23.0866H29.4279Z" fill="#FDFDFD"/>
<path d="M28.0285 25.5945C28.6804 25.598 29.1928 25.9446 29.4409 26.6395C29.6781 27.3032 29.6727 27.9808 29.3141 28.6186C29.019 29.1437 28.3382 29.4383 27.7044 29.3308C27.0073 29.2112 26.6125 28.8179 26.4822 28.1663C26.3681 27.6013 26.4532 27.0502 26.5818 26.5078C26.7248 25.8995 27.201 25.6257 28.0285 25.5928V25.5945Z" fill="#FDFDFD"/>
<path d="M29.0553 12.8641C29.0897 13.3389 29.0136 13.7843 28.7547 14.195C28.6623 14.3423 28.5356 14.4272 28.3672 14.4706C28.1209 14.5364 27.8674 14.5312 27.623 14.5C27.3514 14.4636 27.1812 14.2817 27.1105 14.0321C26.9458 13.4481 26.8607 12.8537 26.8715 12.2472C26.8752 11.9941 27.0852 11.7966 27.4093 11.781C27.7787 11.7619 28.1499 11.7671 28.5211 11.781C28.7891 11.7914 29.039 12.0461 29.0571 12.3095C29.0698 12.495 29.0589 12.6821 29.0589 12.8641H29.0553Z" fill="#FDFDFD"/>
<path d="M29.0712 17.6052C29.0712 18.002 29.1128 18.4058 28.91 18.7784C28.7815 19.0158 28.6076 19.1839 28.3052 19.1579C27.9829 19.1302 27.6624 19.0955 27.3419 19.0574C27.1609 19.0349 27.0196 18.9292 26.9798 18.7663C26.8132 18.1008 26.6991 17.4215 26.8729 16.7456C26.9997 16.2517 27.5628 15.886 28.0119 15.938C28.5515 16.0004 29.0549 16.5255 29.0712 17.0471C29.0766 17.2326 29.0712 17.4197 29.0712 17.6069V17.6052Z" fill="#FDFDFD"/>
<path d="M27.46 44.0976C26.5021 44.0508 25.4881 43.8273 24.7366 43.0283C24.2115 42.4703 24.0667 41.817 24.3238 41.0753C24.5664 40.3769 25.1314 40.0285 25.7561 39.7235C26.4405 39.3908 27.1702 39.2903 27.9326 39.3354C28.4667 39.3665 28.9773 39.4913 29.4608 39.6976C30.1724 40.0008 30.7138 40.4722 30.9384 41.2122C31.1882 42.0319 30.7627 42.8793 30.1054 43.3663C29.3359 43.9347 28.407 44.082 27.4581 44.0993L27.46 44.0976Z" fill="#070508"/>
<path d="M28.7472 32.2422C28.7472 32.6425 28.3724 32.9856 27.9324 32.9856C27.4924 32.9856 27.1248 32.6096 27.1284 32.1625C27.1303 31.8263 27.4725 31.5005 27.8256 31.5039C28.2221 31.5074 28.8233 31.8488 28.7472 32.2422Z" fill="#070508"/>
<path d="M54.3004 27.2284C54.5376 28.3584 54.2624 29.8816 54.0704 30.8712C52.5693 38.6107 48.354 42.9674 45.0204 45.2723C44.9752 45.3035 43.8272 45.943 43.8272 45.943C43.8272 45.943 41.5764 40.2848 42.681 37.7407C43.494 35.8639 49.0783 30.5783 49.8062 27.4069C50.1665 25.8403 53.8658 25.1575 54.3004 27.2267V27.2284Z" fill="#070508"/>
</g>
<defs>
<clipPath id="clip0_81_86">
<rect width="58.3416" height="50.007" fill="white"/>
</clipPath>
</defs>
</svg>
