<svg width="143" height="120" viewBox="0 0 143 120" fill="none" xmlns="http://www.w3.org/2000/svg">
<g clip-path="url(#clip0_87_45)">
<path d="M13.4561 81.6732C13.1889 80.5999 13.0665 79.6291 12.8519 78.6804C12.3981 76.6945 12.481 74.7069 12.6411 72.7002C12.7547 71.2754 12.9891 69.8676 13.2748 68.4633C13.5747 66.9868 14.1142 65.569 14.6983 64.1596C14.8802 63.7236 15.018 63.2653 15.1298 62.8124C15.2738 62.2314 15.1095 61.7132 14.823 61.1712C14.3036 60.1839 13.5096 59.3531 13.0589 58.3103C12.7453 57.5865 12.331 56.8484 11.9304 56.1354C11.4821 55.3349 11.0164 54.5102 10.6824 53.683C9.98098 51.9521 9.17942 50.2589 8.52102 48.5123C7.59683 46.0634 6.89179 43.5699 6.3635 41.0336C6.0318 39.4357 5.81153 37.8151 5.56976 36.2024C5.32005 34.5392 5.15595 32.8759 5.31827 31.1776C5.41158 30.1975 5.45859 29.2026 5.5601 28.2244C5.64315 27.4164 5.98688 26.6248 6.34269 25.8516C6.96683 24.4965 7.97429 23.4485 9.26638 22.5854C9.7915 22.2358 10.3111 22.2446 10.8466 22.5034C11.0665 22.6114 11.3227 22.7084 11.4672 22.8768C12.1208 23.6564 13.1016 23.6234 14.0321 23.7083C15.8223 23.875 17.6414 23.8659 19.3968 24.1993C20.6511 24.4369 21.892 24.75 23.114 25.1156C24.7085 25.5928 26.2103 26.2553 27.7405 26.8566C28.5982 27.1956 29.3609 27.7101 30.2306 28.0502C32.0948 28.7813 33.738 29.8315 35.3937 30.8687C36.7349 31.7096 38.1018 32.5106 39.3768 33.4344C40.2156 34.041 41.0189 34.6791 41.7721 35.369C42.2174 35.7746 42.6789 36.1664 43.2875 36.3723C43.8192 36.5486 44.3141 36.5347 44.8222 36.1954C45.6572 35.6405 46.6503 35.3448 47.5838 34.9607C48.4853 34.59 49.4097 34.2667 50.3379 33.9599C51.58 33.5477 52.8198 33.1255 54.0887 32.7946C56.054 32.2804 58.0315 31.7845 60.0261 31.3788C62.0765 30.9618 64.1449 30.555 66.2284 30.329C68.9186 30.0351 71.6075 29.6027 74.3322 29.7217C75.1424 29.7581 75.9585 29.4707 76.7592 29.6826C77.1204 29.7791 77.4394 29.7455 77.7841 29.6719C78.0069 29.6266 78.1914 29.5335 78.2915 29.3466C78.5782 28.8095 79.0388 28.3342 79.1754 27.7547C79.4624 26.5549 80.3261 25.5743 80.7603 24.4382C81.4269 22.6997 82.6297 21.2233 83.6576 19.6646C84.3839 18.5628 85.3004 17.5749 86.2147 16.5944C87.8644 14.8329 89.7535 13.2795 91.651 11.7451C92.3933 11.1431 93.3211 10.7185 94.097 10.127C95.4411 9.10418 96.8615 8.19078 98.397 7.40316C99.9391 6.61072 101.329 5.61679 102.493 4.39116C102.781 4.08984 103.132 3.87956 103.573 3.80035C104.107 3.70557 104.628 3.45391 105.146 3.42146C106.349 3.33989 107.439 3.65934 108.255 4.49961C109.004 5.27353 109.873 5.94002 110.562 6.77134C111.061 7.37411 111.415 8.03766 111.842 8.66547C113.17 10.6124 113.967 12.7646 114.806 14.9185C115.538 16.7959 115.971 18.7444 116.735 20.6083C117.136 21.5884 117.274 22.6602 117.443 23.7118C117.615 24.7767 117.763 25.8396 117.9 26.908C118.14 28.7292 118.23 30.5568 118.26 32.3964C118.294 34.4331 117.827 36.3913 117.407 38.3677C117.293 38.9112 117.045 39.4334 116.85 39.9623C116.643 40.5215 116.505 41.0976 116.258 41.6511C115.794 42.696 116.329 43.531 117.096 44.2319C117.556 44.6518 117.955 45.1084 118.367 45.5521C119.843 47.1358 120.994 48.9105 122.099 50.7189C122.681 51.6728 123.167 52.6355 123.518 53.6675C123.591 53.8782 123.674 54.0833 123.504 54.2566C123.347 54.4169 123.127 54.3403 122.909 54.3049C120.385 53.9161 118.929 54.462 117.322 56.371C115.906 58.0503 114.698 59.8711 113.483 61.6761C113.116 62.2191 112.603 62.6844 112.465 63.3924C112.239 64.5695 112.226 65.6615 112.845 66.7396C113.503 67.8894 114.644 68.6566 115.516 69.6347C116.044 70.2281 116.709 70.7243 116.998 71.4947C117.442 72.6743 116.35 73.5245 115.447 73.9092C114.488 74.316 113.544 74.7543 112.603 75.1886C111.763 75.5745 110.979 76.0323 110.306 76.6446C110.12 76.8143 110.012 77.0027 109.875 77.1832C109 78.3119 108.784 79.5354 109.105 80.8545C109.666 83.1622 110.144 85.4866 110.759 87.7798C111.07 88.9379 111.837 89.8713 113.091 90.4213C113.455 90.5797 113.419 90.8923 113.259 91.2232C112.823 92.1169 111.931 92.6452 111.186 93.2686C109.959 94.2919 108.746 95.3436 107.396 96.2426C106.08 97.1209 104.798 98.0269 103.415 98.8322C101.969 99.671 100.523 100.506 99.0512 101.302C98.136 101.797 97.1679 102.216 96.2187 102.665C94.6493 103.408 93.0542 104.107 91.4127 104.708C89.1371 105.542 86.8795 106.404 84.5095 107.018C82.5805 107.521 80.654 108.052 78.6994 108.446C77.2805 108.734 75.8613 109.072 74.3998 109.195C73.6442 109.259 72.8968 109.407 72.1566 109.537C70.296 109.867 68.4152 109.961 66.5353 110.077C64.8548 110.179 63.169 110.276 61.4883 110.277C60.0994 110.279 58.7162 110.106 57.3275 110.058C55.3045 109.995 53.3259 109.672 51.3339 109.425C48.3925 109.062 45.5483 108.367 42.7032 107.652C40.0656 106.991 37.5592 106.044 35.1314 104.983C32.261 103.728 29.5063 102.269 26.9969 100.462C25.0256 99.041 23.1475 97.5529 21.54 95.8086C20.2094 94.3652 18.9602 92.8707 17.8868 91.2466C17.3385 90.4179 16.7864 89.5899 16.2944 88.7359C14.99 86.458 13.8866 84.108 13.4561 81.6732ZM114.44 18.9171C114.228 18.2455 114.029 17.5642 113.814 16.8966C113.337 15.4081 112.967 13.8977 112.256 12.4741C111.891 11.7436 111.451 11.0488 111.14 10.2863C110.827 9.51384 110.204 8.84612 109.791 8.11472C109.04 6.78931 107.66 6.07787 106.57 5.08168C106.54 5.05309 106.458 5.06971 106.404 5.05304C105.451 4.75758 104.787 5.26047 104.218 5.80635C103.244 6.74699 102.143 7.61273 101.588 8.84634C101.393 9.27798 100.962 9.54613 100.692 9.92362C99.5237 11.563 98.7632 13.3657 98.049 15.1833C97.8121 15.7831 97.5849 16.3914 97.3726 16.9966C97.1835 17.5347 97.0327 18.1032 96.7326 18.6326C96.4713 19.0951 96.1941 19.606 96.1098 20.1263C95.9636 21.0303 95.5891 21.8732 95.2653 22.7163C94.7352 24.1078 94.3045 25.5243 94.0242 26.9518C93.8284 27.9596 93.7499 29.0025 93.5885 30.0242C93.5577 30.2247 93.4522 30.4058 93.4618 30.6294C93.4921 31.3067 94.0278 31.5169 94.6005 31.7023C95.6047 32.0185 96.6242 32.3004 97.6145 32.6402C98.9132 33.0839 100.209 33.5316 101.488 34.0243C102.767 34.5171 104.076 34.9725 105.267 35.6045C107.205 36.6329 109.246 37.505 111.022 38.7884C112.043 39.5245 113.133 40.191 114.096 40.9944C114.463 41.3013 115.005 41.219 115.146 40.7913C115.324 40.2555 115.495 39.7072 115.648 39.166C116.022 37.8581 115.835 36.5258 116.175 35.2215C116.529 33.8588 116.294 32.4564 116.245 31.0681C116.226 30.5411 115.997 30.043 116.046 29.523C116.14 28.5462 116.055 27.5712 115.964 26.6182C115.803 24.9649 115.223 23.3723 115.031 21.7044C114.924 20.7825 114.764 19.8192 114.431 18.9153L114.44 18.9171ZM7.13861 39.9739C7.15585 40.2965 7.37722 40.5603 7.44785 40.8616C7.93717 42.9826 8.48143 45.089 9.1772 47.161C9.49903 48.1191 9.84687 49.0719 10.1576 50.0322C10.3724 50.6997 10.5993 51.3857 10.9226 52.0346C11.3385 52.8626 11.7612 53.703 12.0671 54.5602C12.5268 55.8406 13.2984 56.9743 13.8484 58.2087C14.203 59.0074 14.792 59.7272 15.1793 60.5332C15.2561 60.6945 15.2189 60.9346 15.5418 60.9175C15.8074 60.9051 16.0183 60.7754 16.0796 60.5721C16.1936 60.1951 16.4728 59.8919 16.6018 59.5292C16.9708 58.4965 17.6604 57.6034 18.217 56.6575C18.8871 55.515 19.7413 54.4774 20.6127 53.4466C21.3627 52.562 22.0265 51.6082 22.8627 50.7928C24.0449 49.6433 25.2299 48.4898 26.4496 47.3674C27.4582 46.4406 28.6133 45.6575 29.6062 44.7131C29.9432 44.3912 30.4358 44.1349 30.8211 43.8033C31.1578 43.5128 31.3371 43.1987 31.1611 42.78C30.7736 41.8735 30.019 41.1943 29.3813 40.4496C28.8883 39.8734 28.3412 39.3323 27.8303 38.7632C27.2607 38.1261 26.7279 37.4469 26.0603 36.9061C25.1391 36.1636 24.3619 35.3051 23.4932 34.5207C22.4667 33.595 21.5503 32.574 20.3969 31.7538C19.8228 31.3467 19.3231 30.8585 18.7592 30.4284C17.8077 29.706 16.9823 28.8573 16.0676 28.0927C15.0268 27.2219 14.0569 26.2881 12.9711 25.4576C12.156 24.8358 11.3475 24.2092 10.378 23.7749C9.88681 23.5556 9.44523 23.6142 8.98075 23.9238C8.67084 24.1291 8.47397 24.4016 8.23142 24.6452C6.99733 25.8885 6.60038 27.416 6.33859 28.9889C6.21047 29.754 6.53635 30.5135 6.36642 31.2662C6.19789 32.0083 6.25643 32.7562 6.26791 33.486C6.30606 35.6744 6.84909 37.8088 7.13783 39.9706L7.13861 39.9739ZM93.8214 75.4175C95.472 75.1546 97.1588 74.6138 98.8247 74.0009C100.763 73.2875 102.595 72.4048 104.332 71.3473C105.384 70.7065 106.416 70.0282 107.335 69.2481C108.938 67.888 110.11 66.2133 111.254 64.5372C111.478 64.2108 111.676 63.8617 111.813 63.5007C112.451 61.7888 112.679 60.0216 112.758 58.2326C112.87 55.6249 112.524 53.0828 111.705 50.5848C111.314 49.3979 110.588 48.758 109.181 48.6173C107.799 48.4821 106.422 48.5332 105.07 48.725C102.511 49.0823 100.012 49.6773 97.6657 50.7582C96.563 51.2669 95.4537 51.7806 94.4647 52.4258C93.0903 53.3194 91.7921 54.3225 90.6719 55.4871C89.9496 56.2412 89.0836 56.8961 88.5277 57.7621C88.1456 58.3567 87.75 58.9437 87.3072 59.4953C85.7538 61.435 84.8387 63.5744 84.5263 65.9279C84.4228 66.6983 84.4198 67.4657 84.3698 68.2322C84.2345 70.2617 84.3527 72.2604 84.9253 74.2222C85.1115 74.8505 85.3536 75.4847 86.1128 75.7189C86.7295 75.9092 87.3811 76.0161 88.0416 76.0448C89.959 76.1232 91.8383 75.8729 93.8214 75.4175ZM52.8606 83.2452C53.6592 83.0828 54.4685 82.9494 55.2586 82.7506C56.7913 82.366 58.2359 81.805 59.4932 80.8936C60.4816 80.1791 60.8056 79.2701 60.583 78.1877C60.4212 77.381 60.0552 76.6332 59.7413 75.8747C59.0281 74.1601 58.1385 72.523 57.0154 70.9854C55.7316 69.2272 54.1358 67.765 52.1879 66.6103C50.0874 65.3686 47.8157 64.4429 45.4093 63.7561C43.1775 63.1171 40.9146 62.644 38.5478 62.5911C35.7812 62.5258 33.0474 62.7002 30.3627 63.4162C28.9127 63.8048 27.5379 64.3481 26.2631 65.0688C25.3081 65.61 24.4437 66.2889 24.377 67.3988C24.3454 67.9118 24.4487 68.4355 24.537 68.945C24.8476 70.7519 25.5444 72.4629 26.1557 74.1913C26.5214 75.2202 27.0075 76.2316 27.6728 77.1441C28.4301 78.1836 29.2829 79.1655 30.3423 79.9666C31.4678 80.8168 32.5926 81.6809 33.9299 82.2728C34.8935 82.6979 35.8871 83.0023 36.9733 83.17C37.9543 83.3209 38.9173 83.6108 39.913 83.7414C44.2491 84.3097 48.5735 84.2143 52.8673 83.2404L52.8606 83.2452ZM78.0626 103.753C78.6324 103.644 79.3507 103.404 80.0838 103.244C82.0463 102.817 83.8128 101.986 85.4926 101.034C87.883 99.6769 89.9352 97.9724 91.2957 95.7076C92.3068 94.0274 93.0066 92.2648 92.8346 90.3187C92.6166 87.8441 91.4174 85.8328 89.3891 84.2018C88.6599 83.6145 87.7572 83.2499 86.9552 82.7504C85.9758 82.1412 84.7771 81.9582 83.658 81.6168C81.4572 80.9437 79.1762 80.8248 76.8941 80.9177C74.4886 81.0149 72.1201 81.4029 69.8216 82.1896C67.13 83.1083 64.6622 84.318 62.4874 86.0475C60.5587 87.5813 59.1448 89.4024 58.3363 91.5653C57.1687 94.6859 58.2588 98.3744 60.7546 100.538C61.0136 100.763 61.3426 100.922 61.6207 101.129C63.193 102.308 64.9668 103.169 66.9404 103.669C70.5489 104.587 74.2085 104.543 78.0604 103.76L78.0626 103.753ZM76.7949 72.5242C76.5473 71.4678 76.3675 70.6509 76.1654 69.8384C76.0076 69.2148 75.7651 68.6118 75.4551 68.0365C75.2057 67.5703 74.6638 67.4827 74.282 67.8796C73.8693 68.3105 73.3836 68.6625 72.9146 69.0355C71.777 69.9434 70.5113 70.4541 68.9529 70.098C68.3405 69.9588 67.8372 69.6379 67.2798 69.4182C66.5035 69.1112 66.0921 69.3649 66.1486 70.1375C66.1839 70.6369 66.22 71.1395 66.3624 71.631C66.829 73.2397 67.291 74.8458 67.7241 76.4612C67.9156 77.1786 68.2946 77.8163 68.6277 78.4737C68.8652 78.9389 69.2852 79.2698 69.8818 79.3913C70.5471 79.5232 71.2087 79.4406 71.8393 79.2916C73.0825 79.0006 74.3112 78.6639 75.5274 78.2743C76.711 77.8948 77.3667 77.189 77.4207 76.0747C77.4833 74.7643 76.9952 73.5452 76.7994 72.5268L76.7949 72.5242ZM68.6933 59.8913C70.4382 59.7481 71.5027 58.0466 71.3673 56.9708C71.165 55.3605 70.7675 53.8141 69.6382 52.4825C68.9335 51.6509 68.0505 51.2372 66.9045 51.3453C65.4877 51.4774 64.4825 52.1363 64.0047 53.3854C63.6547 54.2997 63.8183 55.2136 63.9528 56.1195C64.1372 57.338 64.5856 58.4542 65.5636 59.3725C66.4754 60.2244 67.5538 60.1265 68.6896 59.8921L68.6933 59.8913ZM73.5507 64.5934C73.2513 63.5649 72.8527 62.5947 71.9227 61.8644C69.6083 60.0591 66.8404 61.4166 66.0851 63.0586C65.7759 63.7322 65.833 64.4075 65.9044 65.0939C65.9935 65.9223 66.0896 66.7806 66.445 67.5167C67.2195 69.1113 69.5769 69.8878 71.4652 68.9451C72.5594 68.3999 73.5344 67.6951 73.6438 66.4515C73.7003 65.8294 73.7137 65.2056 73.5462 64.5909L73.5507 64.5934ZM65.8139 36.6967C65.7309 36.3423 65.6908 35.9723 65.5566 35.6318C65.2561 34.881 64.7276 34.4195 63.8119 34.4809C62.9914 34.5332 62.2052 34.7487 61.4119 34.917C60.3704 35.1392 59.863 36.0126 60.1888 36.9213C60.2929 37.2159 60.3502 37.5269 60.4476 37.8263C60.7 38.6042 60.9858 39.3752 61.4391 40.081C61.6968 40.4831 62.0495 40.7757 62.5585 40.922C64.0222 41.339 65.9177 40.4435 66.0528 38.8616C66.1172 38.1234 66.0158 37.4085 65.8155 36.7033L65.8139 36.6967ZM67.93 45.8249C67.8267 45.3844 67.7413 44.9369 67.6158 44.501C67.3018 43.4268 65.6496 42.5208 64.4369 42.7431C63.2644 42.9538 62.2338 44.0031 62.1768 45.1214C62.1003 46.6046 62.7137 47.9267 63.4168 49.2166C63.6972 49.732 64.2303 49.8318 64.7956 49.7862C65.4144 49.7367 66.0314 49.6459 66.6407 49.5393C67.6796 49.3558 68.0676 48.9195 68.2209 47.9793C68.3439 47.2257 68.0842 46.5325 67.9329 45.8208L67.93 45.8249Z" fill="#070508"/>
<path d="M114.44 18.917C114.772 19.8209 114.932 20.7842 115.039 21.7061C115.232 23.374 115.815 24.9659 115.973 26.6199C116.064 27.5729 116.149 28.5513 116.054 29.5247C116.004 30.0415 116.235 30.5428 116.253 31.0699C116.302 32.4581 116.541 33.8598 116.183 35.2232C115.844 36.5309 116.032 37.8632 115.656 39.1677C115.503 39.7089 115.331 40.2539 115.154 40.793C115.013 41.2207 114.472 41.303 114.104 40.9961C113.141 40.1894 112.051 39.5262 111.03 38.7901C109.255 37.5067 107.213 36.6347 105.276 35.6063C104.085 34.9775 102.775 34.5188 101.496 34.0261C100.217 33.5333 98.9216 33.0856 97.6229 32.6419C96.6289 32.3028 95.6094 32.021 94.609 31.704C94.0333 31.5227 93.5013 31.3117 93.4702 30.6311C93.4606 30.4075 93.5631 30.2305 93.5969 30.0259C93.7575 29.001 93.8368 27.9613 94.0326 26.9535C94.3129 25.526 94.74 24.1103 95.2737 22.718C95.5968 21.8717 95.9758 21.0313 96.1182 20.128C96.2025 19.6078 96.4797 19.0969 96.741 18.6343C97.0411 18.1049 97.1957 17.5357 97.3811 16.9983C97.5926 16.3898 97.8205 15.7848 98.0574 15.185C98.7724 13.3707 99.5329 11.568 100.701 9.92535C100.97 9.54786 101.401 9.27639 101.596 8.84807C102.152 7.61445 103.252 6.74871 104.227 5.80808C104.791 5.25964 105.46 4.75931 106.412 5.05476C106.467 5.07144 106.548 5.0515 106.578 5.0834C107.664 6.08035 109.049 6.79103 109.799 8.11644C110.212 8.84785 110.835 9.51557 111.149 10.288C111.46 11.0505 111.899 11.7453 112.265 12.4758C112.976 13.8994 113.345 15.4099 113.823 16.8984C114.038 17.5659 114.236 18.2472 114.448 18.9188L114.44 18.917Z" fill="#FAC1E4"/>
<path d="M7.13882 39.9735C6.85009 37.8118 6.30627 35.6741 6.2689 33.4889C6.25743 32.7592 6.19966 32.0146 6.36742 31.2692C6.53734 30.5165 6.21146 29.757 6.33958 28.9919C6.60215 27.4223 6.99832 25.8915 8.23242 24.6482C8.47497 24.4046 8.67183 24.1321 8.98174 23.9268C9.44622 23.6172 9.8878 23.5586 10.3789 23.7779C11.3448 24.2129 12.1525 24.8363 12.972 25.4606C14.0578 26.2911 15.0278 27.2249 16.0685 28.0957C16.9833 28.8603 17.8087 29.709 18.7602 30.4314C19.3233 30.8581 19.823 31.3463 20.3979 31.7568C21.5513 32.5769 22.467 33.5946 23.4941 34.5237C24.3629 35.3081 25.1393 36.1633 26.0612 36.9091C26.7326 37.4491 27.2654 38.1283 27.8313 38.7661C28.3385 39.3361 28.8893 39.8763 29.3823 40.4526C30.02 41.1973 30.7746 41.8765 31.1621 42.783C31.3418 43.201 31.1588 43.5158 30.8221 43.8063C30.4368 44.1379 29.9442 44.3942 29.6072 44.7161C28.6151 45.6638 27.4629 46.4429 26.4506 47.3704C25.2264 48.4902 24.0451 49.643 22.8637 50.7958C22.0274 51.6112 21.3637 52.565 20.6137 53.4496C19.7415 54.477 18.8844 55.5188 18.218 56.6605C17.6622 57.6097 16.9762 58.5021 16.6028 59.5321C16.473 59.8916 16.1946 60.1981 16.0806 60.5751C16.0193 60.7784 15.8084 60.9081 15.5428 60.9204C15.2199 60.9375 15.2571 60.6975 15.1803 60.5362C14.7937 59.7335 14.2085 59.013 13.8494 58.2116C13.2994 56.9773 12.527 55.8403 12.0681 54.5631C11.7622 53.7059 11.3395 52.8655 10.9236 52.0376C10.6011 51.392 10.3734 50.7027 10.1585 50.0352C9.84786 49.0748 9.50003 48.1221 9.1782 47.164C8.48164 45.0886 7.93816 42.9856 7.44884 40.8646C7.37744 40.5599 7.15684 40.2995 7.1396 39.9769L7.13882 39.9735Z" fill="#FAC1E4"/>
<path d="M103.093 49.6057C105.058 49.0709 107.121 49.0399 109.164 49.1099C109.792 49.1314 110.487 49.5244 110.792 50.1944C111.556 51.8605 111.884 53.6084 112.073 55.3949C112.198 56.5908 112.242 57.7927 112.113 58.9848C111.869 61.182 111.483 63.37 110.004 65.2633C109.244 66.2367 108.54 67.2508 107.685 68.1533C106.749 69.1416 105.529 69.8617 104.377 70.6408C102.764 71.7286 100.918 72.4371 99.1317 73.2341C98.0955 73.6947 96.9535 73.9859 95.839 74.2785C94.5115 74.6249 93.1918 75.0216 91.8233 75.2098C90.1983 75.4327 88.5732 75.7216 86.927 75.3729C86.0834 75.194 85.6552 74.8613 85.4597 74.11C84.8391 71.7278 84.9008 69.3178 85.0649 66.88C85.2645 63.9458 86.5059 61.3722 88.2505 58.953C89.2437 57.5783 90.4668 56.3546 91.7904 55.211C92.7804 54.3539 93.7118 53.4463 94.8753 52.7656C96.4505 51.8484 98.1295 51.1253 99.8592 50.4855C100.89 50.1024 101.946 49.7905 103.093 49.6197L103.093 49.6057Z" fill="#FDFDFD"/>
<path d="M52.4247 82.8932C49.6519 83.5821 46.5253 83.6247 43.3996 83.6046C41.5125 83.5895 39.5955 83.4797 37.8143 83.0197C34.6258 82.2006 31.7022 80.9008 29.4817 78.5664C28.3192 77.3422 27.6016 75.9407 26.9704 74.4765C26.1003 72.4573 25.4803 70.3768 25.0006 68.2469C24.7488 67.1393 25.3197 66.4368 26.1316 65.7998C27.2951 64.8866 28.7713 64.51 30.1928 64.0995C33.9547 63.0152 37.8075 62.8665 41.6498 63.4035C43.7219 63.6933 45.7101 64.3228 47.6582 65.0299C48.7891 65.4383 49.8833 65.9062 50.9262 66.4539C52.893 67.4903 54.6337 68.7739 55.9904 70.4444C57.1759 71.8999 58.1037 73.4841 58.8203 75.1634C59.2863 76.2552 59.6745 77.3801 60.0426 78.5023C60.3041 79.3026 59.9465 79.9686 59.2512 80.5055C57.9331 81.5231 56.3352 82.0111 54.712 82.4245C54.0549 82.5929 53.3801 82.7024 52.4217 82.8973L52.4247 82.8932Z" fill="#FDFDFD"/>
<path d="M78.1862 103.266C75.5379 103.822 73.224 103.928 70.8863 103.883C67.9225 103.823 65.271 102.954 62.8961 101.522C59.9957 99.7731 58.2098 97.3503 58.3285 94.0544C58.3791 92.6597 58.8078 91.3339 59.5199 90.0719C60.4099 88.4892 61.6884 87.2195 63.1711 86.0575C65.1149 84.538 67.351 83.5351 69.7404 82.7715C70.9174 82.3968 72.0965 82.0148 73.3317 81.8225C75.855 81.4308 78.3935 81.2198 80.924 81.5066C82.8711 81.7281 84.7815 82.1584 86.5056 83.0221C88.635 84.0879 90.511 85.4341 91.5363 87.4843C92.3415 89.0934 92.5009 90.8028 92.133 92.5707C91.6164 95.0489 90.1121 96.9821 88.0955 98.6725C86.55 99.9653 84.793 100.937 82.9242 101.813C81.2939 102.578 79.5385 102.859 78.1922 103.275L78.1862 103.266ZM76.4817 97.5373C77.3571 97.387 78.1612 97.0986 78.9496 96.7266C80.9548 95.7845 82.4368 94.4699 82.892 92.4274C83.1175 91.4136 82.8797 90.4488 82.184 89.6223C80.3867 87.4829 77.8387 87.0053 75.0359 87.2839C72.6436 87.5207 70.6625 88.5655 69.0315 90.174C68.1813 91.0131 67.7959 92.0421 67.7099 93.0866C67.5823 94.601 68.4062 95.8247 69.7806 96.6415C71.8199 97.854 74.1086 97.9887 76.4817 97.5373Z" fill="#FDFDFD"/>
<path d="M76.267 72.4788C76.4845 73.6559 76.9791 74.7869 76.9611 76.005C76.9446 77.0804 76.5684 77.4345 75.4176 77.8212C74.1192 78.2587 72.8259 78.6848 71.467 78.9473C70.045 79.2227 69.1024 78.9703 68.6467 77.5572C67.9157 75.3015 67.1839 73.0424 66.6734 70.7315C66.6617 70.6818 66.6493 70.6288 66.6451 70.5776C66.6321 70.3062 66.5316 69.9935 66.8342 69.8071C67.1369 69.6206 67.3921 69.8463 67.6227 69.9833C69.2773 70.9825 71.2886 70.681 72.7725 69.6402C73.2169 69.3278 73.6341 68.9827 74.0619 68.6493C74.585 68.2411 74.9204 68.2943 75.2336 68.817C75.776 69.7198 75.8075 70.7507 76.0884 71.7171C76.1631 71.9691 76.208 72.2271 76.2677 72.4821L76.267 72.4788ZM74.2265 73.8514C74.117 72.6871 72.2605 72.055 71.086 72.2904C69.979 72.5156 69.0246 73.7401 69.2725 74.6647C69.6028 75.8916 71.1067 76.6128 72.2192 76.4281C73.3391 76.242 74.5983 74.5911 74.2265 73.8514Z" fill="#FDFDFD"/>
<path d="M70.7082 56.1818C71.0159 57.2121 70.8968 58.298 69.6812 58.9894C68.7432 59.5202 67.6608 59.7334 66.5526 59.4383C66.2369 59.3533 65.982 59.1623 65.7868 58.9106C64.5091 57.2448 64.0992 55.413 64.5609 53.4143C64.7459 52.6099 65.9363 51.9272 67.1184 51.8568C68.3853 51.783 69.1465 52.3741 69.6521 53.3191C70.1212 54.1917 70.4613 55.1114 70.7157 56.1803L70.7082 56.1818Z" fill="#FDFDFD"/>
<path d="M68.9599 61.5581C70.2986 61.2927 71.5051 61.7413 72.3252 62.9658C73.1091 64.1352 73.4014 65.4323 72.9516 66.8006C72.5813 67.9272 71.3166 68.7742 69.9684 68.8333C68.4847 68.8957 67.4988 68.3086 66.9395 67.1178C66.4525 66.0858 66.3802 64.9972 66.401 63.907C66.422 62.6849 67.2763 61.9629 68.9591 61.5548L68.9599 61.5581Z" fill="#FDFDFD"/>
<path d="M65.3643 36.8018C65.6476 37.6948 65.691 38.5776 65.3438 39.4705C65.2204 39.7906 64.9984 40.0057 64.6723 40.1588C64.1967 40.3874 63.6743 40.4832 63.1589 40.5256C62.5854 40.5693 62.1547 40.2926 61.8981 39.8452C61.2985 38.7979 60.8577 37.6975 60.6083 36.5339C60.5024 36.0489 60.8448 35.5837 61.5028 35.4187C62.252 35.2281 63.0158 35.0832 63.7835 34.9548C64.3379 34.8629 64.9645 35.2454 65.1197 35.7413C65.2287 36.0903 65.2903 36.4525 65.3718 36.8002L65.3643 36.8018Z" fill="#FDFDFD"/>
<path d="M67.5213 45.8557C67.6991 46.6141 67.9653 47.3684 67.7162 48.165C67.5588 48.6723 67.2775 49.0661 66.6455 49.1426C65.9719 49.2241 65.2989 49.2915 64.6244 49.3524C64.2429 49.3849 63.9058 49.2418 63.7511 48.9471C63.1113 47.745 62.5731 46.4944 62.6269 45.1303C62.6658 44.1336 63.6572 43.1999 64.6017 43.1118C65.7365 43.0059 67.0043 43.7994 67.2714 44.7894C67.3656 45.1415 67.4383 45.5014 67.5221 45.859L67.5213 45.8557Z" fill="#FDFDFD"/>
<path d="M76.0808 97.1538C74.0949 97.464 71.9147 97.4599 70.0153 96.2467C68.6882 95.3994 68.0984 94.2114 68.2937 92.6867C68.4787 91.2509 69.4816 90.3495 70.6265 89.506C71.8815 88.5846 73.3334 88.0881 74.9174 87.8561C76.0271 87.6929 77.1305 87.7183 78.2147 87.9106C79.8103 88.1933 81.132 88.8682 81.924 90.1886C82.8038 91.6507 82.3104 93.4477 81.1802 94.6525C79.8561 96.0598 78.0165 96.7289 76.0779 97.1579L76.0808 97.1538Z" fill="#070508"/>
<path d="M73.4117 73.9616C73.591 74.7266 72.9758 75.5387 72.0732 75.7223C71.1705 75.9058 70.2481 75.3406 70.0553 74.4846C69.9084 73.8414 70.4645 73.076 71.1904 72.9353C72.0054 72.7765 73.3915 73.1781 73.4117 73.9616Z" fill="#070508"/>
<path d="M123.585 53.7197C124.578 55.7799 124.696 58.8057 124.745 60.7768C125.132 76.1931 118.436 86.2774 112.63 92.0728C112.551 92.1513 110.483 93.8522 110.483 93.8522C110.483 93.8522 103.331 83.9786 104.458 78.6562C105.285 74.7305 114.373 62.2999 114.446 55.9359C114.484 52.7918 121.766 49.9435 123.585 53.7164L123.585 53.7197Z" fill="#070508"/>
</g>
<defs>
<clipPath id="clip0_87_45">
<rect width="122.131" height="98.1516" fill="white" transform="matrix(0.979937 -0.199305 0.228188 0.973617 0 24.3414)"/>
</clipPath>
</defs>
</svg>
