<svg width="269" height="46" viewBox="0 0 269 46" fill="none" xmlns="http://www.w3.org/2000/svg">
<path d="M256.576 44.0392C259.168 44.0392 260.916 41.7369 260.916 39.0213C260.916 31.3469 243.797 32.3505 243.797 22.4327C243.797 16.8835 249.524 14.7583 255.25 14.7583C262.544 14.7583 262.966 17.9461 266.944 16.3522C268.15 19.0088 266.522 21.6063 263.629 21.6063C259.65 21.6063 259.108 16.1751 255.491 16.1751C252.96 16.1751 251.031 18.1232 251.031 20.4256C251.031 27.3326 268.15 25.9158 268.15 36.9551C268.15 43.0356 261.218 45.456 256.395 45.456C249.102 45.456 247.896 42.2682 243.918 43.8621C242.712 41.2056 244.34 38.6081 247.233 38.6081C251.212 38.6081 252.538 44.0392 256.576 44.0392Z" fill="black"/>
<path d="M228.128 44.8659V7.85154C228.128 6.31665 227.224 5.31307 225.657 5.31307H224.511V4.13239C228.007 4.13239 232.227 3.30591 235.06 0V41.1468C235.06 42.6817 235.964 43.6852 237.531 43.6852H238.676V44.8659H228.128ZM228.128 44.8659H224.511V43.6852H225.657C227.224 43.6852 228.128 42.6817 228.128 41.1468V44.8659Z" fill="black"/>
<path d="M220.931 27.1555V28.2771H199.532C200.015 33.8854 203.149 42.2682 212.07 42.2682C215.627 42.2682 218.339 39.6707 220.328 37.0732L221.534 37.9587C218.821 41.6188 215.084 45.456 207.911 45.456C199.291 45.456 192.239 38.549 192.239 30.1072C192.239 21.6653 199.291 14.7583 207.911 14.7583C215.144 14.7583 220.931 20.2485 220.931 27.1555ZM199.472 27.1555H212.974C212.974 21.5472 210.744 16.1751 205.681 16.1751C200.678 16.1751 199.472 23.2002 199.472 26.9193C199.472 26.9784 199.472 27.0964 199.472 27.1555Z" fill="black"/>
<path d="M178.677 44.8659V35.9518C177.17 41.501 172.95 45.4563 167.585 45.4563C160.051 45.4563 154.565 39.0215 154.565 31.3471C154.565 21.6655 160.653 14.7585 169.153 14.7585C173.613 14.7585 176.928 17.1199 178.677 21.1932V7.85154C178.677 6.31665 177.772 5.31307 176.205 5.31307H175.06V4.13239C178.556 4.13239 182.775 3.30591 185.608 0V41.1468C185.608 42.6817 186.513 43.6852 188.08 43.6852H189.225V44.8659H178.677ZM178.677 26.3292C178.677 22.6691 176.326 17.238 171.262 17.238C165.476 17.238 162.221 24.4401 162.221 30.5206C162.221 36.6011 165.054 42.3275 170.117 42.3275C175.904 42.3275 178.677 34.8301 178.677 29.399V26.3292Z" fill="black"/>
<path d="M118.422 30.1072C118.422 21.6653 125.475 14.7583 134.095 14.7583C142.714 14.7583 149.767 21.6653 149.767 30.1072C149.767 38.549 142.714 45.456 134.095 45.456C125.475 45.456 118.422 38.549 118.422 30.1072ZM125.656 26.6242C125.656 32.0553 129.212 44.0392 136.325 44.0392C141.207 44.0392 142.533 37.2503 142.533 33.5902C142.533 28.159 138.977 16.1751 131.864 16.1751C126.982 16.1751 125.656 22.964 125.656 26.6242Z" fill="black"/>
<path d="M69.0603 25.6206V41.1465C69.0603 42.6814 69.9645 43.685 71.5317 43.685H72.677V44.8657H58.5117V43.685H59.657C61.2242 43.685 62.1284 42.6814 62.1284 41.1465V22.6098C62.1284 21.075 61.2242 20.0714 59.657 20.0714H58.5117V18.8907C62.0078 18.8907 66.2273 18.0642 69.0603 14.7583V20.6027C70.8686 17.1787 74.5456 14.7583 78.9459 14.7583C84.0695 14.7583 87.9273 17.2968 89.4945 21.5472C91.122 17.651 95.04 14.7583 99.802 14.7583C106.613 14.7583 111.134 19.3039 111.134 26.27V41.1465C111.134 42.6814 112.038 43.685 113.606 43.685H114.751V44.8657H100.586V43.685H101.731C103.298 43.685 104.202 42.6814 104.202 41.1465V29.753C104.202 21.6653 101.851 17.0606 96.9086 17.0606C94.4975 17.0606 90.8808 19.3039 90.0972 23.7905C90.2178 24.558 90.2781 25.3844 90.2781 26.27V41.1465C90.2781 42.6814 91.1822 43.685 92.7495 43.685H93.8947V44.8657H79.7295V43.685H80.8747C82.442 43.685 83.3461 42.6814 83.3461 41.1465V29.753C83.3461 21.6653 80.9953 17.0606 76.0525 17.0606C73.34 17.0606 69.0603 19.8943 69.0603 25.6206Z" fill="black"/>
<path d="M38.4834 31.3473V26.7427H53.0706V31.3473H38.4834Z" fill="black"/>
<path d="M0 3.54199H14.7681V4.72268H13.6228C12.0556 4.72268 11.1514 5.72625 11.1514 7.26114V24.4991L23.9303 7.02501C24.8344 5.66722 24.5933 4.72268 23.1467 4.72268H22.4233V3.54199H31.043V4.72268H29.958C28.0894 4.72268 26.4619 5.60819 25.2564 7.08404L17.2997 17.9463L29.1744 41.4419C30.0183 42.7997 31.3444 43.6852 32.7911 43.6852H34.2378V44.8659H19.4697V43.6852H20.3136C21.7603 43.6852 22.2425 42.7997 21.6397 41.4419L12.8994 24.0268L11.1514 26.3882V41.1467C11.1514 42.6816 12.0556 43.6852 13.6228 43.6852H14.7681V44.8659H0V43.6852H1.14528C2.7125 43.6852 3.61666 42.6816 3.61666 41.1467V7.26114C3.61666 5.72625 2.7125 4.72268 1.14528 4.72268H0V3.54199ZM23.7494 7.26114L23.8097 7.20211V7.14307L23.7494 7.26114Z" fill="black"/>
</svg>
