<svg width="1024" height="1024" viewBox="0 0 1024 1024" fill="none" xmlns="http://www.w3.org/2000/svg">
<g filter="url(#filter0_f_82_136)">
<circle cx="512" cy="512" r="262" fill="#FAC1E4"/>
</g>
<path d="M853.625 401.197C860.581 401.197 865.273 395.018 865.273 387.73C865.273 367.132 819.327 369.826 819.327 343.208C819.327 328.314 834.696 322.61 850.065 322.61C869.641 322.61 870.773 331.166 881.451 326.888C884.686 334.018 880.318 340.99 872.553 340.99C861.875 340.99 860.419 326.413 850.713 326.413C843.918 326.413 838.741 331.642 838.741 337.821C838.741 356.358 884.686 352.556 884.686 382.184C884.686 398.504 866.082 405 853.139 405C833.564 405 830.328 396.444 819.651 400.722C816.415 393.592 820.783 386.621 828.549 386.621C839.226 386.621 842.785 401.197 853.625 401.197Z" fill="black"/>
<path d="M777.272 403.416V304.073C777.272 299.953 774.845 297.26 770.639 297.26H767.565V294.091C776.948 294.091 788.273 291.873 795.876 283V393.434C795.876 397.553 798.303 400.247 802.509 400.247H805.583V403.416H777.272ZM777.272 403.416H767.565V400.247H770.639C774.845 400.247 777.272 397.553 777.272 393.434V403.416Z" fill="black"/>
<path d="M757.957 355.883V358.893H700.525C701.819 373.945 710.232 396.444 734.175 396.444C743.72 396.444 751 389.473 756.339 382.501L759.574 384.878C752.294 394.701 742.264 405 723.012 405C699.878 405 680.95 386.462 680.95 363.805C680.95 341.148 699.878 322.61 723.012 322.61C742.426 322.61 757.957 337.345 757.957 355.883ZM700.363 355.883H736.602C736.602 340.831 730.616 326.413 717.027 326.413C703.599 326.413 700.363 345.267 700.363 355.249C700.363 355.408 700.363 355.725 700.363 355.883Z" fill="black"/>
<path d="M644.549 403.416V379.491C640.505 394.384 629.18 405 614.782 405C594.559 405 579.837 387.73 579.837 367.132C579.837 341.148 596.177 322.61 618.988 322.61C630.96 322.61 639.858 328.948 644.549 339.881V304.073C644.549 299.953 642.122 297.26 637.916 297.26H634.842V294.091C644.226 294.091 655.55 291.873 663.154 283V393.434C663.154 397.553 665.58 400.247 669.787 400.247H672.86V403.416H644.549ZM644.549 353.665C644.549 343.842 638.24 329.265 624.65 329.265C609.119 329.265 600.383 348.595 600.383 364.914C600.383 381.234 607.987 396.603 621.576 396.603C637.107 396.603 644.549 376.481 644.549 361.904V353.665Z" fill="black"/>
<path d="M482.833 363.805C482.833 341.148 501.761 322.61 524.896 322.61C548.03 322.61 566.958 341.148 566.958 363.805C566.958 386.462 548.03 405 524.896 405C501.761 405 482.833 386.462 482.833 363.805ZM502.247 354.457C502.247 369.034 511.792 401.197 530.881 401.197C543.986 401.197 547.545 382.977 547.545 373.153C547.545 358.577 538 326.413 518.91 326.413C505.806 326.413 502.247 344.634 502.247 354.457Z" fill="black"/>
<path d="M350.351 351.764V393.434C350.351 397.553 352.778 400.247 356.984 400.247H360.058V403.416H322.04V400.247H325.113C329.32 400.247 331.746 397.553 331.746 393.434V343.683C331.746 339.564 329.32 336.87 325.113 336.87H322.04V333.701C331.423 333.701 342.747 331.483 350.351 322.61V338.296C355.204 329.106 365.073 322.61 376.883 322.61C390.634 322.61 400.988 329.423 405.194 340.831C409.562 330.374 420.078 322.61 432.858 322.61C451.139 322.61 463.273 334.81 463.273 353.506V393.434C463.273 397.553 465.7 400.247 469.906 400.247H472.98V403.416H434.962V400.247H438.035C442.242 400.247 444.668 397.553 444.668 393.434V362.855C444.668 341.148 438.359 328.79 425.093 328.79C418.622 328.79 408.915 334.81 406.812 346.852C407.135 348.912 407.297 351.13 407.297 353.506V393.434C407.297 397.553 409.724 400.247 413.93 400.247H417.004V403.416H378.986V400.247H382.06C386.266 400.247 388.693 397.553 388.693 393.434V362.855C388.693 341.148 382.383 328.79 369.117 328.79C361.837 328.79 350.351 336.395 350.351 351.764Z" fill="black"/>
<path d="M268.286 367.132V354.774H307.437V367.132H268.286Z" fill="black"/>
<path d="M165 292.506H204.636V295.675H201.562C197.356 295.675 194.929 298.369 194.929 302.488V348.753L229.226 301.854C231.653 298.21 231.006 295.675 227.123 295.675H225.182V292.506H248.316V295.675H245.404C240.389 295.675 236.021 298.052 232.786 302.013L211.431 331.166L243.301 394.226C245.566 397.87 249.125 400.247 253.008 400.247H256.891V403.415H217.255V400.247H219.52C223.402 400.247 224.697 397.87 223.079 394.226L199.621 347.486L194.929 353.823V393.434C194.929 397.553 197.356 400.247 201.562 400.247H204.636V403.415H165V400.247H168.074C172.28 400.247 174.707 397.553 174.707 393.434V302.488C174.707 298.369 172.28 295.675 168.074 295.675H165V292.506ZM228.741 302.488L228.903 302.33V302.171L228.741 302.488Z" fill="black"/>
<defs>
<filter id="filter0_f_82_136" x="0" y="0" width="1024" height="1024" filterUnits="userSpaceOnUse" color-interpolation-filters="sRGB">
<feFlood flood-opacity="0" result="BackgroundImageFix"/>
<feBlend mode="normal" in="SourceGraphic" in2="BackgroundImageFix" result="shape"/>
<feGaussianBlur stdDeviation="125" result="effect1_foregroundBlur_82_136"/>
</filter>
</defs>
</svg>
