<svg width="336" height="51" viewBox="0 0 336 51" fill="none" xmlns="http://www.w3.org/2000/svg">
<g clip-path="url(#clip0_82_118)">
<path d="M0.00915243 30.3239C0.00190953 29.7607 0.0507991 29.2633 0.0544205 28.7677C0.0598527 27.7296 0.315165 26.7453 0.608502 25.7592C0.816736 25.0591 1.07929 24.3798 1.36539 23.7074C1.66597 23.0003 2.07157 22.347 2.49709 21.7023C2.62927 21.503 2.74335 21.2881 2.84475 21.0732C2.97512 20.7977 2.9552 20.5221 2.88096 20.2223C2.74697 19.6764 2.46812 19.1808 2.37215 18.6141C2.30515 18.2207 2.19289 17.81 2.08424 17.4132C1.96292 16.9678 1.83617 16.5085 1.77099 16.0614C1.63337 15.1256 1.44506 14.1985 1.32917 13.2592C1.16621 11.9421 1.11007 10.6251 1.14086 9.30452C1.16077 8.47269 1.23501 7.64085 1.29839 6.81075C1.36357 5.95466 1.4686 5.10723 1.72934 4.27539C1.87963 3.79536 2.01 3.30319 2.16391 2.82489C2.29067 2.42976 2.53692 2.0693 2.7868 1.71924C3.225 1.10576 3.80805 0.684648 4.50337 0.384841C4.78584 0.263532 5.02667 0.320721 5.24758 0.504417C5.33812 0.580669 5.44676 0.655187 5.49565 0.753967C5.71475 1.20974 6.17467 1.29293 6.59838 1.42983C7.41321 1.69498 8.26062 1.87521 9.04105 2.22007C9.59875 2.46616 10.142 2.74863 10.6707 3.05537C11.3606 3.45569 11.9871 3.93919 12.6335 4.39497C12.9957 4.65145 13.2944 4.98592 13.662 5.24413C14.4497 5.79869 15.0997 6.49015 15.757 7.17641C16.2894 7.7327 16.838 8.27166 17.3305 8.86261C17.6547 9.2508 17.9589 9.65112 18.2341 10.0722C18.3971 10.32 18.5691 10.5627 18.8298 10.7273C19.058 10.8694 19.2897 10.9127 19.5632 10.7949C20.0122 10.6025 20.5066 10.5557 20.9828 10.4587C21.4427 10.3651 21.9081 10.2975 22.3734 10.2386C22.9963 10.1589 23.6192 10.074 24.2457 10.0376C25.2162 9.98038 26.1904 9.93359 27.1628 9.93359C28.1623 9.93359 29.1691 9.94053 30.1632 10.0393C31.447 10.1658 32.7452 10.223 34.0001 10.5592C34.3731 10.6597 34.7841 10.5991 35.1336 10.7862C35.2911 10.8711 35.4432 10.8867 35.6116 10.885C35.7203 10.885 35.8162 10.8573 35.8832 10.7741C36.0752 10.5349 36.3413 10.3443 36.4681 10.0688C36.7325 9.49861 37.2413 9.09656 37.5672 8.5732C38.067 7.77256 38.7876 7.15735 39.4359 6.48322C39.894 6.00665 40.4282 5.60633 40.9605 5.20947C41.9202 4.49722 42.9686 3.9132 44.0188 3.33958C44.4299 3.11429 44.9079 2.99645 45.3334 2.77983C46.0704 2.4055 46.8309 2.09357 47.6312 1.85615C48.4352 1.61699 49.1903 1.26173 49.8657 0.767831C50.0322 0.646522 50.2187 0.577203 50.4324 0.582402C50.6913 0.589334 50.9611 0.516548 51.2056 0.552941C51.7742 0.634391 52.2468 0.904737 52.5347 1.4073C52.799 1.87001 53.1304 2.29113 53.3603 2.77636C53.5269 3.12816 53.6193 3.49555 53.7497 3.85255C54.1553 4.95992 54.2911 6.11582 54.4468 7.27693C54.5826 8.28899 54.5717 9.30625 54.7238 10.3148C54.8035 10.8451 54.751 11.3945 54.7148 11.9369C54.6786 12.4863 54.6315 13.0322 54.579 13.5798C54.4921 14.5139 54.3345 15.4358 54.148 16.3578C53.9416 17.3785 53.5106 18.3091 53.0996 19.2536C52.9873 19.5135 52.8153 19.7492 52.6668 19.9936C52.5093 20.2518 52.3826 20.5256 52.2069 20.7769C51.8774 21.2517 52.0349 21.7231 52.3156 22.1511C52.484 22.4076 52.6198 22.6762 52.7628 22.9397C53.2771 23.8807 53.6193 24.8841 53.9362 25.8996C54.1027 26.4351 54.2241 26.9654 54.2748 27.5165C54.2856 27.6291 54.3019 27.74 54.2041 27.8093C54.1136 27.8735 54.0195 27.8128 53.9217 27.7729C52.79 27.3224 52.053 27.4471 51.0969 28.2374C50.255 28.9323 49.4945 29.7191 48.7321 30.4972C48.5022 30.7312 48.2125 30.9114 48.0712 31.251C47.8376 31.816 47.7127 32.3602 47.8829 32.9615C48.064 33.6027 48.5112 34.1018 48.81 34.6789C48.9911 35.029 49.2464 35.3444 49.2971 35.7585C49.3749 36.3928 48.7738 36.7065 48.312 36.807C47.8213 36.9127 47.3343 37.0358 46.849 37.1571C46.4162 37.2645 46.0016 37.4135 45.6213 37.651C45.5163 37.7168 45.4457 37.8 45.3624 37.8763C44.8318 38.3511 44.5982 38.9403 44.6037 39.6318C44.6127 40.8414 44.582 42.051 44.6182 43.2589C44.6363 43.8689 44.8916 44.4131 45.4149 44.8151C45.567 44.9312 45.5163 45.0837 45.4058 45.2328C45.1053 45.6348 44.6327 45.8081 44.218 46.0438C43.5354 46.4303 42.8563 46.8323 42.1302 47.1443C41.4222 47.4493 40.7269 47.7716 39.9954 48.0333C39.2313 48.3054 38.4671 48.5757 37.6958 48.8235C37.2159 48.9778 36.7198 49.0887 36.2291 49.2169C35.4179 49.4283 34.5994 49.6155 33.7701 49.7489C32.6203 49.9344 31.4759 50.1354 30.3062 50.2012C29.3538 50.2567 28.3995 50.326 27.4471 50.3243C26.7554 50.3243 26.0582 50.3485 25.3647 50.2619C25.0062 50.2168 24.6423 50.2151 24.2837 50.2047C23.382 50.1805 22.4965 50.0366 21.6093 49.9032C20.8162 49.7836 20.0213 49.6606 19.239 49.4907C18.5926 49.3504 17.9679 49.1233 17.3269 48.9587C16.3926 48.7213 15.5071 48.3591 14.6072 48.0333C13.2781 47.5532 12.0306 46.9172 10.7848 46.2708C9.62953 45.673 8.56664 44.9451 7.55263 44.1687C6.35393 43.2502 5.23128 42.2416 4.26073 41.084C3.49842 40.1742 2.7868 39.2401 2.2291 38.2055C1.76737 37.3494 1.34909 36.476 1.02678 35.5558C0.862004 35.0861 0.695417 34.6165 0.559613 34.1399C0.201089 32.8697 -0.0560337 31.5838 0.00915243 30.3239ZM53.8402 9.23693C53.8148 8.87994 53.7967 8.51948 53.7696 8.16421C53.7098 7.37224 53.7026 6.58027 53.5269 5.79696C53.4364 5.3949 53.3078 5.00325 53.2463 4.5908C53.1847 4.17315 52.9674 3.77629 52.8552 3.36904C52.6505 2.63079 52.0856 2.13516 51.6872 1.52688C51.6764 1.50955 51.6365 1.50955 51.613 1.49569C51.202 1.25133 50.838 1.43503 50.5139 1.64992C49.958 2.02078 49.3514 2.34138 48.9585 2.90114C48.8209 3.09696 48.5909 3.18708 48.4243 3.34825C47.7018 4.04837 47.1514 4.87154 46.6208 5.70684C46.4452 5.98239 46.2732 6.26313 46.1084 6.54387C45.9617 6.79342 45.8295 7.06204 45.6322 7.29599C45.4602 7.50048 45.2755 7.7275 45.1795 7.97878C45.0129 8.4155 44.7467 8.79849 44.5041 9.18668C44.1057 9.82788 43.7508 10.4916 43.4647 11.1761C43.2637 11.6596 43.1135 12.1726 42.927 12.6665C42.8907 12.7636 42.8219 12.8433 42.802 12.9559C42.7423 13.2973 42.9686 13.4568 43.2149 13.6075C43.6476 13.8675 44.0912 14.1118 44.515 14.3822C45.0708 14.7357 45.6249 15.091 46.1663 15.467C46.7077 15.8431 47.2673 16.2035 47.7525 16.6402C48.542 17.3508 49.3967 17.9937 50.0829 18.8151C50.4777 19.2865 50.9123 19.7302 51.2726 20.2293C51.4102 20.4199 51.6709 20.4338 51.7832 20.2345C51.9244 19.9849 52.0639 19.7284 52.1942 19.4737C52.5111 18.8585 52.5691 18.1739 52.8696 17.557C53.1829 16.9123 53.2264 16.1879 53.3549 15.4895C53.4038 15.2244 53.3513 14.9523 53.431 14.6976C53.5813 14.2193 53.6483 13.7236 53.7098 13.2384C53.8148 12.3962 53.7189 11.5418 53.8112 10.6892C53.8619 10.2178 53.8927 9.72044 53.8366 9.2352L53.8402 9.23693ZM1.61708 8.85394C1.58992 9.01684 1.66415 9.17108 1.66415 9.32878C1.66053 10.4379 1.68407 11.5453 1.78185 12.6509C1.82712 13.1621 1.88506 13.6734 1.9249 14.1846C1.95206 14.5399 1.98284 14.9055 2.06251 15.2625C2.16573 15.7183 2.27075 16.181 2.31964 16.6402C2.39388 17.3265 2.62927 17.9712 2.75059 18.6436C2.82845 19.0786 3.02401 19.4979 3.11636 19.9399C3.13446 20.0282 3.09101 20.1443 3.24311 20.1686C3.36805 20.1894 3.48031 20.1461 3.53101 20.0508C3.62517 19.874 3.78814 19.751 3.88772 19.5829C4.17201 19.1046 4.59029 18.7285 4.95243 18.3126C5.38882 17.81 5.89944 17.3785 6.41731 16.9522C6.86275 16.5865 7.27559 16.1775 7.75362 15.8552C8.42902 15.4012 9.10623 14.9454 9.79612 14.5087C10.3665 14.1482 10.9894 13.8744 11.5543 13.5035C11.7463 13.377 12.0034 13.2991 12.2189 13.1725C12.4072 13.0616 12.5249 12.923 12.4887 12.696C12.4072 12.2038 12.1301 11.7879 11.9147 11.3512C11.7481 11.0132 11.5525 10.6874 11.3769 10.3512C11.1813 9.97518 11.0075 9.5818 10.7558 9.24386C10.4081 8.77942 10.1402 8.27166 9.82147 7.79162C9.44484 7.22494 9.12977 6.62186 8.68252 6.09503C8.45981 5.83335 8.28054 5.53874 8.06507 5.26666C7.70111 4.80915 7.40958 4.30139 7.06736 3.82655C6.67805 3.28586 6.32858 2.72091 5.91393 2.19581C5.60248 1.80242 5.29466 1.4073 4.89087 1.0919C4.68625 0.932465 4.4744 0.916868 4.22452 1.02431C4.05793 1.09537 3.93661 1.21148 3.79719 1.30852C3.08738 1.80416 2.7361 2.52681 2.44277 3.28586C2.29972 3.65499 2.36853 4.06744 2.20737 4.42616C2.04803 4.77969 1.99371 5.15922 1.91947 5.52488C1.69856 6.62186 1.71848 7.7431 1.61708 8.85221V8.85394ZM38.0851 35.3634C38.8818 35.3998 39.7256 35.301 40.5676 35.1641C41.5472 35.0047 42.496 34.7499 43.4195 34.3982C43.979 34.185 44.5331 33.951 45.0455 33.6547C45.94 33.1383 46.6679 32.4208 47.3831 31.6999C47.5226 31.5595 47.6529 31.4053 47.7562 31.2389C48.2396 30.4487 48.5384 29.5891 48.7702 28.7036C49.107 27.4125 49.2228 26.1075 49.1142 24.7766C49.0617 24.1441 48.7937 23.7507 48.1545 23.5375C47.5262 23.3296 46.8798 23.2152 46.2297 23.1736C45.0002 23.0922 43.7726 23.1355 42.563 23.437C41.9944 23.5791 41.4222 23.723 40.8917 23.9448C40.1547 24.2515 39.4413 24.6206 38.7931 25.0886C38.3748 25.3918 37.9004 25.631 37.5473 26.007C37.3046 26.2653 37.0566 26.5183 36.7904 26.7488C35.8561 27.5598 35.197 28.5355 34.795 29.6792C34.6628 30.0536 34.5777 30.4365 34.4709 30.8143C34.1866 31.8143 34.0236 32.8246 34.0761 33.8627C34.0942 34.1954 34.1377 34.5368 34.4654 34.7309C34.7316 34.8886 35.0231 35.0082 35.3273 35.0896C36.211 35.3236 37.1127 35.3894 38.0851 35.3634ZM18.1725 35.1121C18.5618 35.1121 18.953 35.1277 19.3423 35.1087C20.0973 35.0723 20.8307 34.9388 21.5151 34.6113C22.0529 34.3548 22.3028 33.9337 22.3173 33.3705C22.33 32.9511 22.2412 32.5404 22.1779 32.1297C22.033 31.2008 21.7976 30.2927 21.4427 29.4106C21.0371 28.402 20.454 27.5095 19.6736 26.7349C18.8316 25.9013 17.8756 25.2081 16.8308 24.6206C15.862 24.0748 14.8607 23.6086 13.7652 23.3417C12.485 23.028 11.194 22.8374 9.86674 22.9223C9.14969 22.9691 8.45075 23.1008 7.77897 23.3313C7.27559 23.5046 6.79937 23.7559 6.64727 24.3035C6.57665 24.5565 6.5676 24.8286 6.55311 25.092C6.5006 26.0261 6.63822 26.9515 6.73418 27.8769C6.79213 28.428 6.90801 28.9826 7.11806 29.5059C7.35707 30.1021 7.64679 30.6792 8.05239 31.1869C8.48334 31.7259 8.91249 32.2718 9.47019 32.7033C9.87217 33.0135 10.3013 33.2665 10.7884 33.4606C11.2284 33.6356 11.6449 33.8783 12.0939 34.0446C14.0495 34.769 16.0721 35.1607 18.1762 35.1104L18.1725 35.1121ZM27.6625 47.9154C27.9396 47.9189 28.2999 47.8721 28.6584 47.8669C29.6181 47.8531 30.5307 47.6174 31.4162 47.3124C32.6764 46.8774 33.8172 46.2344 34.6972 45.2414C35.3509 44.5049 35.8687 43.6956 36.0009 42.7061C36.1693 41.4479 35.8307 40.3215 35.0648 39.3008C34.7896 38.9334 34.4093 38.6596 34.0906 38.3286C33.7013 37.9248 33.1635 37.7116 32.6801 37.4274C31.7294 36.8677 30.681 36.5765 29.6091 36.3911C28.4792 36.1953 27.3348 36.1485 26.1796 36.3079C24.8269 36.4933 23.5468 36.8469 22.3463 37.4898C21.2815 38.0599 20.4251 38.8259 19.813 39.8241C18.9294 41.2642 19.0344 43.2173 19.9597 44.5517C20.0557 44.6904 20.1915 44.803 20.2983 44.9347C20.9013 45.6834 21.6328 46.2934 22.4965 46.7439C24.0755 47.5688 25.783 47.9189 27.6607 47.9189L27.6625 47.9154ZM30.4782 32.1886C30.4782 31.6358 30.4837 31.2095 30.4782 30.7831C30.4728 30.4556 30.4257 30.1298 30.3442 29.8109C30.279 29.5527 30.0364 29.4539 29.8155 29.6134C29.5765 29.7867 29.3121 29.9132 29.0532 30.0518C28.4249 30.3898 27.7802 30.5163 27.094 30.1801C26.8242 30.0484 26.625 29.8369 26.3896 29.6706C26.0619 29.4383 25.8428 29.5233 25.7848 29.9149C25.7468 30.1679 25.7088 30.4227 25.7214 30.6826C25.7631 31.5335 25.8029 32.3827 25.8283 33.2336C25.8391 33.6114 25.946 33.9684 26.0293 34.3306C26.089 34.587 26.2484 34.795 26.5127 34.9163C26.8079 35.0498 27.1248 35.0757 27.4344 35.0654C28.0446 35.0463 28.653 35.003 29.2614 34.9319C29.8535 34.8626 30.2356 34.5766 30.3822 34.0256C30.5543 33.3774 30.4601 32.7189 30.48 32.1903L30.4782 32.1886ZM28.0863 25.0556C28.9138 25.1613 29.5946 24.4196 29.6489 23.8685C29.7304 23.0436 29.7141 22.2309 29.3338 21.451C29.0966 20.964 28.7309 20.6677 28.1858 20.6053C27.5123 20.5273 26.9727 20.7544 26.6141 21.3297C26.3516 21.7508 26.328 22.2239 26.2918 22.6901C26.2447 23.3174 26.3317 23.9205 26.6866 24.4785C27.0179 24.9967 27.5304 25.0574 28.0844 25.0556H28.0863ZM29.8336 27.8977C29.8064 27.3536 29.7268 26.8285 29.3737 26.3692C28.4937 25.2324 27.0578 25.6292 26.5272 26.3727C26.3099 26.6777 26.2628 27.0208 26.2212 27.3709C26.1723 27.7937 26.1234 28.2322 26.2085 28.636C26.395 29.5111 27.4072 30.1385 28.3886 29.8595C28.9572 29.6983 29.4878 29.4453 29.6743 28.8353C29.7684 28.5303 29.8427 28.2201 29.8318 27.896L29.8336 27.8977ZM29.2759 13.1777C29.2759 12.9923 29.2976 12.8034 29.2723 12.6197C29.2143 12.2142 29.0188 11.93 28.586 11.8676C28.1985 11.8104 27.8092 11.8381 27.4217 11.8416C26.9129 11.8468 26.5815 12.2315 26.634 12.7185C26.6503 12.8762 26.6431 13.0374 26.6558 13.1968C26.6884 13.611 26.7373 14.0252 26.8713 14.4238C26.9473 14.6508 27.0795 14.8327 27.3004 14.9575C27.936 15.3145 28.9156 15.0598 29.151 14.2834C29.2614 13.9212 29.2922 13.5538 29.2759 13.1812V13.1777ZM29.265 17.9521C29.265 17.7216 29.2741 17.4894 29.2632 17.2589C29.2342 16.6905 28.5643 16.0701 27.9758 16.058C27.4072 16.0441 26.8133 16.4635 26.6648 17.0163C26.4675 17.7494 26.6087 18.472 26.7952 19.1877C26.8694 19.4737 27.1066 19.5777 27.3746 19.6123C27.668 19.6504 27.9649 19.6678 28.2601 19.6764C28.7635 19.6903 28.9916 19.5118 29.1654 19.0578C29.3049 18.6938 29.2596 18.3212 29.2668 17.9504L29.265 17.9521Z" fill="#070508"/>
<path d="M53.8402 9.23716C53.8963 9.7224 53.8656 10.2198 53.8149 10.6911C53.7225 11.5438 53.8203 12.3981 53.7135 13.2404C53.6519 13.7256 53.5849 14.223 53.4346 14.6995C53.3549 14.9525 53.4074 15.2264 53.3585 15.4915C53.23 16.1899 53.1883 16.9143 52.8733 17.559C52.5727 18.1776 52.5148 18.8622 52.1979 19.4756C52.0675 19.7304 51.9281 19.9851 51.7868 20.2364C51.6746 20.4357 51.4138 20.4219 51.2762 20.2312C50.9159 19.7304 50.4813 19.2885 50.0866 18.8171C49.4003 17.9957 48.5456 17.3527 47.7562 16.6422C47.2709 16.2072 46.7114 15.845 46.17 15.469C45.6286 15.0929 45.0745 14.7377 44.5186 14.3841C44.0931 14.1138 43.6494 13.8694 43.2185 13.6095C42.9704 13.4604 42.7459 13.301 42.8056 12.9579C42.8256 12.8452 42.8926 12.7673 42.9306 12.6685C43.1171 12.1728 43.2674 11.6616 43.4684 11.1781C43.7545 10.4936 44.1076 9.82984 44.5077 9.18864C44.7504 8.79872 45.0184 8.41746 45.1831 7.98075C45.2791 7.72946 45.4638 7.50244 45.6358 7.29795C45.8332 7.064 45.9672 6.79538 46.112 6.54583C46.2768 6.26336 46.4488 5.98435 46.6245 5.7088C47.155 4.87524 47.7055 4.05207 48.4279 3.35021C48.5945 3.18904 48.8245 3.09719 48.9621 2.9031C49.355 2.34334 49.9616 2.02274 50.5175 1.65188C50.8398 1.43526 51.2056 1.25329 51.6166 1.49765C51.6402 1.51151 51.68 1.50978 51.6909 1.52884C52.0874 2.13712 52.6542 2.63275 52.8588 3.371C52.9711 3.77825 53.1883 4.17511 53.2499 4.59276C53.3115 5.00521 53.44 5.39686 53.5306 5.79892C53.7062 6.58223 53.7135 7.3742 53.7732 8.16618C53.8004 8.52144 53.8185 8.8819 53.8438 9.23889L53.8402 9.23716Z" fill="#FAC1E4"/>
<path d="M1.6173 8.85414C1.7187 7.74503 1.69879 6.62206 1.91969 5.52681C1.99393 5.16115 2.04826 4.78336 2.2076 4.4281C2.36875 4.06937 2.29995 3.65692 2.44299 3.28779C2.73633 2.53048 3.08761 1.80609 3.79742 1.31046C3.93684 1.21341 4.05816 1.0973 4.22475 1.02625C4.47463 0.918802 4.68648 0.934399 4.89109 1.09383C5.29307 1.40924 5.6009 1.80262 5.91415 2.19775C6.32881 2.72284 6.67828 3.28779 7.06758 3.82848C7.40981 4.30332 7.70134 4.81109 8.06529 5.2686C8.28077 5.53894 8.46003 5.83355 8.68275 6.09696C9.13 6.62379 9.44507 7.22514 9.8217 7.79356C10.1404 8.27359 10.4084 8.77962 10.756 9.2458C11.0095 9.58373 11.1834 9.97712 11.3771 10.3532C11.5509 10.6894 11.7483 11.0152 11.9149 11.3531C12.1304 11.7898 12.4074 12.2057 12.4889 12.6979C12.5269 12.9249 12.4074 13.0636 12.2191 13.1745C12.0036 13.301 11.7465 13.379 11.5546 13.5055C10.9896 13.8781 10.3685 14.1501 9.79635 14.5106C9.10465 14.9456 8.42925 15.4014 7.75385 15.8571C7.27582 16.1795 6.86297 16.5885 6.41753 16.9541C5.89967 17.3787 5.38723 17.8119 4.95266 18.3145C4.59051 18.7322 4.17405 19.1082 3.88795 19.5848C3.78836 19.7512 3.6254 19.8759 3.53124 20.0527C3.48054 20.148 3.36827 20.1913 3.24333 20.1705C3.09123 20.1463 3.13469 20.0302 3.11658 19.9418C3.02424 19.5016 2.83049 19.0822 2.75082 18.6455C2.6295 17.9731 2.3941 17.3267 2.31986 16.6422C2.27098 16.1829 2.16595 15.7202 2.06274 15.2645C1.98307 14.9092 1.95229 14.5418 1.92513 14.1865C1.88529 13.6753 1.82735 13.1641 1.78208 12.6528C1.6843 11.5455 1.66076 10.4398 1.66438 9.33071C1.66438 9.17128 1.59014 9.01878 1.6173 8.85588V8.85414Z" fill="#FAC1E4"/>
<path d="M45.214 23.4125C46.1863 23.3449 47.1496 23.539 48.093 23.7816C48.3827 23.8562 48.6634 24.123 48.7322 24.4887C48.906 25.3985 48.868 26.3049 48.7612 27.2164C48.6888 27.8264 48.5783 28.4312 48.3882 29.0135C48.0351 30.0862 47.6168 31.1399 46.7223 31.9353C46.2624 32.3443 45.8242 32.7793 45.328 33.1432C44.7848 33.5418 44.1384 33.7775 43.5173 34.0496C42.6482 34.4291 41.712 34.5955 40.794 34.8121C40.2616 34.9369 39.6985 34.9663 39.148 34.9993C38.4926 35.0374 37.8353 35.1015 37.178 35.0564C36.3976 35.0027 35.6099 34.9819 34.882 34.6405C34.509 34.4655 34.346 34.2558 34.337 33.8607C34.308 32.6077 34.5995 31.4102 34.9417 30.2093C35.3546 28.764 36.2129 27.6046 37.2884 26.5735C37.9005 25.9877 38.603 25.5008 39.3436 25.0641C39.8977 24.7365 40.43 24.3778 41.0457 24.156C41.8786 23.8579 42.7387 23.6673 43.6133 23.5234C44.1348 23.4368 44.6599 23.3883 45.2122 23.4194L45.214 23.4125Z" fill="#FDFDFD"/>
<path d="M18.0077 34.8919C16.6424 34.9543 15.183 34.6579 13.7308 34.3304C12.8544 34.1311 11.9744 33.8816 11.1958 33.4708C9.80152 32.7378 8.5829 31.7916 7.80429 30.4C7.39688 29.6704 7.21581 28.8975 7.08181 28.1021C6.89712 27.0051 6.83555 25.9029 6.84461 24.7903C6.84823 24.2115 7.19046 23.9186 7.6377 23.6829C8.2787 23.345 9.00661 23.3069 9.7128 23.2462C11.5815 23.0868 13.3904 23.4039 15.1196 24.0625C16.0521 24.4177 16.9086 24.9342 17.7379 25.4852C18.2196 25.8041 18.6777 26.149 19.1032 26.5285C19.9054 27.246 20.5753 28.0639 21.0244 29.0361C21.4173 29.8836 21.6763 30.7691 21.8265 31.6807C21.9243 32.2734 21.9823 32.8747 22.0312 33.4726C22.0656 33.8989 21.8265 34.1952 21.4445 34.3928C20.7202 34.7671 19.9235 34.8486 19.1231 34.8902C18.799 34.9075 18.4731 34.8936 18.0059 34.8936L18.0077 34.8919Z" fill="#FDFDFD"/>
<path d="M27.7733 47.6847C26.4805 47.6934 25.3922 47.5114 24.3094 47.2515C22.9369 46.9205 21.7979 46.2169 20.8491 45.2603C19.6903 44.0922 19.1235 42.7007 19.5382 41.0664C19.7138 40.375 20.0578 39.7563 20.5268 39.1983C21.1135 38.4982 21.8468 37.9939 22.6635 37.5641C23.7336 37.0026 24.8834 36.7288 26.0785 36.5901C26.667 36.5226 27.2573 36.4515 27.853 36.481C29.0698 36.5416 30.2739 36.6941 31.4201 37.0944C32.3019 37.4029 33.1439 37.8119 33.8519 38.4184C34.7265 39.1671 35.4526 40.0301 35.7061 41.1583C35.9053 42.0439 35.793 42.9138 35.4291 43.7595C34.9184 44.9449 34.0077 45.7576 32.885 46.3971C32.0249 46.8858 31.1014 47.1926 30.1363 47.4404C29.2943 47.657 28.4469 47.6189 27.7751 47.6899L27.7733 47.6847ZM27.6049 44.6503C28.0286 44.6641 28.4342 44.6017 28.8417 44.496C29.8774 44.2291 30.7103 43.7231 31.1449 42.7492C31.3604 42.2657 31.3549 41.7596 31.1214 41.2761C30.5184 40.0249 29.3849 39.5276 28.0504 39.382C26.9114 39.2572 25.8757 39.5778 24.9414 40.2156C24.4543 40.5483 24.1627 41.0231 24.0088 41.5361C23.7843 42.2795 24.0342 42.9745 24.5846 43.5221C25.4013 44.3349 26.4515 44.6347 27.6049 44.6503Z" fill="#FDFDFD"/>
<path d="M30.2377 32.1126C30.2105 32.7226 30.3174 33.3378 30.1761 33.9443C30.0512 34.4798 29.8375 34.6185 29.2599 34.6947C28.608 34.7814 27.9598 34.8628 27.2989 34.8559C26.6072 34.8489 26.1961 34.6271 26.1382 33.875C26.044 32.674 25.9499 31.4713 25.9644 30.2652C25.9644 30.2392 25.9644 30.2115 25.968 30.1855C25.9915 30.0486 25.9789 29.8822 26.14 29.8198C26.3012 29.7574 26.3953 29.8961 26.4877 29.9879C27.1486 30.6551 28.1173 30.7088 28.9213 30.3397C29.1621 30.2288 29.3939 30.0988 29.6293 29.9758C29.9172 29.825 30.0675 29.8857 30.1562 30.1785C30.3101 30.6846 30.2123 31.2027 30.2377 31.714C30.2449 31.8474 30.2377 31.9808 30.2377 32.1143V32.1126ZM29.1386 32.5909C29.2146 31.9982 28.4197 31.4939 27.8475 31.4921C27.3079 31.4921 26.7303 32.0068 26.7448 32.4938C26.7647 33.1402 27.3858 33.6532 27.9236 33.674C28.465 33.6948 29.2309 32.9981 29.1386 32.5909Z" fill="#FDFDFD"/>
<path d="M29.4279 23.4074C29.4587 23.9532 29.2849 24.4835 28.6439 24.7054C28.1495 24.8752 27.6226 24.8717 27.1391 24.6118C27.0015 24.5373 26.9038 24.4159 26.8404 24.2704C26.4275 23.3086 26.4366 22.352 26.8693 21.4006C27.0432 21.0176 27.6715 20.7975 28.2292 20.8824C28.8267 20.9742 29.1165 21.3468 29.2486 21.8702C29.3718 22.3537 29.4297 22.8476 29.4315 23.4074H29.4279Z" fill="#FDFDFD"/>
<path d="M28.0285 25.9153C28.6804 25.9188 29.1928 26.2654 29.4409 26.9603C29.6781 27.624 29.6727 28.3016 29.3141 28.9394C29.019 29.4645 28.3382 29.7591 27.7044 29.6516C27.0073 29.5321 26.6125 29.1387 26.4822 28.4871C26.3681 27.9221 26.4532 27.371 26.5818 26.8286C26.7248 26.2203 27.201 25.9465 28.0285 25.9136V25.9153Z" fill="#FDFDFD"/>
<path d="M29.0553 13.1849C29.0897 13.6597 29.0136 14.1051 28.7547 14.5158C28.6623 14.6631 28.5356 14.748 28.3672 14.7914C28.1209 14.8572 27.8674 14.852 27.623 14.8208C27.3514 14.7844 27.1812 14.6025 27.1105 14.3529C26.9458 13.7689 26.8607 13.1745 26.8715 12.568C26.8752 12.3149 27.0852 12.1174 27.4093 12.1018C27.7787 12.0827 28.1499 12.0879 28.5211 12.1018C28.7891 12.1122 29.039 12.3669 29.0571 12.6303C29.0698 12.8158 29.0589 13.0029 29.0589 13.1849H29.0553Z" fill="#FDFDFD"/>
<path d="M29.0712 17.926C29.0712 18.3228 29.1128 18.7266 28.91 19.0992C28.7815 19.3366 28.6076 19.5047 28.3052 19.4787C27.9829 19.451 27.6624 19.4163 27.3419 19.3782C27.1609 19.3557 27.0196 19.25 26.9798 19.0871C26.8132 18.4216 26.6991 17.7423 26.8729 17.0664C26.9997 16.5725 27.5628 16.2068 28.0119 16.2588C28.5515 16.3212 29.0549 16.8463 29.0712 17.3679C29.0766 17.5534 29.0712 17.7405 29.0712 17.9277V17.926Z" fill="#FDFDFD"/>
<path d="M27.46 44.4184C26.5021 44.3716 25.4881 44.1481 24.7366 43.3491C24.2115 42.7911 24.0667 42.1378 24.3238 41.3961C24.5664 40.6977 25.1314 40.3494 25.7561 40.0443C26.4405 39.7116 27.1702 39.6111 27.9326 39.6562C28.4667 39.6873 28.9773 39.8121 29.4608 40.0184C30.1724 40.3216 30.7138 40.793 30.9384 41.533C31.1882 42.3527 30.7627 43.2001 30.1054 43.6871C29.3359 44.2555 28.407 44.4028 27.4581 44.4201L27.46 44.4184Z" fill="#070508"/>
<path d="M28.7472 32.563C28.7472 32.9633 28.3724 33.3064 27.9324 33.3064C27.4924 33.3064 27.1248 32.9304 27.1284 32.4833C27.1303 32.1471 27.4725 31.8213 27.8256 31.8247C28.2221 31.8282 28.8233 32.1696 28.7472 32.563Z" fill="#070508"/>
<path d="M54.3004 27.5492C54.5376 28.6792 54.2624 30.2024 54.0704 31.192C52.5693 38.9315 48.354 43.2882 45.0204 45.5931C44.9752 45.6243 43.8272 46.2638 43.8272 46.2638C43.8272 46.2638 41.5764 40.6056 42.681 38.0615C43.494 36.1847 49.0783 30.8991 49.8062 27.7277C50.1665 26.1611 53.8658 25.4783 54.3004 27.5475V27.5492Z" fill="#070508"/>
</g>
<path d="M324.426 44.0392C327.018 44.0392 328.766 41.7369 328.766 39.0213C328.766 31.3469 311.647 32.3505 311.647 22.4327C311.647 16.8835 317.374 14.7583 323.1 14.7583C330.394 14.7583 330.816 17.9461 334.794 16.3522C336 19.0088 334.372 21.6063 331.479 21.6063C327.501 21.6063 326.958 16.1751 323.341 16.1751C320.81 16.1751 318.881 18.1232 318.881 20.4256C318.881 27.3326 336 25.9158 336 36.9551C336 43.0356 329.068 45.456 324.246 45.456C316.952 45.456 315.746 42.2682 311.768 43.8621C310.563 41.2056 312.19 38.6081 315.083 38.6081C319.062 38.6081 320.388 44.0392 324.426 44.0392Z" fill="black"/>
<path d="M295.978 44.8659V7.85154C295.978 6.31665 295.074 5.31307 293.507 5.31307H292.361V4.13239C295.857 4.13239 300.077 3.30591 302.91 0V41.1468C302.91 42.6817 303.814 43.6852 305.381 43.6852H306.527V44.8659H295.978ZM295.978 44.8659H292.361V43.6852H293.507C295.074 43.6852 295.978 42.6817 295.978 41.1468V44.8659Z" fill="black"/>
<path d="M288.781 27.1555V28.2771H267.382C267.865 33.8854 270.999 42.2682 279.92 42.2682C283.477 42.2682 286.189 39.6707 288.178 37.0732L289.384 37.9587C286.671 41.6188 282.934 45.456 275.761 45.456C267.141 45.456 260.089 38.549 260.089 30.1072C260.089 21.6653 267.141 14.7583 275.761 14.7583C282.994 14.7583 288.781 20.2485 288.781 27.1555ZM267.322 27.1555H280.824C280.824 21.5472 278.594 16.1751 273.531 16.1751C268.528 16.1751 267.322 23.2002 267.322 26.9193C267.322 26.9784 267.322 27.0964 267.322 27.1555Z" fill="black"/>
<path d="M246.527 44.8659V35.9518C245.02 41.501 240.8 45.4563 235.436 45.4563C227.901 45.4563 222.416 39.0215 222.416 31.3471C222.416 21.6655 228.504 14.7585 237.003 14.7585C241.463 14.7585 244.779 17.1199 246.527 21.1932V7.85154C246.527 6.31665 245.622 5.31307 244.055 5.31307H242.91V4.13239C246.406 4.13239 250.626 3.30591 253.459 0V41.1468C253.459 42.6817 254.363 43.6852 255.93 43.6852H257.075V44.8659H246.527ZM246.527 26.3292C246.527 22.6691 244.176 17.238 239.112 17.238C233.326 17.238 230.071 24.4401 230.071 30.5206C230.071 36.6011 232.904 42.3275 237.967 42.3275C243.754 42.3275 246.527 34.8301 246.527 29.399V26.3292Z" fill="black"/>
<path d="M186.272 30.1072C186.272 21.6653 193.325 14.7583 201.945 14.7583C210.564 14.7583 217.617 21.6653 217.617 30.1072C217.617 38.549 210.564 45.456 201.945 45.456C193.325 45.456 186.272 38.549 186.272 30.1072ZM193.506 26.6242C193.506 32.0553 197.062 44.0392 204.175 44.0392C209.057 44.0392 210.384 37.2503 210.384 33.5902C210.384 28.159 206.827 16.1751 199.714 16.1751C194.832 16.1751 193.506 22.964 193.506 26.6242Z" fill="black"/>
<path d="M136.91 25.6206V41.1465C136.91 42.6814 137.815 43.685 139.382 43.685H140.527V44.8657H126.362V43.685H127.507C129.074 43.685 129.978 42.6814 129.978 41.1465V22.6098C129.978 21.075 129.074 20.0714 127.507 20.0714H126.362V18.8907C129.858 18.8907 134.077 18.0642 136.91 14.7583V20.6027C138.719 17.1787 142.396 14.7583 146.796 14.7583C151.92 14.7583 155.777 17.2968 157.345 21.5472C158.972 17.651 162.89 14.7583 167.652 14.7583C174.463 14.7583 178.984 19.3039 178.984 26.27V41.1465C178.984 42.6814 179.888 43.685 181.456 43.685H182.601V44.8657H168.436V43.685H169.581C171.148 43.685 172.052 42.6814 172.052 41.1465V29.753C172.052 21.6653 169.702 17.0606 164.759 17.0606C162.348 17.0606 158.731 19.3039 157.947 23.7905C158.068 24.558 158.128 25.3844 158.128 26.27V41.1465C158.128 42.6814 159.032 43.685 160.6 43.685H161.745V44.8657H147.58V43.685H148.725C150.292 43.685 151.196 42.6814 151.196 41.1465V29.753C151.196 21.6653 148.845 17.0606 143.903 17.0606C141.19 17.0606 136.91 19.8943 136.91 25.6206Z" fill="black"/>
<path d="M106.333 31.3473V26.7427H120.921V31.3473H106.333Z" fill="black"/>
<path d="M67.8501 3.54199H82.6182V4.72268H81.4729C79.9056 4.72268 79.0015 5.72625 79.0015 7.26114V24.4991L91.7804 7.02501C92.6845 5.66722 92.4434 4.72268 90.9968 4.72268H90.2734V3.54199H98.8931V4.72268H97.8081C95.9395 4.72268 94.312 5.60819 93.1065 7.08404L85.1498 17.9463L97.0245 41.4419C97.8684 42.7997 99.1945 43.6852 100.641 43.6852H102.088V44.8659H87.3198V43.6852H88.1637C89.6104 43.6852 90.0926 42.7997 89.4898 41.4419L80.7495 24.0268L79.0015 26.3882V41.1467C79.0015 42.6816 79.9056 43.6852 81.4729 43.6852H82.6182V44.8659H67.8501V43.6852H68.9954C70.5626 43.6852 71.4668 42.6816 71.4668 41.1467V7.26114C71.4668 5.72625 70.5626 4.72268 68.9954 4.72268H67.8501V3.54199ZM91.5995 7.26114L91.6598 7.20211V7.14307L91.5995 7.26114Z" fill="black"/>
<defs>
<clipPath id="clip0_82_118">
<rect width="58.3416" height="50.007" fill="white" transform="translate(0 0.320801)"/>
</clipPath>
</defs>
</svg>
